<svg xmlns="http://www.w3.org/2000/svg" width="169" height="50" viewBox="0 0 169 50">
    <defs>
        <linearGradient id="a" x1="91.536%" x2="-37.559%" y1="4.839%" y2="71.968%">
            <stop offset="0%" stop-color="#00A0FF"/>
            <stop offset=".657%" stop-color="#00A1FF"/>
            <stop offset="26.01%" stop-color="#00BEFF"/>
            <stop offset="51.22%" stop-color="#00D2FF"/>
            <stop offset="76.04%" stop-color="#00DFFF"/>
            <stop offset="100%" stop-color="#00E3FF"/>
        </linearGradient>
        <linearGradient id="b" x1="107.728%" x2="-130.665%" y1="49.428%" y2="49.428%">
            <stop offset="0%" stop-color="#FFE000"/>
            <stop offset="40.87%" stop-color="#FFBD00"/>
            <stop offset="77.54%" stop-color="#FFA500"/>
            <stop offset="100%" stop-color="#FF9C00"/>
        </linearGradient>
        <linearGradient id="c" x1="86.389%" x2="-49.888%" y1="17.815%" y2="194.393%">
            <stop offset="0%" stop-color="#FF3A44"/>
            <stop offset="100%" stop-color="#C31162"/>
        </linearGradient>
        <linearGradient id="d" x1="-18.579%" x2="42.275%" y1="-54.527%" y2="24.69%">
            <stop offset="0%" stop-color="#32A071"/>
            <stop offset="6.85%" stop-color="#2DA771"/>
            <stop offset="47.62%" stop-color="#15CF74"/>
            <stop offset="80.09%" stop-color="#06E775"/>
            <stop offset="100%" stop-color="#00F076"/>
        </linearGradient>
    </defs>
    <g fill="none" fill-rule="evenodd">
        <path fill="#000" d="M162.74 50H6.26C2.753 50 0 47.25 0 43.75V6.25C0 2.75 2.754 0 6.26 0h156.48c3.506 0 6.26 2.75 6.26 6.25v37.5c0 3.375-2.754 6.25-6.26 6.25z"/>
        <path fill="#A6A6A6" fill-rule="nonzero" d="M162.74 1C165.62 1 168 3.375 168 6.25v37.5c0 2.875-2.379 5.25-5.258 5.25H6.259c-2.879 0-5.258-2.375-5.258-5.25V6.25C1.001 3.375 3.38 1 6.26 1h156.482zm0-1H6.26C2.753 0 0 2.75 0 6.25v37.5C0 47.25 2.754 50 6.26 50h156.48c3.506 0 6.26-2.75 6.26-6.25V6.25c0-3.375-2.754-6.25-6.26-6.25z"/>
        <g fill="#FFF" stroke="#FFF" stroke-width=".5">
            <path d="M59.338 12.75c0 1-.25 1.875-.877 2.5-.75.75-1.627 1.125-2.754 1.125-1.126 0-2.003-.375-2.754-1.125-.75-.75-1.126-1.625-1.126-2.75s.375-2 1.126-2.75c.751-.75 1.628-1.125 2.754-1.125.501 0 1.002.125 1.503.375.5.25.876.5 1.126.875l-.626.625c-.5-.625-1.126-.875-2.003-.875-.75 0-1.502.25-2.003.875-.625.5-.876 1.25-.876 2.125s.25 1.625.876 2.125 1.252.875 2.003.875c.877 0 1.503-.25 2.129-.875.375-.375.625-.875.625-1.5h-2.754v-.875h3.63v.375zM65.096 9.625h-3.38V12h3.13v.875h-3.13v2.375h3.38v1h-4.381v-7.5h4.381zM69.227 16.25h-1.001V9.625h-2.128V8.75h5.258v.875h-2.129zM74.986 16.25v-7.5h1.001v7.5zM80.244 16.25h-1.002V9.625h-2.128V8.75h5.133v.875h-2.128v6.625z"/>
            <path fill-rule="nonzero" d="M92.136 15.25c-.75.75-1.627 1.125-2.754 1.125-1.126 0-2.003-.375-2.754-1.125-.751-.75-1.127-1.625-1.127-2.75s.376-2 1.127-2.75 1.628-1.125 2.754-1.125c1.127 0 2.003.375 2.754 1.125.751.75 1.127 1.625 1.127 2.75s-.376 2-1.127 2.75zm-4.757-.625c.501.5 1.252.875 2.003.875.751 0 1.502-.25 2.003-.875.5-.5.876-1.25.876-2.125s-.25-1.625-.876-2.125c-.5-.5-1.252-.875-2.003-.875-.75 0-1.502.25-2.003.875-.5.5-.876 1.25-.876 2.125s.25 1.625.876 2.125z"/>
            <path d="M94.64 16.25v-7.5h1.127l3.63 5.875V8.75h1.002v7.5h-1.002l-3.88-6.125v6.125z"/>
        </g>
        <path fill="#FFF" fill-rule="nonzero" d="M85.251 27.25c-3.004 0-5.383 2.25-5.383 5.375 0 3 2.379 5.375 5.383 5.375 3.005 0 5.383-2.25 5.383-5.375 0-3.25-2.378-5.375-5.383-5.375zm0 8.5c-1.627 0-3.004-1.375-3.004-3.25s1.377-3.25 3.004-3.25c1.628 0 3.005 1.25 3.005 3.25 0 1.875-1.377 3.25-3.005 3.25zm-11.642-8.5c-3.005 0-5.383 2.25-5.383 5.375 0 3 2.378 5.375 5.383 5.375 3.004 0 5.383-2.25 5.383-5.375 0-3.25-2.379-5.375-5.383-5.375zm0 8.5c-1.628 0-3.005-1.375-3.005-3.25s1.377-3.25 3.005-3.25c1.627 0 3.004 1.25 3.004 3.25 0 1.875-1.377 3.25-3.004 3.25zm-13.896-6.875v2.25h5.383c-.125 1.25-.626 2.25-1.252 2.875-.75.75-2.003 1.625-4.13 1.625-3.38 0-5.884-2.625-5.884-6s2.629-6 5.883-6c1.753 0 3.13.75 4.131 1.625l1.628-1.625c-1.377-1.25-3.13-2.25-5.633-2.25-4.507 0-8.388 3.75-8.388 8.25s3.88 8.25 8.388 8.25c2.503 0 4.256-.75 5.758-2.375 1.502-1.5 2.003-3.625 2.003-5.25 0-.5 0-1-.125-1.375h-7.762zm56.834 1.75c-.5-1.25-1.752-3.375-4.506-3.375-2.754 0-5.008 2.125-5.008 5.375 0 3 2.254 5.375 5.258 5.375 2.379 0 3.88-1.5 4.382-2.375l-1.753-1.25c-.626.875-1.377 1.5-2.629 1.5s-2.003-.5-2.629-1.625l7.136-3-.25-.625zm-7.26 1.75c0-2 1.627-3.125 2.754-3.125.876 0 1.752.5 2.003 1.125l-4.757 2zm-5.884 5.125h2.378V21.875h-2.378V37.5zm-3.756-9.125c-.626-.625-1.627-1.25-2.879-1.25-2.629 0-5.132 2.375-5.132 5.375s2.378 5.25 5.132 5.25c1.252 0 2.253-.625 2.754-1.25h.125v.75c0 2-1.126 3.125-2.879 3.125-1.377 0-2.378-1-2.629-1.875l-2.003.875c.626 1.375 2.128 3.125 4.757 3.125 2.754 0 5.008-1.625 5.008-5.5v-9.5h-2.254v.875zm-2.754 7.375c-1.627 0-3.004-1.375-3.004-3.25s1.377-3.25 3.004-3.25c1.628 0 2.88 1.375 2.88 3.25s-1.252 3.25-2.88 3.25zm30.546-13.875h-5.634V37.5h2.379v-5.875h3.255c2.628 0 5.132-1.875 5.132-4.875s-2.504-4.875-5.132-4.875zm.125 7.5h-3.38V24h3.38c1.752 0 2.754 1.5 2.754 2.625-.125 1.375-1.127 2.75-2.754 2.75zm14.396-2.25c-1.753 0-3.505.75-4.131 2.375l2.128.875c.5-.875 1.252-1.125 2.128-1.125 1.252 0 2.379.75 2.504 2v.125c-.376-.25-1.377-.625-2.379-.625-2.253 0-4.506 1.25-4.506 3.5 0 2.125 1.877 3.5 3.88 3.5 1.628 0 2.379-.75 3.005-1.5h.125v1.25h2.253v-6c-.25-2.75-2.378-4.375-5.007-4.375zm-.25 8.625c-.751 0-1.878-.375-1.878-1.375 0-1.25 1.377-1.625 2.504-1.625 1.001 0 1.502.25 2.128.5-.25 1.5-1.503 2.5-2.754 2.5zm13.144-8.25l-2.629 6.75h-.125l-2.754-6.75h-2.504l4.131 9.5-2.378 5.25h2.378l6.385-14.75h-2.504zm-21.031 10h2.378V21.875h-2.378V37.5z"/>
        <path fill="url(#a)" d="M1.753.625c-.376.375-.626 1-.626 1.75V30c0 .75.25 1.375.626 1.75l.125.125 15.523-15.5v-.25L1.753.625z" transform="translate(11.267 8.75)"/>
        <path fill="url(#b)" d="M22.533 21.625L17.401 16.5v-.375L22.533 11l.126.125 6.134 3.5c1.752 1 1.752 2.625 0 3.625l-6.26 3.375z" transform="translate(11.267 8.75)"/>
        <path fill="url(#c)" d="M22.659 21.5L17.4 16.25 1.753 31.875c.626.625 1.502.625 2.628.125L22.66 21.5" transform="translate(11.267 8.75)"/>
        <path fill="url(#d)" d="M22.659 11L4.38.625C3.255 0 2.38.125 1.753.75L17.4 16.25 22.659 11z" transform="translate(11.267 8.75)"/>
        <g fill="#000">
            <path d="M33.8 30.125l-18.152 10.25c-1.001.625-1.878.5-2.504 0l-.125.125.125.125c.626.5 1.503.625 2.504 0l18.152-10.5z" opacity=".2"/>
            <path d="M13.02 40.375c-.376-.375-.501-1-.501-1.75v.125c0 .75.25 1.375.625 1.75v-.125h-.125z" opacity=".12"/>
        </g>
        <path fill="#000" d="M40.06 26.625l-6.26 3.5.125.125 6.134-3.5c.877-.5 1.252-1.125 1.252-1.75 0 .625-.5 1.125-1.252 1.625z" opacity=".12"/>
        <path fill="#FFF" d="M15.648 9.5L40.06 23.375c.751.5 1.252 1 1.252 1.625 0-.625-.375-1.25-1.252-1.75L15.65 9.375c-1.753-1-3.13-.125-3.13 1.875v.125c0-2 1.377-2.875 3.13-1.875z" opacity=".25"/>
    </g>
</svg>
