<?xml version="1.0" standalone="no"?>
<!DOCTYPE svg PUBLIC "-//W3C//DTD SVG 1.1//EN" "http://www.w3.org/Graphics/SVG/1.1/DTD/svg11.dtd" >
<svg xmlns="http://www.w3.org/2000/svg" xmlns:xlink="http://www.w3.org/1999/xlink" version="1.1">
<metadata>
Created by FontForge 20170731 at Wed Apr 19 15:16:10 2017
 By Aleksey,,,
Copyright 2017 Production Systems SAS - Design Yoann Minet. Original art direction with Emmanuel Labard - All rights reserved - End-User License Agreement:  http://www.productiontype.com/license
</metadata>
<defs>
<font id="StratosLC-Regular" horiz-adv-x="550" >
  <font-face 
    font-family="Stratos LC"
    font-weight="400"
    font-stretch="normal"
    units-per-em="1000"
    panose-1="2 0 0 0 0 0 0 0 0 0"
    ascent="800"
    descent="-200"
    x-height="500"
    cap-height="750"
    bbox="-245 -367 1234 1170"
    underline-thickness="68"
    underline-position="-213"
    unicode-range="U+0020-FB02"
  />
<missing-glyph horiz-adv-x="510" 
d="M10 0v750h490v-750h-490zM90 697l165 -273l165 273h-330zM61 102l165 273l-165 272v-545zM450 102v545l-165 -272zM90 55h330l-165 271z" />
    <glyph glyph-name="fi" unicode="fi" horiz-adv-x="592" 
d="M206 575v-75h312v-500h-100v412h-212v-412h-100v412h-86v88h86v78q0 86 46.5 134t121.5 48q48 0 70 -7v-92q-18 7 -61 7q-77 0 -77 -93zM468 609q-28 0 -47 19t-19 48q0 28 19 47t47 19q29 0 47.5 -18.5t18.5 -47.5t-18.5 -48t-47.5 -19z" />
    <glyph glyph-name="fl" unicode="fl" horiz-adv-x="592" 
d="M206 575v-75h140v-88h-140v-412h-100v412h-86v88h86v78q0 86 51 134t133 48q42 0 70 -9v-92q-27 9 -61 9q-93 0 -93 -93zM518 0h-100v750h100v-750z" />
    <glyph glyph-name="f_b" unicode="fb" horiz-adv-x="959" 
d="M206 575v-75h144v-88h-144v-412h-100v412h-86v88h86v78q0 86 51 134t133 48q42 0 70 -9v-92q-27 9 -61 9q-93 0 -93 -93zM922 250q0 -114 -68.5 -187t-171.5 -73q-101 0 -164 85v-75h-100v750h100v-325q63 85 164 85q103 0 171.5 -73t68.5 -187zM670 418
q-66 0 -109 -46.5t-43 -121.5t43 -121.5t109 -46.5t109 46.5t43 121.5t-43 121.5t-109 46.5z" />
    <glyph glyph-name="f_f_b" unicode="ffb" horiz-adv-x="1271" 
d="M418 0v412h-212v-412h-100v412h-86v88h86v78q0 86 51 134t133 48q42 0 70 -9v-92q-27 9 -61 9q-93 0 -93 -93v-75h212v78q0 86 51 134t133 48q42 0 70 -9v-92q-27 9 -61 9q-93 0 -93 -93v-75h144v-88h-144v-412h-100zM1234 250q0 -114 -68.5 -187t-171.5 -73
q-101 0 -164 85v-75h-100v750h100v-325q63 85 164 85q103 0 171.5 -73t68.5 -187zM982 418q-66 0 -109 -46.5t-43 -121.5t43 -121.5t109 -46.5t109 46.5t43 121.5t-43 121.5t-109 46.5z" />
    <glyph glyph-name="f_f" unicode="ff" horiz-adv-x="692" 
d="M418 0v412h-212v-412h-100v412h-86v88h86v78q0 86 51 134t133 48q42 0 70 -9v-92q-27 9 -61 9q-93 0 -93 -93v-75h212v78q0 86 51 134t133 48q42 0 70 -9v-92q-27 9 -61 9q-93 0 -93 -93v-75h144v-88h-144v-412h-100z" />
    <glyph glyph-name="f_h" unicode="fh" horiz-adv-x="929" 
d="M206 575v-75h144v-88h-144v-412h-100v412h-86v88h86v78q0 86 51 134t133 48q42 0 70 -9v-92q-27 9 -61 9q-93 0 -93 -93zM518 273v-273h-100v750h100v-329q48 89 152 89q85 0 137.5 -55.5t52.5 -161.5v-293h-100v273q0 73 -32 111t-89 38t-89 -38t-32 -111z" />
    <glyph glyph-name="f_f_h" unicode="ffh" horiz-adv-x="1241" 
d="M418 0v412h-212v-412h-100v412h-86v88h86v78q0 86 51 134t133 48q42 0 70 -9v-92q-27 9 -61 9q-93 0 -93 -93v-75h212v78q0 86 51 134t133 48q42 0 70 -9v-92q-27 9 -61 9q-93 0 -93 -93v-75h144v-88h-144v-412h-100zM830 273v-273h-100v750h100v-329q48 89 152 89
q85 0 137.5 -55.5t52.5 -161.5v-293h-100v273q0 73 -32 111t-89 38t-89 -38t-32 -111z" />
    <glyph glyph-name="f_f_i" unicode="ffi" horiz-adv-x="904" 
d="M418 0v412h-212v-412h-100v412h-86v88h86v78q0 86 51 134t133 48q42 0 70 -9v-92q-27 9 -61 9q-93 0 -93 -93v-75h212v78q0 86 46.5 134t121.5 48q48 0 70 -7v-92q-18 7 -61 7q-77 0 -77 -93v-75h312v-500h-100v412h-212v-412h-100zM780 609q-28 0 -47 19t-19 48
q0 28 19 47t47 19q29 0 47.5 -18.5t18.5 -47.5t-18.5 -48t-47.5 -19z" />
    <glyph glyph-name="f_j" unicode="fj" horiz-adv-x="592" 
d="M206 575v-75h312v-589q0 -161 -160 -161q-34 0 -50 4v91q16 -3 37 -3q37 0 55 15.5t18 55.5v499h-212v-412h-100v412h-86v88h86v78q0 86 51 134t133 48q42 0 70 -9v-92q-27 9 -61 9q-93 0 -93 -93zM468 609q-28 0 -47 19t-19 48q0 28 19 47t47 19q29 0 47.5 -18.5
t18.5 -47.5t-18.5 -48t-47.5 -19z" />
    <glyph glyph-name="f_f_j" unicode="ffj" horiz-adv-x="904" 
d="M518 575v-75h312v-589q0 -161 -160 -161q-34 0 -50 4v91q16 -3 37 -3q37 0 55 15.5t18 55.5v499h-212v-412h-100v412h-212v-412h-100v412h-86v88h86v78q0 86 51 134t133 48q42 0 70 -9v-92q-27 9 -61 9q-93 0 -93 -93v-75h212v78q0 86 46.5 134t121.5 48q48 0 70 -7v-92
q-18 7 -61 7q-77 0 -77 -93zM780 609q-28 0 -47 19t-19 48q0 28 19 47t47 19q29 0 47.5 -18.5t18.5 -47.5t-18.5 -48t-47.5 -19z" />
    <glyph glyph-name="f_k" unicode="fk" horiz-adv-x="896" 
d="M206 575v-75h140v-88h-140v-412h-100v412h-86v88h86v78q0 86 51 134t133 48q42 0 70 -9v-92q-27 9 -61 9q-93 0 -93 -93zM757 0l-239 263v-263h-100v750h100v-472l215 222h133l-235 -228l253 -272h-127z" />
    <glyph glyph-name="f_f_k" unicode="ffk" horiz-adv-x="1208" 
d="M418 0v412h-212v-412h-100v412h-86v88h86v78q0 86 51 134t133 48q42 0 70 -9v-92q-27 9 -61 9q-93 0 -93 -93v-75h212v78q0 86 51 134t133 48q42 0 70 -9v-92q-27 9 -61 9q-93 0 -93 -93v-75h140v-88h-140v-412h-100zM1069 0l-239 263v-263h-100v750h100v-472l215 222
h133l-235 -228l253 -272h-127z" />
    <glyph glyph-name="f_f_l" unicode="ffl" horiz-adv-x="904" 
d="M418 0v412h-212v-412h-100v412h-86v88h86v78q0 86 51 134t133 48q42 0 70 -9v-92q-27 9 -61 9q-93 0 -93 -93v-75h212v78q0 86 51 134t133 48q42 0 70 -9v-92q-27 9 -61 9q-93 0 -93 -93v-75h140v-88h-140v-412h-100zM830 0h-100v750h100v-750z" />
    <glyph glyph-name="f_t" unicode="ft" horiz-adv-x="706" 
d="M206 575v-75h212v140h100v-140h144v-88h-144v-241q0 -46 20.5 -67.5t64.5 -21.5q33 0 59 9v-89q-36 -12 -78 -12q-79 0 -122.5 39.5t-43.5 135.5v247h-212v-412h-100v412h-86v88h86v78q0 86 51 134t133 48q42 0 70 -9v-92q-27 9 -61 9q-93 0 -93 -93z" />
    <glyph glyph-name="f_f_t" unicode="fft" horiz-adv-x="1018" 
d="M518 575v-75h212v140h100v-140h144v-88h-144v-241q0 -46 20.5 -67.5t64.5 -21.5q33 0 59 9v-89q-36 -12 -78 -12q-79 0 -122.5 39.5t-43.5 135.5v247h-212v-412h-100v412h-212v-412h-100v412h-86v88h86v78q0 86 51 134t133 48q42 0 70 -9v-92q-27 9 -61 9q-93 0 -93 -93
v-75h212v78q0 86 51 134t133 48q42 0 70 -9v-92q-27 9 -61 9q-93 0 -93 -93z" />
    <glyph glyph-name=".notdef" horiz-adv-x="510" 
d="M10 0v750h490v-750h-490zM90 697l165 -273l165 273h-330zM61 102l165 273l-165 272v-545zM450 102v545l-165 -272zM90 55h330l-165 271z" />
    <glyph glyph-name=".null" horiz-adv-x="0" 
 />
    <glyph glyph-name="nonmarkingreturn" horiz-adv-x="333" 
 />
    <glyph glyph-name="space" unicode=" " horiz-adv-x="230" 
 />
    <glyph glyph-name="exclam" unicode="!" horiz-adv-x="256" 
d="M174 250h-92l-8 500h108zM128 -10q-25 0 -44 18.5t-19 43.5q0 26 18.5 44.5t44.5 18.5t44 -18.5t18 -44.5q0 -25 -18 -43.5t-44 -18.5z" />
    <glyph glyph-name="quotedbl" unicode="&#x22;" horiz-adv-x="411" 
d="M79 500l-9 250h93l-9 -250h-75zM257 500l-9 250h93l-9 -250h-75z" />
    <glyph glyph-name="numbersign" unicode="#" 
d="M253 0l52 206h-145l-52 -206h-76l52 206h-84v68h101l51 202h-93v68h110l52 206h76l-52 -206h145l52 206h76l-52 -206h84v-68h-101l-51 -202h93v-68h-110l-52 -206h-76zM177 274h145l51 202h-145z" />
    <glyph glyph-name="dollar" unicode="$" 
d="M484 190q0 -87 -49 -138t-128 -60v-117h-60v116q-80 9 -130.5 61t-50.5 138v56h100v-49q0 -97 81 -112v258l-47 31q-58 39 -90.5 86.5t-32.5 115.5q0 81 47 128t123 55v116h60v-117q75 -10 120.5 -63.5t45.5 -142.5v-46h-100v43q0 97 -66 115v-239l56 -38
q121 -79 121 -197zM177 576q0 -61 70 -111v200q-70 -13 -70 -89zM384 178q0 70 -77 125v-218q36 8 56.5 32t20.5 61z" />
    <glyph glyph-name="percent" unicode="%" horiz-adv-x="806" 
d="M179 355q-69 0 -111 50.5t-42 149.5t42 150t111 51t110.5 -51t41.5 -150q0 -100 -41.5 -150t-110.5 -50zM113 0l520 750h60l-520 -750h-60zM179 427q72 0 72 128q0 131 -72 131q-73 0 -73 -131q0 -128 73 -128zM627 -6q-69 0 -111 50.5t-42 149.5t42 150t111 51
t110.5 -51t41.5 -150q0 -100 -41.5 -150t-110.5 -50zM627 66q72 0 72 128q0 131 -72 131q-73 0 -73 -131q0 -128 73 -128z" />
    <glyph glyph-name="ampersand" unicode="&#x26;" horiz-adv-x="580" 
d="M388 0v68q-40 -78 -142 -78q-94 0 -144 52.5t-50 155.5v36q0 58 29 99.5t80 62.5q-89 44 -89 148v34q0 87 53.5 134.5t139.5 47.5q85 0 139 -48t54 -134v-48h-100v40q0 98 -93 98t-93 -98v-26q0 -105 97 -105h299v-91h-90v-348h-90zM265 81q113 0 113 117v150h-111
q-115 0 -115 -115v-34q0 -63 27.5 -90.5t85.5 -27.5z" />
    <glyph glyph-name="quotesingle" unicode="'" horiz-adv-x="233" 
d="M79 500l-9 250h93l-9 -250h-75z" />
    <glyph glyph-name="parenleft" unicode="(" horiz-adv-x="340" 
d="M96 285q0 260 154 465h84q-146 -195 -146 -465t146 -465h-84q-154 205 -154 465z" />
    <glyph glyph-name="parenright" unicode=")" horiz-adv-x="340" 
d="M244 285q0 -260 -154 -465h-84q146 195 146 465t-146 465h84q154 -205 154 -465z" />
    <glyph glyph-name="asterisk" unicode="*" horiz-adv-x="389" 
d="M246 446l-54 101l-51 -101l-75 53l76 84l-109 16l28 87l98 -49l-12 113h91l-11 -113l100 49l29 -87l-112 -16l76 -83z" />
    <glyph glyph-name="plus" unicode="+" 
d="M475 269h-164v-173h-72v173h-164v68h164v173h72v-173h164v-68z" />
    <glyph glyph-name="comma" unicode="," horiz-adv-x="213" 
d="M175 48q0 -71 -70 -178h-57q45 75 57 120q-28 1 -46.5 20t-18.5 46q0 29 19 48t48 19t48.5 -20.5t19.5 -54.5z" />
    <glyph glyph-name="hyphen" unicode="-" horiz-adv-x="350" 
d="M296 229h-242v92h242v-92z" />
    <glyph glyph-name="period" unicode="." horiz-adv-x="213" 
d="M106 -10q-28 0 -47 19t-19 47q0 29 19 48t47 19q30 0 48.5 -19t18.5 -48q0 -28 -18.5 -47t-48.5 -19z" />
    <glyph glyph-name="slash" unicode="/" horiz-adv-x="391" 
d="M107 0h-73l250 750h73z" />
    <glyph glyph-name="zero" unicode="0" 
d="M275 -10q-100 0 -155.5 62t-55.5 184v278q0 121 55.5 183.5t155.5 62.5q101 0 156 -62.5t55 -183.5v-278q0 -122 -55 -184t-156 -62zM275 82q111 0 111 154v278q0 154 -111 154t-111 -154v-278q0 -82 28 -118t83 -36z" />
    <glyph glyph-name="one" unicode="1" 
d="M254 699v51h100v-750h-100v516h-143v84h43q53 0 76.5 23t23.5 76z" />
    <glyph glyph-name="two" unicode="2" 
d="M466 551q0 -49 -19.5 -94.5t-48.5 -80t-64.5 -71.5t-66.5 -67.5t-55 -69t-30 -76.5h294v-92h-402v50q0 56 21.5 107t54 88t70.5 76t70.5 71.5t54 74t21.5 84.5q0 60 -25 88.5t-67 28.5q-94 0 -94 -126v-58h-100v66q0 101 54.5 155.5t139.5 54.5q83 0 137.5 -54.5
t54.5 -154.5z" />
    <glyph glyph-name="three" unicode="3" 
d="M496 189q0 -94 -60 -146.5t-151 -52.5q-92 0 -152.5 53t-60.5 148v44h100v-35q0 -60 30 -89t83 -29q111 0 111 116v22q0 116 -111 116h-56v100h56q91 0 91 105v30q0 97 -91 97q-43 0 -68 -23.5t-25 -71.5v-27h-100v36q0 84 54.5 131t138.5 47q82 0 136.5 -47.5
t54.5 -132.5v-36q0 -103 -88 -148q108 -45 108 -163v-44z" />
    <glyph glyph-name="four" unicode="4" 
d="M50 230l201 520h151v-520h96v-92h-96v-138h-100v138h-252v92zM133 230h169v442z" />
    <glyph glyph-name="five" unicode="5" 
d="M276 422q-42 0 -66 -21.5t-30 -55.5h-96v405h374v-92h-278v-212q41 64 122 64q86 0 130 -55.5t44 -162.5v-80q0 -106 -56.5 -164t-143.5 -58q-88 0 -145 55.5t-57 154.5v28h100v-12q0 -134 102 -134q46 0 73 32.5t27 97.5v74q0 136 -100 136z" />
    <glyph glyph-name="six" unicode="6" 
d="M486 218q0 -108 -59 -168t-152 -60t-152 62.5t-59 175.5v294q0 113 59 175.5t152 62.5q90 0 146.5 -56t56.5 -158v-17h-100v9q0 130 -103 130q-111 0 -111 -154v-126q45 78 137 78q81 0 133 -59t52 -169v-20zM164 237v-18q0 -137 111 -137t111 137v18q0 137 -111 137
t-111 -137z" />
    <glyph glyph-name="seven" unicode="7" 
d="M300 51v-51h-100v34q0 85 11.5 163.5t23 127t44.5 123t46.5 100l58.5 110.5h-300v92h382v-125q-84 -161 -106 -217q-60 -153 -60 -357z" />
    <glyph glyph-name="eight" unicode="8" 
d="M490 191q0 -95 -61 -148t-154 -53t-154 53t-61 148v44q0 118 109 165q-87 45 -87 146v36q0 84 54.5 131t138.5 47t138.5 -47t54.5 -131v-36q0 -101 -87 -146q109 -47 109 -165v-44zM182 573v-26q0 -103 93 -103t93 103v26q0 95 -93 95q-43 0 -68 -23.5t-25 -71.5z
M160 234v-34q0 -60 30.5 -89t84.5 -29q115 0 115 118v34q0 118 -115 118t-115 -118z" />
    <glyph glyph-name="nine" unicode="9" 
d="M486 228q0 -113 -59 -175.5t-152 -62.5q-90 0 -146.5 56t-56.5 158v17h100v-9q0 -130 103 -130q111 0 111 154v126q-45 -78 -137 -78q-81 0 -133 59t-52 169v20q0 108 59 168t152 60t152 -62.5t59 -175.5v-294zM386 513v18q0 137 -111 137t-111 -137v-18q0 -137 111 -137
t111 137z" />
    <glyph glyph-name="colon" unicode=":" horiz-adv-x="213" 
d="M106 377q-28 0 -47 19t-19 47q0 29 19 48t47 19q30 0 48.5 -19t18.5 -48q0 -28 -18.5 -47t-48.5 -19zM106 -10q-28 0 -47 19t-19 47q0 29 19 48t47 19q30 0 48.5 -19t18.5 -48q0 -28 -18.5 -47t-48.5 -19z" />
    <glyph glyph-name="semicolon" unicode=";" horiz-adv-x="213" 
d="M106 377q-28 0 -47 19t-19 47q0 29 19 48t47 19q30 0 48.5 -19t18.5 -48q0 -28 -18.5 -47t-48.5 -19zM175 48q0 -71 -70 -178h-57q45 75 57 120q-28 1 -46.5 20t-18.5 46q0 29 19 48t48 19t48.5 -20.5t19.5 -54.5z" />
    <glyph glyph-name="less" unicode="&#x3c;" 
d="M475 149v-77l-400 195v72l400 195v-77l-315 -154z" />
    <glyph glyph-name="equal" unicode="=" 
d="M75 369v68h400v-68h-400zM75 169v68h400v-68h-400z" />
    <glyph glyph-name="greater" unicode="&#x3e;" 
d="M475 267l-400 -195v77l315 154l-315 154v77l400 -195v-72z" />
    <glyph glyph-name="question" unicode="?" horiz-adv-x="497" 
d="M468 569q0 -42 -17 -76.5t-41.5 -58t-49.5 -46t-43 -52t-19 -64.5l-1 -22h-92v27q0 41 17 76.5t40.5 60t47.5 47.5t41 50.5t17 57.5q0 47 -30.5 73t-85.5 26t-88.5 -32t-33.5 -100v-28h-101v38q0 103 64 158.5t159 55.5q99 0 157.5 -50.5t58.5 -140.5zM251 -10
q-25 0 -43.5 18.5t-18.5 43.5q0 26 18.5 44.5t43.5 18.5q26 0 44.5 -18.5t18.5 -44.5q0 -25 -18.5 -43.5t-44.5 -18.5z" />
    <glyph glyph-name="at" unicode="@" horiz-adv-x="861" 
d="M605 -116q-83 -44 -180 -44q-164 0 -274.5 112t-110.5 273q0 162 110 273.5t275 111.5q168 0 282 -111t114 -266q0 -120 -44 -181.5t-115 -61.5q-91 0 -125 75q-53 -75 -157 -75q-66 0 -113 33.5t-47 95.5q0 52 31 81.5t75.5 38.5t89 14.5t75.5 19.5t31 42q0 32 -27.5 51
t-69.5 19q-43 0 -70.5 -22.5t-27.5 -63.5h-93q0 81 54 120.5t135 39.5q80 0 134.5 -39t54.5 -118v-177q0 -88 59 -88q44 0 71 50.5t27 145.5q0 136 -98.5 233t-245.5 97q-143 0 -238 -98t-95 -240t95 -240t238 -98q84 0 160 41zM310 125q0 -55 82 -55q54 0 92 30.5t38 84.5
v32q-27 -13 -85.5 -21t-92.5 -22.5t-34 -48.5z" />
    <glyph glyph-name="A" unicode="A" horiz-adv-x="510" 
d="M12 0l168 750h150l168 -750h-101l-39 184h-206l-39 -184h-101zM172 276h166l-83 394z" />
    <glyph glyph-name="B" unicode="B" 
d="M74 0v750h205q94 0 150.5 -48t56.5 -136v-10q0 -109 -96 -151q116 -45 116 -175v-20q0 -100 -56.5 -155t-150.5 -55h-225zM269 658h-95v-219h97q115 0 115 109v10q0 100 -117 100zM289 348h-115v-256h115q117 0 117 127v10q0 119 -117 119z" />
    <glyph glyph-name="C" unicode="C" horiz-adv-x="570" 
d="M406 286h100v-40q0 -126 -58 -191t-163 -65t-163 65t-58 191v258q0 126 58 191t163 65t163 -65t58 -191v-30h-100v30q0 87 -31 125.5t-90 38.5q-121 0 -121 -164v-258q0 -87 31 -125.5t90 -38.5q121 0 121 164v40z" />
    <glyph glyph-name="D" unicode="D" horiz-adv-x="570" 
d="M281 750q107 0 166 -63t59 -187v-250q0 -124 -59 -187t-166 -63h-207v750h207zM281 92q61 0 93 37t32 121v250q0 85 -31.5 121.5t-93.5 36.5h-107v-566h107z" />
    <glyph glyph-name="E" unicode="E" horiz-adv-x="454" 
d="M74 0v750h336v-92h-236v-226h216v-92h-216v-248h236v-92h-336z" />
    <glyph glyph-name="F" unicode="F" horiz-adv-x="434" 
d="M74 0v750h336v-92h-236v-246h206v-92h-206v-320h-100z" />
    <glyph glyph-name="G" unicode="G" horiz-adv-x="575" 
d="M270 395h236v-395h-90v89q-42 -99 -150 -99q-96 0 -149 65t-53 191v258q0 126 58 191t163 65t163 -65t58 -191v-30h-100v30q0 87 -31 125.5t-90 38.5q-121 0 -121 -164v-258q0 -87 31 -125.5t90 -38.5q121 0 121 156v65h-136v92z" />
    <glyph glyph-name="H" unicode="H" horiz-adv-x="590" 
d="M416 0v340h-242v-340h-100v750h100v-318h242v318h100v-750h-100z" />
    <glyph glyph-name="I" unicode="I" horiz-adv-x="248" 
d="M174 0h-100v750h100v-750z" />
    <glyph glyph-name="J" unicode="J" horiz-adv-x="506" 
d="M342 750h100v-552q0 -100 -56 -154t-145 -54t-145 54t-56 154v64h100v-56q0 -124 101 -124t101 124v544z" />
    <glyph glyph-name="K" unicode="K" horiz-adv-x="519" 
d="M395 0l-221 369v-369h-100v750h100v-365l219 365h110l-225 -359l237 -391h-120z" />
    <glyph glyph-name="L" unicode="L" horiz-adv-x="434" 
d="M418 92v-92h-344v750h100v-658h244z" />
    <glyph glyph-name="M" unicode="M" horiz-adv-x="764" 
d="M590 0v675l-152 -675h-121l-151 678v-678h-92v750h171l137 -618l134 618h174v-750h-100z" />
    <glyph glyph-name="N" unicode="N" horiz-adv-x="590" 
d="M516 750v-750h-165l-185 687v-687h-92v750h167l183 -679v679h92z" />
    <glyph glyph-name="O" unicode="O" horiz-adv-x="570" 
d="M285 -10q-105 0 -163 64.5t-58 191.5v258q0 126 58 191t163 65t163 -65t58 -191v-258q0 -127 -58 -191.5t-163 -64.5zM285 82q59 0 90 38.5t31 125.5v258q0 87 -31 125.5t-90 38.5q-121 0 -121 -164v-258q0 -87 30.5 -125.5t90.5 -38.5z" />
    <glyph glyph-name="P" unicode="P" horiz-adv-x="530" 
d="M74 0v750h217q93 0 150 -52t57 -148v-54q0 -100 -57 -155t-150 -55h-117v-286h-100zM281 658h-107v-280h107q117 0 117 128v34q0 118 -117 118z" />
    <glyph glyph-name="Q" unicode="Q" horiz-adv-x="570" 
d="M421 0l-40 55q-27 -65 -116 -65q-92 0 -146.5 65.5t-54.5 190.5v258q0 126 58 191t163 65t163 -65t58 -191v-258q0 -110 -54 -155l66 -91h-97zM164 246q0 -87 31 -125.5t90 -38.5q35 0 60 13l-124 165h100l73 -102q12 34 12 88v258q0 87 -31 125.5t-90 38.5
q-121 0 -121 -164v-258z" />
    <glyph glyph-name="R" unicode="R" 
d="M74 0v750h220q94 0 151.5 -49.5t57.5 -140.5v-30q0 -89 -55.5 -137.5t-143.5 -53.5l222 -339h-120l-232 367v-367h-100zM284 658h-110v-236h110q119 0 119 118v10q0 108 -119 108z" />
    <glyph glyph-name="S" unicode="S" horiz-adv-x="485" 
d="M55 576q0 93 52.5 138.5t136.5 45.5t137.5 -51.5t53.5 -148.5v-46h-100v43q0 111 -91 111q-41 0 -65 -24t-24 -68q0 -41 22.5 -69.5t65.5 -57.5l81 -58q58 -41 90 -87.5t32 -113.5q0 -96 -56.5 -148t-144.5 -52q-87 0 -144 53t-57 147v56h100v-49q0 -53 27.5 -84
t73.5 -31q47 0 74 25.5t27 70.5q0 76 -89 137l-79 55q-58 40 -90.5 88.5t-32.5 117.5z" />
    <glyph glyph-name="T" unicode="T" horiz-adv-x="434" 
d="M10 658v92h414v-92h-157v-658h-100v658h-157z" />
    <glyph glyph-name="U" unicode="U" horiz-adv-x="570" 
d="M69 750h100v-519q0 -80 29.5 -114.5t86.5 -34.5t86.5 35t29.5 114v519h100v-519q0 -120 -56.5 -180.5t-159.5 -60.5t-159.5 60.5t-56.5 180.5v519z" />
    <glyph glyph-name="V" unicode="V" horiz-adv-x="510" 
d="M498 750l-168 -750h-150l-168 750h101l142 -670l142 670h101z" />
    <glyph glyph-name="W" unicode="W" horiz-adv-x="750" 
d="M740 750l-115 -750h-150l-100 664l-100 -664h-150l-115 750h100l92 -651l98 651h150l98 -651l92 651h100z" />
    <glyph glyph-name="X" unicode="X" horiz-adv-x="490" 
d="M376 0l-131 299l-131 -299h-109l183 385l-172 365h108l121 -280l121 280h108l-172 -365l183 -385h-109z" />
    <glyph glyph-name="Y" unicode="Y" horiz-adv-x="480" 
d="M290 302v-302h-100v302l-189 448h100l139 -344l139 344h100z" />
    <glyph glyph-name="Z" unicode="Z" horiz-adv-x="440" 
d="M416 92v-92h-382v118l279 540h-274v92h367v-118l-278 -540h288z" />
    <glyph glyph-name="bracketleft" unicode="[" horiz-adv-x="340" 
d="M108 -180v930h227v-76h-135v-778h135v-76h-227z" />
    <glyph glyph-name="backslash" unicode="\" horiz-adv-x="391" 
d="M284 0l-250 750h73l250 -750h-73z" />
    <glyph glyph-name="bracketright" unicode="]" horiz-adv-x="340" 
d="M5 674v76h227v-930h-227v76h135v778h-135z" />
    <glyph glyph-name="asciicircum" unicode="^" 
d="M429 350l-154 315l-154 -315h-77l195 400h72l195 -400h-77z" />
    <glyph glyph-name="underscore" unicode="_" horiz-adv-x="500" 
d="M450 -179h-400v68h400v-68z" />
    <glyph glyph-name="grave" unicode="`" horiz-adv-x="500" 
d="M212 600l-92 150h111l64 -150h-83z" />
    <glyph glyph-name="a" unicode="a" 
d="M387 0v84q-47 -94 -169 -94q-72 0 -121 36t-49 106q0 51 25 83.5t62.5 45t81 21t81 12.5t62.5 19t25 41q0 36 -30.5 56t-77.5 20q-50 0 -80 -25.5t-30 -72.5h-104q0 90 61.5 134t152.5 44q89 0 148.5 -39.5t59.5 -120.5v-350h-98zM150 138q0 -31 24 -47.5t64 -16.5
q62 0 105.5 35t43.5 97v36q-26 -13 -72 -22t-79.5 -14t-59.5 -22t-26 -46z" />
    <glyph glyph-name="b" unicode="b" horiz-adv-x="615" 
d="M578 250q0 -114 -68.5 -187t-171.5 -73q-101 0 -164 85v-75h-100v750h100v-325q63 85 164 85q103 0 171.5 -73t68.5 -187zM326 418q-66 0 -109 -46.5t-43 -121.5t43 -121.5t109 -46.5t109 46.5t43 121.5t-43 121.5t-109 46.5z" />
    <glyph glyph-name="c" unicode="c" horiz-adv-x="572" 
d="M429 301q-7 55 -47 86t-96 31q-65 0 -107 -46.5t-42 -121.5t42 -121.5t107 -46.5q57 0 97.5 34t47.5 94h104q-6 -98 -76 -159t-173 -61q-108 0 -178.5 73t-70.5 187t70.5 187t178.5 73q100 0 169 -58t78 -151h-104z" />
    <glyph glyph-name="d" unicode="d" horiz-adv-x="615" 
d="M441 0v75q-63 -85 -164 -85q-103 0 -171.5 73t-68.5 187t68.5 187t171.5 73q101 0 164 -85v325h100v-750h-100zM289 418q-66 0 -109 -46.5t-43 -121.5t43 -121.5t109 -46.5t109 46.5t43 121.5t-43 121.5t-109 46.5z" />
    <glyph glyph-name="e" unicode="e" horiz-adv-x="566" 
d="M529 250q0 -12 -2 -34h-392q9 -65 49 -101.5t103 -36.5q89 0 121 72h108q-23 -77 -84.5 -118.5t-148.5 -41.5q-107 0 -176.5 73t-69.5 187t69.5 187t176.5 73t176.5 -73t69.5 -187zM283 422q-61 0 -99.5 -35.5t-47.5 -98.5h294q-9 63 -48 98.5t-99 35.5z" />
    <glyph glyph-name="f" unicode="f" horiz-adv-x="380" 
d="M206 575v-75h144v-88h-144v-412h-100v412h-86v88h86v78q0 86 51 134t133 48q42 0 70 -9v-92q-27 9 -61 9q-93 0 -93 -93z" />
    <glyph glyph-name="g" unicode="g" horiz-adv-x="615" 
d="M541 -4q0 -112 -71 -184t-175 -72q-98 0 -165 59.5t-81 156.5h101q10 -57 48.5 -90.5t96.5 -33.5q68 0 107 45.5t39 118.5v79q-63 -85 -164 -85q-103 0 -171.5 73t-68.5 187t68.5 187t171.5 73q101 0 164 -85v75h100v-504zM289 82q66 0 109 46.5t43 121.5t-43 121.5
t-109 46.5t-109 -46.5t-43 -121.5t43 -121.5t109 -46.5z" />
    <glyph glyph-name="h" unicode="h" horiz-adv-x="585" 
d="M174 273v-273h-100v750h100v-329q48 89 152 89q85 0 137.5 -55.5t52.5 -161.5v-293h-100v273q0 73 -32 111t-89 38t-89 -38t-32 -111z" />
    <glyph glyph-name="i" unicode="i" horiz-adv-x="248" 
d="M124 609q-28 0 -47 19t-19 48q0 28 19 47t47 19q29 0 47.5 -18.5t18.5 -47.5t-18.5 -48t-47.5 -19zM174 0h-100v500h100v-500z" />
    <glyph glyph-name="j" unicode="j" horiz-adv-x="248" 
d="M124 609q-28 0 -47 19t-19 48q0 28 19 47t47 19q29 0 47.5 -18.5t18.5 -47.5t-18.5 -48t-47.5 -19zM74 -87v587h100v-589q0 -161 -160 -161q-34 0 -50 4v91q16 -3 37 -3q36 0 54.5 15.5t18.5 55.5z" />
    <glyph glyph-name="k" unicode="k" horiz-adv-x="552" 
d="M413 0l-239 263v-263h-100v750h100v-472l215 222h133l-235 -228l253 -272h-127z" />
    <glyph glyph-name="l" unicode="l" horiz-adv-x="248" 
d="M174 0h-100v750h100v-750z" />
    <glyph glyph-name="m" unicode="m" horiz-adv-x="875" 
d="M174 287v-287h-100v500h100v-70q45 80 139 80q115 0 158 -99q44 99 159 99q79 0 127.5 -52t48.5 -151v-307h-100v287q0 67 -28 101t-79 34q-52 0 -80.5 -34.5t-28.5 -100.5v-287h-100v287q0 66 -28.5 100.5t-79.5 34.5t-79.5 -34.5t-28.5 -100.5z" />
    <glyph glyph-name="n" unicode="n" horiz-adv-x="585" 
d="M174 273v-273h-100v500h100v-79q48 89 152 89q85 0 137.5 -55.5t52.5 -161.5v-293h-100v273q0 73 -32 111t-89 38t-89 -38t-32 -111z" />
    <glyph glyph-name="o" unicode="o" horiz-adv-x="580" 
d="M290 -10q-109 0 -181 73t-72 187t72 187t181 73t181 -73t72 -187t-72 -187t-181 -73zM290 82q66 0 109.5 46.5t43.5 121.5t-43.5 121.5t-109.5 46.5t-109.5 -46.5t-43.5 -121.5t43.5 -121.5t109.5 -46.5z" />
    <glyph glyph-name="p" unicode="p" horiz-adv-x="615" 
d="M338 -10q-101 0 -164 85v-325h-100v750h100v-75q63 85 164 85q103 0 171.5 -73t68.5 -187t-68.5 -187t-171.5 -73zM326 82q66 0 109 46.5t43 121.5t-43 121.5t-109 46.5t-109 -46.5t-43 -121.5t43 -121.5t109 -46.5z" />
    <glyph glyph-name="q" unicode="q" horiz-adv-x="615" 
d="M541 500v-750h-100v325q-63 -85 -164 -85q-103 0 -171.5 73t-68.5 187t68.5 187t171.5 73q101 0 164 -85v75h100zM289 82q66 0 109 46.5t43 121.5t-43 121.5t-109 46.5t-109 -46.5t-43 -121.5t43 -121.5t109 -46.5z" />
    <glyph glyph-name="r" unicode="r" horiz-adv-x="403" 
d="M174 251v-251h-100v500h100v-90q55 100 173 100q20 0 32 -3v-109q-24 8 -53 8q-73 0 -112.5 -39.5t-39.5 -115.5z" />
    <glyph glyph-name="s" unicode="s" horiz-adv-x="504" 
d="M460 141q0 -69 -55.5 -110t-144.5 -41q-95 0 -155.5 45.5t-60.5 125.5h104q0 -44 31 -68t81 -24q97 0 97 68q0 33 -31 50t-75.5 24.5t-89.5 19t-76 44t-31 88.5q0 67 54 107t137 40q88 0 146.5 -47t58.5 -116h-104q0 36 -28.5 59.5t-72.5 23.5q-41 0 -65.5 -16.5
t-24.5 -46.5t31.5 -46t76.5 -23.5t89.5 -20t76 -46t31.5 -90.5z" />
    <glyph glyph-name="t" unicode="t" horiz-adv-x="390" 
d="M202 171q0 -46 20.5 -67.5t64.5 -21.5q33 0 59 9v-89q-36 -12 -78 -12q-79 0 -122.5 39.5t-43.5 135.5v247h-82v88h82v148h100v-148h144v-88h-144v-241z" />
    <glyph glyph-name="u" unicode="u" horiz-adv-x="580" 
d="M406 0v80q-47 -90 -149 -90q-84 0 -136 56t-52 163v291h100v-271q0 -74 31.5 -112.5t87.5 -38.5t87 38.5t31 112.5v271h100v-500h-100z" />
    <glyph glyph-name="v" unicode="v" horiz-adv-x="500" 
d="M490 500l-170 -500h-140l-170 500h104l136 -420l136 420h104z" />
    <glyph glyph-name="w" unicode="w" horiz-adv-x="765" 
d="M750 500l-135 -500h-126l-106 413l-107 -413h-126l-135 500h96l103 -413l105 413h127l105 -413l103 413h96z" />
    <glyph glyph-name="x" unicode="x" horiz-adv-x="520" 
d="M399 0l-144 185l-134 -185h-117l196 259l-186 241h117l132 -170l126 170h117l-186 -244l196 -256h-117z" />
    <glyph glyph-name="y" unicode="y" horiz-adv-x="501" 
d="M298 -56q-17 -49 -34 -82.5t-42 -62.5t-59 -43t-79 -14q-40 0 -75 11v88q35 -11 66 -11q46 0 75 27t54 88l-198 555h100l145 -419l144 419h100z" />
    <glyph glyph-name="z" unicode="z" horiz-adv-x="470" 
d="M441 88v-88h-402v114l285 298h-280v88h377v-114l-285 -298h305z" />
    <glyph glyph-name="braceleft" unicode="{" horiz-adv-x="340" 
d="M92 239h-50v92h50q20 0 38 16t18 49v202q0 71 39 111.5t103 40.5h45v-76h-28q-30 0 -48.5 -21t-18.5 -62v-208q0 -60 -55 -98q55 -38 55 -98v-208q0 -41 18.5 -62t48.5 -21h28v-76h-45q-64 0 -103 40.5t-39 111.5v202q0 33 -18 49t-38 16z" />
    <glyph glyph-name="bar" unicode="|" horiz-adv-x="276" 
d="M172 -250h-68v1000h68v-1000z" />
    <glyph glyph-name="braceright" unicode="}" horiz-adv-x="340" 
d="M248 331h50v-92h-50q-20 0 -38 -16t-18 -49v-202q0 -71 -39 -111.5t-103 -40.5h-45v76h28q30 0 48.5 21t18.5 62v208q0 60 55 98q-55 38 -55 98v208q0 41 -18.5 62t-48.5 21h-28v76h45q64 0 103 -40.5t39 -111.5v-202q0 -33 18 -49t38 -16z" />
    <glyph glyph-name="asciitilde" unicode="~" 
d="M194 305q-20 0 -33.5 -14t-13.5 -40v-21h-72v33q0 56 28.5 87t74.5 31q37 0 72 -20t63 -40t49 -20q18 0 29.5 14t11.5 40v21h72v-33q0 -57 -28.5 -87.5t-74.5 -30.5q-38 0 -93 40t-85 40z" />
    <glyph glyph-name="uni00A0" unicode="&#xa0;" horiz-adv-x="230" 
 />
    <glyph glyph-name="exclamdown" unicode="&#xa1;" horiz-adv-x="256" 
d="M128 510q26 0 44 -18t18 -44t-18 -44.5t-44 -18.5t-44.5 18.5t-18.5 44.5q0 25 18.5 43.5t44.5 18.5zM82 250h92l8 -500h-108z" />
    <glyph glyph-name="cent" unicode="&#xa2;" 
d="M529 335q-12 -90 -72 -149t-149 -69v-117h-60v116q-98 10 -163 81.5t-65 177.5t65 177.5t163 81.5v116h60v-117q86 -9 145.5 -65t74.5 -143h-102q-10 46 -41.5 76.5t-76.5 38.5v-330q48 9 80.5 42.5t39.5 82.5h101zM120 375q0 -67 34 -112t94 -54v332q-60 -9 -94 -54
t-34 -112z" />
    <glyph glyph-name="sterling" unicode="&#xa3;" 
d="M484 92v-92h-422v50q70 76 95 126t25 124q0 18 -5 36h-103v60h73l-19 28.5t-21 33.5t-15.5 31t-13.5 40t-4 42q0 90 56 139.5t143 49.5q88 0 145.5 -53.5t57.5 -152.5v-24h-100v16q0 122 -103 122q-45 0 -72 -24t-27 -73q0 -30 11.5 -58t33.5 -63t31 -54h180v-60h-161
q3 -15 3 -33q0 -115 -73 -211h285z" />
    <glyph glyph-name="currency" unicode="&#xa4;" 
d="M446 182l-50 -50l-59 59q-28 -14 -62 -14q-36 0 -63 15l-54 -55l-49 49l53 53q-16 29 -16 63q0 35 17 63l-59 59l50 50l60 -60q29 13 61 13q34 0 62 -14l55 56l49 -49l-55 -54q17 -28 17 -64q0 -35 -15 -62zM275 237q28 0 46 18.5t18 46.5t-18 46.5t-46 18.5t-46.5 -18.5
t-18.5 -46.5t18.5 -46.5t46.5 -18.5z" />
    <glyph glyph-name="yen" unicode="&#xa5;" 
d="M453 248h-128v-248h-100v248h-128v59h128v138h-128v59h96l-153 246h98l137 -227l137 227h98l-153 -246h96v-59h-128v-138h128v-59z" />
    <glyph glyph-name="brokenbar" unicode="&#xa6;" horiz-adv-x="276" 
d="M172 350h-68v400h68v-400zM172 -250h-68v400h68v-400z" />
    <glyph glyph-name="section" unicode="&#xa7;" horiz-adv-x="498" 
d="M439 -87q0 -88 -52.5 -130.5t-136.5 -42.5t-137.5 48t-53.5 139v32h100v-29q0 -98 91 -98q41 0 65 20t24 57q0 34 -23 58.5t-66 49.5l-81 50q-57 35 -88 76.5t-31 101.5q0 120 123 167q-58 44 -86 82t-28 92q0 89 52.5 131.5t136.5 42.5t137.5 -48.5t53.5 -139.5v-31
h-100v29q0 98 -91 98q-41 0 -65 -20.5t-24 -57.5q0 -34 23 -59t66 -49l81 -49q57 -35 88 -76.5t31 -101.5q0 -118 -119 -167q110 -72 110 -175zM249 156q43 0 71 26t28 68t-28 68t-71 26t-71 -26t-28 -68t28 -68t71 -26z" />
    <glyph glyph-name="dieresis" unicode="&#xa8;" horiz-adv-x="500" 
d="M150 617q-24 0 -41 17t-17 41t17 41t41 17q25 0 41.5 -17t16.5 -41t-16.5 -41t-41.5 -17zM350 617q-24 0 -41 17t-17 41t17 41t41 17q25 0 41.5 -17t16.5 -41t-16.5 -41t-41.5 -17z" />
    <glyph glyph-name="copyright" unicode="&#xa9;" horiz-adv-x="830" 
d="M415 -10q-163 0 -271.5 112.5t-108.5 272.5q0 161 108.5 273t271.5 112t271.5 -112t108.5 -273q0 -160 -108.5 -272.5t-271.5 -112.5zM415 713q-141 0 -234.5 -98.5t-93.5 -239.5t93.5 -239.5t234.5 -98.5t234.5 98.5t93.5 239.5t-93.5 239.5t-234.5 98.5zM534 416
q-8 42 -41.5 68t-77.5 26q-54 0 -89.5 -37.5t-35.5 -97.5t35.5 -97.5t89.5 -37.5q47 0 81 28t40 75h83q-7 -79 -64.5 -128.5t-139.5 -49.5q-88 0 -146.5 59t-58.5 151t58.5 151t146.5 59q80 0 137 -47t66 -122h-84z" />
    <glyph glyph-name="ordfeminine" unicode="&#xaa;" horiz-adv-x="379" 
d="M248 274v57q-29 -63 -110 -63q-45 0 -76 23.5t-31 68.5q0 47 33.5 70t73.5 26t73.5 13t33.5 33q0 21 -17 33t-44 12q-30 0 -47 -15t-17 -43h-79q0 60 41.5 88.5t103.5 28.5q61 0 101 -26t40 -81v-225h-79zM112 366q0 -18 14.5 -28.5t37.5 -10.5q34 0 58 20.5t24 56.5v25
q-17 -9 -53.5 -15t-58.5 -15.5t-22 -32.5zM329 96h-279v76h279v-76z" />
    <glyph glyph-name="guillemotleft" unicode="&#xab;" horiz-adv-x="580" 
d="M270 56l-220 148v102l220 148v-93l-168 -106l168 -106v-93zM530 56l-220 148v102l220 148v-93l-168 -106l168 -106v-93z" />
    <glyph glyph-name="logicalnot" unicode="&#xac;" 
d="M475 96h-71v173h-329v68h400v-241z" />
    <glyph glyph-name="registered" unicode="&#xae;" horiz-adv-x="498" 
d="M249 298q-98 0 -163 67.5t-65 163.5q0 97 65 164t163 67t163 -67t65 -164q0 -96 -65 -163.5t-163 -67.5zM249 724q-81 0 -135 -56.5t-54 -138.5t54 -138.5t135 -56.5t135 56.5t54 138.5q0 81 -54 138t-135 57zM159 409v240h102q84 0 84 -73q0 -26 -16 -44.5t-42 -25.5
l70 -97h-66l-64 94h-16v-94h-52zM260 603h-49v-55h49q34 0 34 28q0 27 -34 27z" />
    <glyph glyph-name="macron" unicode="&#xaf;" horiz-adv-x="500" 
d="M392 683v-67h-276v67h276z" />
    <glyph glyph-name="degree" unicode="&#xb0;" horiz-adv-x="359" 
d="M180 500q-56 0 -92.5 35.5t-36.5 89.5t36.5 89.5t92.5 35.5q55 0 91.5 -35.5t36.5 -89.5t-36.5 -89.5t-91.5 -35.5zM180 560q28 0 46 18.5t18 46.5t-18 46.5t-46 18.5t-46.5 -18.5t-18.5 -46.5t18.5 -46.5t46.5 -18.5z" />
    <glyph glyph-name="plusminus" unicode="&#xb1;" 
d="M475 269h-164v-173h-72v173h-164v68h164v173h72v-173h164v-68zM75 0v68h400v-68h-400z" />
    <glyph glyph-name="twosuperior" unicode="&#xb2;" horiz-adv-x="316" 
d="M294 538q0 -35 -24 -65.5t-54 -49.5t-59 -44.5t-36 -48.5h177v-68h-276v30q0 36 20 67t49 53t57.5 41.5t48.5 41t20 42.5q0 24 -16 38t-41 14q-59 0 -59 -61v-12h-76v18q0 58 38 90.5t97 32.5q58 0 96 -31.5t38 -87.5z" />
    <glyph glyph-name="threesuperior" unicode="&#xb3;" horiz-adv-x="345" 
d="M323 373q0 -55 -39.5 -86t-104.5 -31q-69 0 -112 34t-43 92h78q0 -27 20.5 -43t52.5 -16q31 0 49.5 14.5t18.5 39.5q0 53 -70 53h-37v65h37q28 0 43.5 12.5t15.5 33.5q0 22 -16.5 35t-45.5 13t-45.5 -14.5t-16.5 -40.5h-77q0 58 37.5 90.5t102.5 32.5q63 0 102 -30.5
t39 -79.5q0 -55 -51 -81q62 -30 62 -93z" />
    <glyph glyph-name="acute" unicode="&#xb4;" horiz-adv-x="500" 
d="M297 600h-83l64 150h111z" />
    <glyph glyph-name="paragraph" unicode="&#xb6;" horiz-adv-x="640" 
d="M70 550q0 95 60.5 147.5t154.5 52.5h89v-1000h-76v540h-13q-94 0 -154.5 55.5t-60.5 154.5v50zM564 -250h-76v1000h76v-1000z" />
    <glyph glyph-name="periodcentered" unicode="&#xb7;" horiz-adv-x="245" 
d="M122 194q-28 0 -47 19t-19 47t19 47t47 19q30 0 48.5 -18.5t18.5 -47.5q0 -28 -18.5 -47t-48.5 -19z" />
    <glyph glyph-name="cedilla" unicode="&#xb8;" horiz-adv-x="500" 
d="M360 -152q0 -42 -30.5 -70t-79.5 -28q-48 0 -79 24t-31 58h61q5 -30 49 -30q22 0 36 13t14 33t-13.5 33t-35.5 13q-31 0 -43 -19h-62l79 125h61l-38 -54h11q45 0 73 -28.5t28 -69.5z" />
    <glyph glyph-name="onesuperior" unicode="&#xb9;" horiz-adv-x="208" 
d="M85 640v11h81v-389h-82v260h-73v64h23q28 0 39.5 12.5t11.5 41.5z" />
    <glyph glyph-name="ordmasculine" unicode="&#xba;" horiz-adv-x="379" 
d="M190 268q-73 0 -120.5 47.5t-47.5 121.5q0 75 47.5 122t120.5 47q72 0 119.5 -47t47.5 -122q0 -74 -47.5 -121.5t-119.5 -47.5zM190 341q38 0 62.5 27t24.5 69q0 43 -24.5 70t-62.5 27q-39 0 -63.5 -27t-24.5 -70t25 -69.5t63 -26.5zM329 96h-279v76h279v-76z" />
    <glyph glyph-name="guillemotright" unicode="&#xbb;" horiz-adv-x="580" 
d="M310 454l220 -148v-102l-220 -148v93l168 106l-168 106v93zM50 454l220 -148v-102l-220 -148v93l168 106l-168 106v93z" />
    <glyph glyph-name="onequarter" unicode="&#xbc;" horiz-adv-x="806" 
d="M165 739v11h81v-389h-82v260h-73v64h23q28 0 39.5 12.5t11.5 41.5zM113 0l520 750h60l-520 -750h-60zM441 144l133 245h124v-244h70v-66h-70v-79h-78v79h-179v65zM514 145h106v197z" />
    <glyph glyph-name="onehalf" unicode="&#xbd;" horiz-adv-x="806" 
d="M165 739v11h81v-389h-82v260h-73v64h23q28 0 39.5 12.5t11.5 41.5zM113 0l520 750h60l-520 -750h-60zM742 276q0 -35 -24 -65.5t-54 -49.5t-59 -44.5t-36 -48.5h177v-68h-276v30q0 36 20 67t49 53t57.5 41.5t48.5 41t20 42.5q0 24 -16 38t-41 14q-59 0 -59 -61v-12h-76
v18q0 58 38 90.5t97 32.5q58 0 96 -31.5t38 -87.5z" />
    <glyph glyph-name="threequarters" unicode="&#xbe;" horiz-adv-x="806" 
d="M323 472q0 -55 -39.5 -86t-104.5 -31q-69 0 -112 34t-43 92h78q0 -27 20.5 -43t52.5 -16q31 0 49.5 14.5t18.5 39.5q0 53 -70 53h-37v65h37q28 0 43.5 12.5t15.5 33.5q0 22 -16.5 35t-45.5 13t-45.5 -14.5t-16.5 -40.5h-77q0 58 37.5 90.5t102.5 32.5q63 0 102 -30.5
t39 -79.5q0 -55 -51 -81q62 -30 62 -93zM113 0l520 750h60l-520 -750h-60zM441 144l133 245h124v-244h70v-66h-70v-79h-78v79h-179v65zM514 145h106v197z" />
    <glyph glyph-name="questiondown" unicode="&#xbf;" horiz-adv-x="497" 
d="M246 510q25 0 43.5 -18.5t18.5 -43.5q0 -26 -18.5 -44.5t-43.5 -18.5q-26 0 -44.5 18.5t-18.5 44.5q0 25 18.5 43.5t44.5 18.5zM29 -69q0 42 17 76.5t41.5 58t49.5 46t43 52t19 64.5l1 22h92v-27q0 -41 -17 -76.5t-41 -60t-47.5 -47.5t-40.5 -50.5t-17 -57.5
q0 -47 30.5 -73t85.5 -26t88.5 32t33.5 100v28h101v-38q0 -103 -64 -158.5t-159 -55.5q-99 0 -157.5 50.5t-58.5 140.5z" />
    <glyph glyph-name="Agrave" unicode="&#xc0;" horiz-adv-x="510" 
d="M216 820l-92 150h111l64 -150h-83zM12 0l168 750h150l168 -750h-101l-39 184h-206l-39 -184h-101zM172 276h166l-83 394z" />
    <glyph glyph-name="Aacute" unicode="&#xc1;" horiz-adv-x="510" 
d="M302 820h-83l64 150h111zM12 0l168 750h150l168 -750h-101l-39 184h-206l-39 -184h-101zM172 276h166l-83 394z" />
    <glyph glyph-name="Acircumflex" unicode="&#xc2;" horiz-adv-x="510" 
d="M178 820h-83l104 150h110l104 -150h-83l-76 87zM12 0l168 750h150l168 -750h-101l-39 184h-206l-39 -184h-101zM172 276h166l-83 394z" />
    <glyph glyph-name="Atilde" unicode="&#xc3;" horiz-adv-x="510" 
d="M91 822v50q0 96 82 96q35 0 81.5 -34t64.5 -34q32 0 32 39v27h68v-50q0 -96 -82 -96q-35 0 -81.5 34t-64.5 34q-32 0 -32 -39v-27h-68zM12 0l168 750h150l168 -750h-101l-39 184h-206l-39 -184h-101zM172 276h166l-83 394z" />
    <glyph glyph-name="Adieresis" unicode="&#xc4;" horiz-adv-x="510" 
d="M155 837q-24 0 -41 17t-17 41t17 41t41 17q25 0 41.5 -17t16.5 -41t-16.5 -41t-41.5 -17zM355 837q-24 0 -41 17t-17 41t17 41t41 17q25 0 41.5 -17t16.5 -41t-16.5 -41t-41.5 -17zM12 0l168 750h150l168 -750h-101l-39 184h-206l-39 -184h-101zM172 276h166l-83 394z
" />
    <glyph glyph-name="Aring" unicode="&#xc5;" horiz-adv-x="510" 
d="M255 790q-46 0 -75 27.5t-29 67.5t29 67.5t75 27.5t75.5 -27.5t29.5 -67.5t-29.5 -67.5t-75.5 -27.5zM255 842q20 0 32.5 12t12.5 31t-12.5 31t-32.5 12q-18 0 -31 -12.5t-13 -30.5t13 -30.5t31 -12.5zM12 0l168 750h150l168 -750h-101l-39 184h-206l-39 -184h-101z
M172 276h166l-83 394z" />
    <glyph glyph-name="AE" unicode="&#xc6;" horiz-adv-x="780" 
d="M736 92v-92h-336v184h-214l-79 -184h-105l332 750h402v-92h-236v-226h216v-92h-216v-248h236zM226 276h174v402z" />
    <glyph glyph-name="Ccedilla" unicode="&#xc7;" horiz-adv-x="570" 
d="M395 -152q0 -42 -30.5 -70t-79.5 -28t-79.5 24t-30.5 58h61q5 -30 49 -30q22 0 36 13t14 33t-13.5 33t-35.5 13q-31 0 -43 -19h-62l74 116q-91 9 -141 73.5t-50 181.5v258q0 126 58 191t163 65t163 -65t58 -191v-30h-100v30q0 87 -31 125.5t-90 38.5q-121 0 -121 -164
v-258q0 -87 31 -125.5t90 -38.5q121 0 121 164v40h100v-40q0 -117 -50 -181.5t-141 -73.5l-32 -45h11q45 0 73 -28.5t28 -69.5z" />
    <glyph glyph-name="Egrave" unicode="&#xc8;" horiz-adv-x="454" 
d="M208 820l-92 150h111l64 -150h-83zM74 0v750h336v-92h-236v-226h216v-92h-216v-248h236v-92h-336z" />
    <glyph glyph-name="Eacute" unicode="&#xc9;" horiz-adv-x="454" 
d="M294 820h-83l64 150h111zM74 0v750h336v-92h-236v-226h216v-92h-216v-248h236v-92h-336z" />
    <glyph glyph-name="Ecircumflex" unicode="&#xca;" horiz-adv-x="454" 
d="M170 820h-83l104 150h110l104 -150h-83l-76 87zM74 0v750h336v-92h-236v-226h216v-92h-216v-248h236v-92h-336z" />
    <glyph glyph-name="Edieresis" unicode="&#xcb;" horiz-adv-x="454" 
d="M147 837q-24 0 -41 17t-17 41t17 41t41 17q25 0 41.5 -17t16.5 -41t-16.5 -41t-41.5 -17zM347 837q-24 0 -41 17t-17 41t17 41t41 17q25 0 41.5 -17t16.5 -41t-16.5 -41t-41.5 -17zM74 0v750h336v-92h-236v-226h216v-92h-216v-248h236v-92h-336z" />
    <glyph glyph-name="Igrave" unicode="&#xcc;" horiz-adv-x="248" 
d="M85 820l-92 150h111l64 -150h-83zM174 0h-100v750h100v-750z" />
    <glyph glyph-name="Iacute" unicode="&#xcd;" horiz-adv-x="248" 
d="M171 820h-83l64 150h111zM174 0h-100v750h100v-750z" />
    <glyph glyph-name="Icircumflex" unicode="&#xce;" horiz-adv-x="248" 
d="M47 820h-83l104 150h110l104 -150h-83l-76 87zM174 0h-100v750h100v-750z" />
    <glyph glyph-name="Idieresis" unicode="&#xcf;" horiz-adv-x="248" 
d="M24 837q-24 0 -41 17t-17 41t17 41t41 17q25 0 41.5 -17t16.5 -41t-16.5 -41t-41.5 -17zM224 837q-24 0 -41 17t-17 41t17 41t41 17q25 0 41.5 -17t16.5 -41t-16.5 -41t-41.5 -17zM174 0h-100v750h100v-750z" />
    <glyph glyph-name="Eth" unicode="&#xd0;" horiz-adv-x="570" 
d="M506 250q0 -124 -59 -187t-166 -63h-207v352h-74v68h74v330h207q107 0 166 -63t59 -187v-250zM174 92h107q61 0 93 37t32 121v250q0 85 -31.5 121.5t-93.5 36.5h-107v-238h114v-68h-114v-260z" />
    <glyph glyph-name="Ntilde" unicode="&#xd1;" horiz-adv-x="590" 
d="M131 822v50q0 96 82 96q35 0 81.5 -34t64.5 -34q32 0 32 39v27h68v-50q0 -96 -82 -96q-35 0 -81.5 34t-64.5 34q-32 0 -32 -39v-27h-68zM516 750v-750h-165l-185 687v-687h-92v750h167l183 -679v679h92z" />
    <glyph glyph-name="Ograve" unicode="&#xd2;" horiz-adv-x="570" 
d="M246 820l-92 150h111l64 -150h-83zM285 -10q-105 0 -163 64.5t-58 191.5v258q0 126 58 191t163 65t163 -65t58 -191v-258q0 -127 -58 -191.5t-163 -64.5zM285 82q59 0 90 38.5t31 125.5v258q0 87 -31 125.5t-90 38.5q-121 0 -121 -164v-258q0 -87 30.5 -125.5t90.5 -38.5
z" />
    <glyph glyph-name="Oacute" unicode="&#xd3;" horiz-adv-x="570" 
d="M332 820h-83l64 150h111zM285 -10q-105 0 -163 64.5t-58 191.5v258q0 126 58 191t163 65t163 -65t58 -191v-258q0 -127 -58 -191.5t-163 -64.5zM285 82q59 0 90 38.5t31 125.5v258q0 87 -31 125.5t-90 38.5q-121 0 -121 -164v-258q0 -87 30.5 -125.5t90.5 -38.5z" />
    <glyph glyph-name="Ocircumflex" unicode="&#xd4;" horiz-adv-x="570" 
d="M208 820h-83l104 150h110l104 -150h-83l-76 87zM285 -10q-105 0 -163 64.5t-58 191.5v258q0 126 58 191t163 65t163 -65t58 -191v-258q0 -127 -58 -191.5t-163 -64.5zM285 82q59 0 90 38.5t31 125.5v258q0 87 -31 125.5t-90 38.5q-121 0 -121 -164v-258
q0 -87 30.5 -125.5t90.5 -38.5z" />
    <glyph glyph-name="Otilde" unicode="&#xd5;" horiz-adv-x="570" 
d="M121 822v50q0 96 82 96q35 0 81.5 -34t64.5 -34q32 0 32 39v27h68v-50q0 -96 -82 -96q-35 0 -81.5 34t-64.5 34q-32 0 -32 -39v-27h-68zM285 -10q-105 0 -163 64.5t-58 191.5v258q0 126 58 191t163 65t163 -65t58 -191v-258q0 -127 -58 -191.5t-163 -64.5zM285 82
q59 0 90 38.5t31 125.5v258q0 87 -31 125.5t-90 38.5q-121 0 -121 -164v-258q0 -87 30.5 -125.5t90.5 -38.5z" />
    <glyph glyph-name="Odieresis" unicode="&#xd6;" horiz-adv-x="570" 
d="M185 837q-24 0 -41 17t-17 41t17 41t41 17q25 0 41.5 -17t16.5 -41t-16.5 -41t-41.5 -17zM385 837q-24 0 -41 17t-17 41t17 41t41 17q25 0 41.5 -17t16.5 -41t-16.5 -41t-41.5 -17zM285 -10q-105 0 -163 64.5t-58 191.5v258q0 126 58 191t163 65t163 -65t58 -191v-258
q0 -127 -58 -191.5t-163 -64.5zM285 82q59 0 90 38.5t31 125.5v258q0 87 -31 125.5t-90 38.5q-121 0 -121 -164v-258q0 -87 30.5 -125.5t90.5 -38.5z" />
    <glyph glyph-name="multiply" unicode="&#xd7;" 
d="M446 182l-50 -50l-121 122l-117 -117l-49 49l117 117l-122 121l50 50l122 -121l116 116l49 -49l-116 -116z" />
    <glyph glyph-name="Oslash" unicode="&#xd8;" horiz-adv-x="570" 
d="M506 246q0 -124 -57 -190t-152 -66q-93 0 -134 48l-19 -38h-84l46 95q-42 50 -42 151v258q0 124 57 190t152 66q93 0 134 -48l19 38h84l-46 -95q42 -50 42 -151v-258zM164 246q0 -21 1 -31l205 420q-30 33 -85 33q-59 0 -90 -38.5t-31 -125.5v-258zM406 504q0 21 -1 31
l-205 -420q30 -33 85 -33q59 0 90 38.5t31 125.5v258z" />
    <glyph glyph-name="Ugrave" unicode="&#xd9;" horiz-adv-x="570" 
d="M246 820l-92 150h111l64 -150h-83zM69 750h100v-519q0 -80 29.5 -114.5t86.5 -34.5t86.5 35t29.5 114v519h100v-519q0 -120 -56.5 -180.5t-159.5 -60.5t-159.5 60.5t-56.5 180.5v519z" />
    <glyph glyph-name="Uacute" unicode="&#xda;" horiz-adv-x="570" 
d="M332 820h-83l64 150h111zM69 750h100v-519q0 -80 29.5 -114.5t86.5 -34.5t86.5 35t29.5 114v519h100v-519q0 -120 -56.5 -180.5t-159.5 -60.5t-159.5 60.5t-56.5 180.5v519z" />
    <glyph glyph-name="Ucircumflex" unicode="&#xdb;" horiz-adv-x="570" 
d="M208 820h-83l104 150h110l104 -150h-83l-76 87zM69 750h100v-519q0 -80 29.5 -114.5t86.5 -34.5t86.5 35t29.5 114v519h100v-519q0 -120 -56.5 -180.5t-159.5 -60.5t-159.5 60.5t-56.5 180.5v519z" />
    <glyph glyph-name="Udieresis" unicode="&#xdc;" horiz-adv-x="570" 
d="M185 837q-24 0 -41 17t-17 41t17 41t41 17q25 0 41.5 -17t16.5 -41t-16.5 -41t-41.5 -17zM385 837q-24 0 -41 17t-17 41t17 41t41 17q25 0 41.5 -17t16.5 -41t-16.5 -41t-41.5 -17zM69 750h100v-519q0 -80 29.5 -114.5t86.5 -34.5t86.5 35t29.5 114v519h100v-519
q0 -120 -56.5 -180.5t-159.5 -60.5t-159.5 60.5t-56.5 180.5v519z" />
    <glyph glyph-name="Yacute" unicode="&#xdd;" horiz-adv-x="480" 
d="M287 820h-83l64 150h111zM290 302v-302h-100v302l-189 448h100l139 -344l139 344h100z" />
    <glyph glyph-name="Thorn" unicode="&#xde;" horiz-adv-x="530" 
d="M287 178h-113v-178h-100v750h100v-112h113q93 0 150 -52t57 -148v-50q0 -100 -57 -155t-150 -55zM277 546h-103v-276h103q117 0 117 128v30q0 118 -117 118z" />
    <glyph glyph-name="germandbls" unicode="&#xdf;" horiz-adv-x="614" 
d="M206 576v-576h-100v412h-86v88h86v78q0 85 54 133.5t140 48.5t141 -48t55 -128q0 -69 -57 -110q64 -30 101 -89t37 -135q0 -110 -73 -180t-184 -70h-26v88h26q68 0 112.5 45t44.5 117t-44.5 117t-112.5 45h-26v88h9q43 0 68 21.5t25 60.5q0 41 -25.5 64t-69.5 23
t-69.5 -23.5t-25.5 -69.5z" />
    <glyph glyph-name="agrave" unicode="&#xe0;" 
d="M239 600l-92 150h111l64 -150h-83zM387 0v84q-47 -94 -169 -94q-72 0 -121 36t-49 106q0 51 25 83.5t62.5 45t81 21t81 12.5t62.5 19t25 41q0 36 -30.5 56t-77.5 20q-50 0 -80 -25.5t-30 -72.5h-104q0 90 61.5 134t152.5 44q89 0 148.5 -39.5t59.5 -120.5v-350h-98z
M150 138q0 -31 24 -47.5t64 -16.5q62 0 105.5 35t43.5 97v36q-26 -13 -72 -22t-79.5 -14t-59.5 -22t-26 -46z" />
    <glyph glyph-name="aacute" unicode="&#xe1;" 
d="M324 600h-83l64 150h111zM387 0v84q-47 -94 -169 -94q-72 0 -121 36t-49 106q0 51 25 83.5t62.5 45t81 21t81 12.5t62.5 19t25 41q0 36 -30.5 56t-77.5 20q-50 0 -80 -25.5t-30 -72.5h-104q0 90 61.5 134t152.5 44q89 0 148.5 -39.5t59.5 -120.5v-350h-98zM150 138
q0 -31 24 -47.5t64 -16.5q62 0 105.5 35t43.5 97v36q-26 -13 -72 -22t-79.5 -14t-59.5 -22t-26 -46z" />
    <glyph glyph-name="acircumflex" unicode="&#xe2;" 
d="M201 600h-83l104 150h110l104 -150h-83l-76 87zM387 0v84q-47 -94 -169 -94q-72 0 -121 36t-49 106q0 51 25 83.5t62.5 45t81 21t81 12.5t62.5 19t25 41q0 36 -30.5 56t-77.5 20q-50 0 -80 -25.5t-30 -72.5h-104q0 90 61.5 134t152.5 44q89 0 148.5 -39.5t59.5 -120.5
v-350h-98zM150 138q0 -31 24 -47.5t64 -16.5q62 0 105.5 35t43.5 97v36q-26 -13 -72 -22t-79.5 -14t-59.5 -22t-26 -46z" />
    <glyph glyph-name="atilde" unicode="&#xe3;" 
d="M113 602v50q0 96 82 96q35 0 81.5 -34t64.5 -34q32 0 32 39v27h68v-50q0 -96 -82 -96q-35 0 -81.5 34t-64.5 34q-32 0 -32 -39v-27h-68zM387 0v84q-47 -94 -169 -94q-72 0 -121 36t-49 106q0 51 25 83.5t62.5 45t81 21t81 12.5t62.5 19t25 41q0 36 -30.5 56t-77.5 20
q-50 0 -80 -25.5t-30 -72.5h-104q0 90 61.5 134t152.5 44q89 0 148.5 -39.5t59.5 -120.5v-350h-98zM150 138q0 -31 24 -47.5t64 -16.5q62 0 105.5 35t43.5 97v36q-26 -13 -72 -22t-79.5 -14t-59.5 -22t-26 -46z" />
    <glyph glyph-name="adieresis" unicode="&#xe4;" 
d="M177 617q-24 0 -41 17t-17 41t17 41t41 17q25 0 41.5 -17t16.5 -41t-16.5 -41t-41.5 -17zM377 617q-24 0 -41 17t-17 41t17 41t41 17q25 0 41.5 -17t16.5 -41t-16.5 -41t-41.5 -17zM387 0v84q-47 -94 -169 -94q-72 0 -121 36t-49 106q0 51 25 83.5t62.5 45t81 21t81 12.5
t62.5 19t25 41q0 36 -30.5 56t-77.5 20q-50 0 -80 -25.5t-30 -72.5h-104q0 90 61.5 134t152.5 44q89 0 148.5 -39.5t59.5 -120.5v-350h-98zM150 138q0 -31 24 -47.5t64 -16.5q62 0 105.5 35t43.5 97v36q-26 -13 -72 -22t-79.5 -14t-59.5 -22t-26 -46z" />
    <glyph glyph-name="aring" unicode="&#xe5;" 
d="M277 570q-46 0 -75 27.5t-29 67.5t29 67.5t75 27.5t75.5 -27.5t29.5 -67.5t-29.5 -67.5t-75.5 -27.5zM277 622q20 0 32.5 12t12.5 31t-12.5 31t-32.5 12q-18 0 -31 -12.5t-13 -30.5t13 -30.5t31 -12.5zM387 0v84q-47 -94 -169 -94q-72 0 -121 36t-49 106q0 51 25 83.5
t62.5 45t81 21t81 12.5t62.5 19t25 41q0 36 -30.5 56t-77.5 20q-50 0 -80 -25.5t-30 -72.5h-104q0 90 61.5 134t152.5 44q89 0 148.5 -39.5t59.5 -120.5v-350h-98zM150 138q0 -31 24 -47.5t64 -16.5q62 0 105.5 35t43.5 97v36q-26 -13 -72 -22t-79.5 -14t-59.5 -22t-26 -46z
" />
    <glyph glyph-name="ae" unicode="&#xe6;" horiz-adv-x="918" 
d="M881 250q0 -12 -2 -34h-392q9 -65 49 -101.5t103 -36.5q89 0 121 72h108q-23 -77 -84.5 -118.5t-148.5 -41.5q-67 0 -121 30t-87 84q-47 -114 -197 -114q-77 0 -129.5 36t-52.5 106q0 51 25 83.5t62.5 45t81 21t81 12.5t62.5 19t25 41q0 36 -30.5 56t-77.5 20
q-50 0 -80 -25.5t-30 -72.5h-104q0 90 59 134t147 44q134 0 181 -82q69 82 185 82q107 0 176.5 -73t69.5 -187zM635 422q-61 0 -99.5 -35.5t-47.5 -98.5h294q-9 63 -48 98.5t-99 35.5zM150 138q0 -31 24 -47.5t64 -16.5q62 0 105.5 35t43.5 97v36q-26 -13 -72 -22t-79.5 -14
t-59.5 -22t-26 -46z" />
    <glyph glyph-name="ccedilla" unicode="&#xe7;" horiz-adv-x="572" 
d="M396 -152q0 -42 -30.5 -70t-79.5 -28t-79.5 24t-30.5 58h61q5 -30 49 -30q22 0 36 13t14 33t-13.5 33t-35.5 13q-31 0 -43 -19h-62l74 117q-97 11 -158 81.5t-61 176.5q0 114 70.5 187t178.5 73q100 0 169 -58t78 -151h-104q-7 55 -47 86t-96 31q-65 0 -107 -46.5
t-42 -121.5t42 -121.5t107 -46.5q57 0 97.5 34t47.5 94h104q-5 -90 -66 -150t-153 -69l-32 -45h11q45 0 73 -28.5t28 -69.5z" />
    <glyph glyph-name="egrave" unicode="&#xe8;" horiz-adv-x="566" 
d="M245 600l-92 150h111l64 -150h-83zM529 250q0 -12 -2 -34h-392q9 -65 49 -101.5t103 -36.5q89 0 121 72h108q-23 -77 -84.5 -118.5t-148.5 -41.5q-107 0 -176.5 73t-69.5 187t69.5 187t176.5 73t176.5 -73t69.5 -187zM283 422q-61 0 -99.5 -35.5t-47.5 -98.5h294
q-9 63 -48 98.5t-99 35.5z" />
    <glyph glyph-name="eacute" unicode="&#xe9;" horiz-adv-x="566" 
d="M330 600h-83l64 150h111zM529 250q0 -12 -2 -34h-392q9 -65 49 -101.5t103 -36.5q89 0 121 72h108q-23 -77 -84.5 -118.5t-148.5 -41.5q-107 0 -176.5 73t-69.5 187t69.5 187t176.5 73t176.5 -73t69.5 -187zM283 422q-61 0 -99.5 -35.5t-47.5 -98.5h294q-9 63 -48 98.5
t-99 35.5z" />
    <glyph glyph-name="ecircumflex" unicode="&#xea;" horiz-adv-x="566" 
d="M207 600h-83l104 150h110l104 -150h-83l-76 87zM529 250q0 -12 -2 -34h-392q9 -65 49 -101.5t103 -36.5q89 0 121 72h108q-23 -77 -84.5 -118.5t-148.5 -41.5q-107 0 -176.5 73t-69.5 187t69.5 187t176.5 73t176.5 -73t69.5 -187zM283 422q-61 0 -99.5 -35.5t-47.5 -98.5
h294q-9 63 -48 98.5t-99 35.5z" />
    <glyph glyph-name="edieresis" unicode="&#xeb;" horiz-adv-x="566" 
d="M183 617q-24 0 -41 17t-17 41t17 41t41 17q25 0 41.5 -17t16.5 -41t-16.5 -41t-41.5 -17zM383 617q-24 0 -41 17t-17 41t17 41t41 17q25 0 41.5 -17t16.5 -41t-16.5 -41t-41.5 -17zM529 250q0 -12 -2 -34h-392q9 -65 49 -101.5t103 -36.5q89 0 121 72h108
q-23 -77 -84.5 -118.5t-148.5 -41.5q-107 0 -176.5 73t-69.5 187t69.5 187t176.5 73t176.5 -73t69.5 -187zM283 422q-61 0 -99.5 -35.5t-47.5 -98.5h294q-9 63 -48 98.5t-99 35.5z" />
    <glyph glyph-name="igrave" unicode="&#xec;" horiz-adv-x="248" 
d="M86 600l-92 150h111l64 -150h-83zM174 0h-100v500h100v-500z" />
    <glyph glyph-name="iacute" unicode="&#xed;" horiz-adv-x="248" 
d="M171 600h-83l64 150h111zM174 0h-100v500h100v-500z" />
    <glyph glyph-name="icircumflex" unicode="&#xee;" horiz-adv-x="248" 
d="M48 600h-83l104 150h110l104 -150h-83l-76 87zM174 0h-100v500h100v-500z" />
    <glyph glyph-name="idieresis" unicode="&#xef;" horiz-adv-x="248" 
d="M24 617q-24 0 -41 17t-17 41t17 41t41 17q25 0 41.5 -17t16.5 -41t-16.5 -41t-41.5 -17zM224 617q-24 0 -41 17t-17 41t17 41t41 17q25 0 41.5 -17t16.5 -41t-16.5 -41t-41.5 -17zM174 0h-100v500h100v-500z" />
    <glyph glyph-name="eth" unicode="&#xf0;" horiz-adv-x="575" 
d="M535 327q0 -175 -69.5 -256t-183.5 -81q-105 0 -174 67.5t-69 172.5q0 106 64.5 173t169.5 67q100 0 154 -77q-10 128 -65 193l-85 -77h-101l134 121q-49 28 -117 28q-30 0 -56 -5v91q35 6 69 6q102 0 178 -54l60 54h101l-111 -100q101 -114 101 -323zM282 82
q62 0 102 41t40 107t-40 107t-102 41t-102.5 -41t-40.5 -107t40.5 -107t102.5 -41z" />
    <glyph glyph-name="ntilde" unicode="&#xf1;" horiz-adv-x="585" 
d="M132 602v50q0 96 82 96q35 0 81.5 -34t64.5 -34q32 0 32 39v27h68v-50q0 -96 -82 -96q-35 0 -81.5 34t-64.5 34q-32 0 -32 -39v-27h-68zM174 273v-273h-100v500h100v-79q48 89 152 89q85 0 137.5 -55.5t52.5 -161.5v-293h-100v273q0 73 -32 111t-89 38t-89 -38t-32 -111z
" />
    <glyph glyph-name="ograve" unicode="&#xf2;" horiz-adv-x="580" 
d="M252 600l-92 150h111l64 -150h-83zM290 -10q-109 0 -181 73t-72 187t72 187t181 73t181 -73t72 -187t-72 -187t-181 -73zM290 82q66 0 109.5 46.5t43.5 121.5t-43.5 121.5t-109.5 46.5t-109.5 -46.5t-43.5 -121.5t43.5 -121.5t109.5 -46.5z" />
    <glyph glyph-name="oacute" unicode="&#xf3;" horiz-adv-x="580" 
d="M337 600h-83l64 150h111zM290 -10q-109 0 -181 73t-72 187t72 187t181 73t181 -73t72 -187t-72 -187t-181 -73zM290 82q66 0 109.5 46.5t43.5 121.5t-43.5 121.5t-109.5 46.5t-109.5 -46.5t-43.5 -121.5t43.5 -121.5t109.5 -46.5z" />
    <glyph glyph-name="ocircumflex" unicode="&#xf4;" horiz-adv-x="580" 
d="M214 600h-83l104 150h110l104 -150h-83l-76 87zM290 -10q-109 0 -181 73t-72 187t72 187t181 73t181 -73t72 -187t-72 -187t-181 -73zM290 82q66 0 109.5 46.5t43.5 121.5t-43.5 121.5t-109.5 46.5t-109.5 -46.5t-43.5 -121.5t43.5 -121.5t109.5 -46.5z" />
    <glyph glyph-name="otilde" unicode="&#xf5;" horiz-adv-x="580" 
d="M126 602v50q0 96 82 96q35 0 81.5 -34t64.5 -34q32 0 32 39v27h68v-50q0 -96 -82 -96q-35 0 -81.5 34t-64.5 34q-32 0 -32 -39v-27h-68zM290 -10q-109 0 -181 73t-72 187t72 187t181 73t181 -73t72 -187t-72 -187t-181 -73zM290 82q66 0 109.5 46.5t43.5 121.5
t-43.5 121.5t-109.5 46.5t-109.5 -46.5t-43.5 -121.5t43.5 -121.5t109.5 -46.5z" />
    <glyph glyph-name="odieresis" unicode="&#xf6;" horiz-adv-x="580" 
d="M190 617q-24 0 -41 17t-17 41t17 41t41 17q25 0 41.5 -17t16.5 -41t-16.5 -41t-41.5 -17zM390 617q-24 0 -41 17t-17 41t17 41t41 17q25 0 41.5 -17t16.5 -41t-16.5 -41t-41.5 -17zM290 -10q-109 0 -181 73t-72 187t72 187t181 73t181 -73t72 -187t-72 -187t-181 -73z
M290 82q66 0 109.5 46.5t43.5 121.5t-43.5 121.5t-109.5 46.5t-109.5 -46.5t-43.5 -121.5t43.5 -121.5t109.5 -46.5z" />
    <glyph glyph-name="divide" unicode="&#xf7;" 
d="M221 460q0 22 16.5 38t37.5 16q23 0 39 -15.5t16 -38.5q0 -22 -16 -37.5t-39 -15.5q-21 0 -37.5 15.5t-16.5 37.5zM75 269v68h400v-68h-400zM221 144q0 22 16.5 38t37.5 16q23 0 39 -15.5t16 -38.5q0 -22 -16 -37.5t-39 -15.5q-21 0 -37.5 15.5t-16.5 37.5z" />
    <glyph glyph-name="oslash" unicode="&#xf8;" horiz-adv-x="580" 
d="M543 250q0 -114 -72 -187t-181 -73q-75 0 -133 35l-20 -25h-100l61 75q-61 72 -61 175q0 114 72 187t181 73q75 0 133 -35l20 25h100l-61 -75q61 -72 61 -175zM137 250q0 -55 25 -96l200 246q-31 18 -72 18q-66 0 -109.5 -46.5t-43.5 -121.5zM443 250q0 55 -25 96
l-200 -246q32 -18 72 -18q66 0 109.5 46.5t43.5 121.5z" />
    <glyph glyph-name="ugrave" unicode="&#xf9;" horiz-adv-x="580" 
d="M247 600l-92 150h111l64 -150h-83zM406 0v80q-47 -90 -149 -90q-84 0 -136 56t-52 163v291h100v-271q0 -74 31.5 -112.5t87.5 -38.5t87 38.5t31 112.5v271h100v-500h-100z" />
    <glyph glyph-name="uacute" unicode="&#xfa;" horiz-adv-x="580" 
d="M332 600h-83l64 150h111zM406 0v80q-47 -90 -149 -90q-84 0 -136 56t-52 163v291h100v-271q0 -74 31.5 -112.5t87.5 -38.5t87 38.5t31 112.5v271h100v-500h-100z" />
    <glyph glyph-name="ucircumflex" unicode="&#xfb;" horiz-adv-x="580" 
d="M209 600h-83l104 150h110l104 -150h-83l-76 87zM406 0v80q-47 -90 -149 -90q-84 0 -136 56t-52 163v291h100v-271q0 -74 31.5 -112.5t87.5 -38.5t87 38.5t31 112.5v271h100v-500h-100z" />
    <glyph glyph-name="udieresis" unicode="&#xfc;" horiz-adv-x="580" 
d="M185 617q-24 0 -41 17t-17 41t17 41t41 17q25 0 41.5 -17t16.5 -41t-16.5 -41t-41.5 -17zM385 617q-24 0 -41 17t-17 41t17 41t41 17q25 0 41.5 -17t16.5 -41t-16.5 -41t-41.5 -17zM406 0v80q-47 -90 -149 -90q-84 0 -136 56t-52 163v291h100v-271q0 -74 31.5 -112.5
t87.5 -38.5t87 38.5t31 112.5v271h100v-500h-100z" />
    <glyph glyph-name="yacute" unicode="&#xfd;" horiz-adv-x="501" 
d="M306 600h-83l64 150h111zM298 -56q-17 -49 -34 -82.5t-42 -62.5t-59 -43t-79 -14q-40 0 -75 11v88q35 -11 66 -11q46 0 75 27t54 88l-198 555h100l145 -419l144 419h100z" />
    <glyph glyph-name="thorn" unicode="&#xfe;" horiz-adv-x="615" 
d="M338 -10q-101 0 -164 85v-325h-100v1000h100v-325q63 85 164 85q103 0 171.5 -73t68.5 -187t-68.5 -187t-171.5 -73zM326 82q66 0 109 46.5t43 121.5t-43 121.5t-109 46.5t-109 -46.5t-43 -121.5t43 -121.5t109 -46.5z" />
    <glyph glyph-name="ydieresis" unicode="&#xff;" horiz-adv-x="501" 
d="M159 617q-24 0 -41 17t-17 41t17 41t41 17q25 0 41.5 -17t16.5 -41t-16.5 -41t-41.5 -17zM359 617q-24 0 -41 17t-17 41t17 41t41 17q25 0 41.5 -17t16.5 -41t-16.5 -41t-41.5 -17zM298 -56q-17 -49 -34 -82.5t-42 -62.5t-59 -43t-79 -14q-40 0 -75 11v88q35 -11 66 -11
q46 0 75 27t54 88l-198 555h100l145 -419l144 419h100z" />
    <glyph glyph-name="Amacron" unicode="&#x100;" horiz-adv-x="510" 
d="M397 903v-67h-276v67h276zM12 0l168 750h150l168 -750h-101l-39 184h-206l-39 -184h-101zM172 276h166l-83 394z" />
    <glyph glyph-name="amacron" unicode="&#x101;" 
d="M419 683v-67h-276v67h276zM387 0v84q-47 -94 -169 -94q-72 0 -121 36t-49 106q0 51 25 83.5t62.5 45t81 21t81 12.5t62.5 19t25 41q0 36 -30.5 56t-77.5 20q-50 0 -80 -25.5t-30 -72.5h-104q0 90 61.5 134t152.5 44q89 0 148.5 -39.5t59.5 -120.5v-350h-98zM150 138
q0 -31 24 -47.5t64 -16.5q62 0 105.5 35t43.5 97v36q-26 -13 -72 -22t-79.5 -14t-59.5 -22t-26 -46z" />
    <glyph glyph-name="Abreve" unicode="&#x102;" horiz-adv-x="510" 
d="M327 970h79q0 -70 -41.5 -110t-109.5 -40t-109 40t-41 110h79q0 -39 20.5 -58.5t50.5 -19.5q72 0 72 78zM12 0l168 750h150l168 -750h-101l-39 184h-206l-39 -184h-101zM172 276h166l-83 394z" />
    <glyph glyph-name="abreve" unicode="&#x103;" 
d="M349 750h79q0 -70 -41.5 -110t-109.5 -40t-109 40t-41 110h79q0 -39 20.5 -58.5t50.5 -19.5q72 0 72 78zM387 0v84q-47 -94 -169 -94q-72 0 -121 36t-49 106q0 51 25 83.5t62.5 45t81 21t81 12.5t62.5 19t25 41q0 36 -30.5 56t-77.5 20q-50 0 -80 -25.5t-30 -72.5h-104
q0 90 61.5 134t152.5 44q89 0 148.5 -39.5t59.5 -120.5v-350h-98zM150 138q0 -31 24 -47.5t64 -16.5q62 0 105.5 35t43.5 97v36q-26 -13 -72 -22t-79.5 -14t-59.5 -22t-26 -46z" />
    <glyph glyph-name="Aogonek" unicode="&#x104;" horiz-adv-x="510" 
d="M304 -167q0 13 4.5 27.5t9.5 26t16.5 28.5t18 26.5t22.5 30t22 28.5l-39 184h-206l-39 -184h-101l168 750h150l168 -750h-41q-81 -111 -81 -158q0 -40 44 -40q41 0 47 38h73q0 -42 -33.5 -68t-88.5 -26q-52 0 -83 23.5t-31 63.5zM172 276h166l-83 394z" />
    <glyph glyph-name="aogonek" unicode="&#x105;" 
d="M294 -166q0 11 2.5 22.5t8.5 24.5t11 22.5t16 24.5t16.5 23t19.5 25t19 24v84q-47 -94 -169 -94q-72 0 -121 36t-49 106q0 51 25 83.5t62.5 45t81 21t81 12.5t62.5 19t25 41q0 36 -30.5 56t-77.5 20q-50 0 -80 -25.5t-30 -72.5h-104q0 90 61.5 134t152.5 44
q89 0 148.5 -39.5t59.5 -120.5v-350h-38q-81 -108 -81 -157q0 -41 44 -41q41 0 47 38h73q0 -42 -33.5 -68t-88.5 -26q-52 0 -83 23.5t-31 64.5zM150 138q0 -31 24 -47.5t64 -16.5q62 0 105.5 35t43.5 97v36q-26 -13 -72 -22t-79.5 -14t-59.5 -22t-26 -46z" />
    <glyph glyph-name="Cacute" unicode="&#x106;" horiz-adv-x="570" 
d="M332 820h-83l64 150h111zM406 286h100v-40q0 -126 -58 -191t-163 -65t-163 65t-58 191v258q0 126 58 191t163 65t163 -65t58 -191v-30h-100v30q0 87 -31 125.5t-90 38.5q-121 0 -121 -164v-258q0 -87 31 -125.5t90 -38.5q121 0 121 164v40z" />
    <glyph glyph-name="cacute" unicode="&#x107;" horiz-adv-x="572" 
d="M333 600h-83l64 150h111zM429 301q-7 55 -47 86t-96 31q-65 0 -107 -46.5t-42 -121.5t42 -121.5t107 -46.5q57 0 97.5 34t47.5 94h104q-6 -98 -76 -159t-173 -61q-108 0 -178.5 73t-70.5 187t70.5 187t178.5 73q100 0 169 -58t78 -151h-104z" />
    <glyph glyph-name="Ccircumflex" unicode="&#x108;" horiz-adv-x="570" 
d="M208 820h-83l104 150h110l104 -150h-83l-76 87zM406 286h100v-40q0 -126 -58 -191t-163 -65t-163 65t-58 191v258q0 126 58 191t163 65t163 -65t58 -191v-30h-100v30q0 87 -31 125.5t-90 38.5q-121 0 -121 -164v-258q0 -87 31 -125.5t90 -38.5q121 0 121 164v40z" />
    <glyph glyph-name="ccircumflex" unicode="&#x109;" horiz-adv-x="572" 
d="M210 600h-83l104 150h110l104 -150h-83l-76 87zM429 301q-7 55 -47 86t-96 31q-65 0 -107 -46.5t-42 -121.5t42 -121.5t107 -46.5q57 0 97.5 34t47.5 94h104q-6 -98 -76 -159t-173 -61q-108 0 -178.5 73t-70.5 187t70.5 187t178.5 73q100 0 169 -58t78 -151h-104z" />
    <glyph glyph-name="Cdotaccent" unicode="&#x10a;" horiz-adv-x="570" 
d="M285 829q-28 0 -47 19t-19 47q0 29 18.5 47.5t47.5 18.5t47.5 -18.5t18.5 -47.5q0 -28 -18.5 -47t-47.5 -19zM406 286h100v-40q0 -126 -58 -191t-163 -65t-163 65t-58 191v258q0 126 58 191t163 65t163 -65t58 -191v-30h-100v30q0 87 -31 125.5t-90 38.5
q-121 0 -121 -164v-258q0 -87 31 -125.5t90 -38.5q121 0 121 164v40z" />
    <glyph glyph-name="cdotaccent" unicode="&#x10b;" horiz-adv-x="572" 
d="M286 609q-28 0 -47 19t-19 47q0 29 19 47.5t47 18.5q29 0 47.5 -18.5t18.5 -47.5q0 -28 -18.5 -47t-47.5 -19zM429 301q-7 55 -47 86t-96 31q-65 0 -107 -46.5t-42 -121.5t42 -121.5t107 -46.5q57 0 97.5 34t47.5 94h104q-6 -98 -76 -159t-173 -61q-108 0 -178.5 73
t-70.5 187t70.5 187t178.5 73q100 0 169 -58t78 -151h-104z" />
    <glyph glyph-name="Ccaron" unicode="&#x10c;" horiz-adv-x="570" 
d="M443 970l-104 -150h-110l-104 150h83l76 -87l76 87h83zM406 286h100v-40q0 -126 -58 -191t-163 -65t-163 65t-58 191v258q0 126 58 191t163 65t163 -65t58 -191v-30h-100v30q0 87 -31 125.5t-90 38.5q-121 0 -121 -164v-258q0 -87 31 -125.5t90 -38.5q121 0 121 164v40z
" />
    <glyph glyph-name="ccaron" unicode="&#x10d;" horiz-adv-x="572" 
d="M445 750l-104 -150h-110l-104 150h83l76 -87l76 87h83zM429 301q-7 55 -47 86t-96 31q-65 0 -107 -46.5t-42 -121.5t42 -121.5t107 -46.5q57 0 97.5 34t47.5 94h104q-6 -98 -76 -159t-173 -61q-108 0 -178.5 73t-70.5 187t70.5 187t178.5 73q100 0 169 -58t78 -151h-104z
" />
    <glyph glyph-name="Dcaron" unicode="&#x10e;" horiz-adv-x="570" 
d="M435 970l-104 -150h-110l-104 150h83l76 -87l76 87h83zM281 750q107 0 166 -63t59 -187v-250q0 -124 -59 -187t-166 -63h-207v750h207zM281 92q61 0 93 37t32 121v250q0 85 -31.5 121.5t-93.5 36.5h-107v-566h107z" />
    <glyph glyph-name="dcaron" unicode="&#x10f;" horiz-adv-x="615" 
d="M441 0v75q-63 -85 -164 -85q-103 0 -171.5 73t-68.5 187t68.5 187t171.5 73q101 0 164 -85v325h100v-750h-100zM619 750h97l-44 -185h-57zM289 418q-66 0 -109 -46.5t-43 -121.5t43 -121.5t109 -46.5t109 46.5t43 121.5t-43 121.5t-109 46.5z" />
    <glyph glyph-name="Dcroat" unicode="&#x110;" horiz-adv-x="570" 
d="M506 250q0 -124 -59 -187t-166 -63h-207v352h-74v68h74v330h207q107 0 166 -63t59 -187v-250zM174 92h107q61 0 93 37t32 121v250q0 85 -31.5 121.5t-93.5 36.5h-107v-238h114v-68h-114v-260z" />
    <glyph glyph-name="dcroat" unicode="&#x111;" horiz-adv-x="615" 
d="M441 0v75q-63 -85 -164 -85q-103 0 -171.5 73t-68.5 187t68.5 187t171.5 73q101 0 164 -85v175h-152v60h152v90h100v-90h74v-60h-74v-600h-100zM289 418q-66 0 -109 -46.5t-43 -121.5t43 -121.5t109 -46.5t109 46.5t43 121.5t-43 121.5t-109 46.5z" />
    <glyph glyph-name="Emacron" unicode="&#x112;" horiz-adv-x="454" 
d="M389 903v-67h-276v67h276zM74 0v750h336v-92h-236v-226h216v-92h-216v-248h236v-92h-336z" />
    <glyph glyph-name="emacron" unicode="&#x113;" horiz-adv-x="566" 
d="M425 683v-67h-276v67h276zM529 250q0 -12 -2 -34h-392q9 -65 49 -101.5t103 -36.5q89 0 121 72h108q-23 -77 -84.5 -118.5t-148.5 -41.5q-107 0 -176.5 73t-69.5 187t69.5 187t176.5 73t176.5 -73t69.5 -187zM283 422q-61 0 -99.5 -35.5t-47.5 -98.5h294q-9 63 -48 98.5
t-99 35.5z" />
    <glyph glyph-name="Ebreve" unicode="&#x114;" horiz-adv-x="454" 
d="M319 970h79q0 -70 -41.5 -110t-109.5 -40t-109 40t-41 110h79q0 -39 20.5 -58.5t50.5 -19.5q72 0 72 78zM74 0v750h336v-92h-236v-226h216v-92h-216v-248h236v-92h-336z" />
    <glyph glyph-name="ebreve" unicode="&#x115;" horiz-adv-x="566" 
d="M355 750h79q0 -70 -41.5 -110t-109.5 -40t-109 40t-41 110h79q0 -39 20.5 -58.5t50.5 -19.5q72 0 72 78zM529 250q0 -12 -2 -34h-392q9 -65 49 -101.5t103 -36.5q89 0 121 72h108q-23 -77 -84.5 -118.5t-148.5 -41.5q-107 0 -176.5 73t-69.5 187t69.5 187t176.5 73
t176.5 -73t69.5 -187zM283 422q-61 0 -99.5 -35.5t-47.5 -98.5h294q-9 63 -48 98.5t-99 35.5z" />
    <glyph glyph-name="Edotaccent" unicode="&#x116;" horiz-adv-x="454" 
d="M247 829q-28 0 -47 19t-19 47q0 29 18.5 47.5t47.5 18.5t47.5 -18.5t18.5 -47.5q0 -28 -18.5 -47t-47.5 -19zM74 0v750h336v-92h-236v-226h216v-92h-216v-248h236v-92h-336z" />
    <glyph glyph-name="edotaccent" unicode="&#x117;" horiz-adv-x="566" 
d="M283 609q-28 0 -47 19t-19 47q0 29 18.5 47.5t47.5 18.5t47.5 -18.5t18.5 -47.5q0 -28 -18.5 -47t-47.5 -19zM529 250q0 -12 -2 -34h-392q9 -65 49 -101.5t103 -36.5q89 0 121 72h108q-23 -77 -84.5 -118.5t-148.5 -41.5q-107 0 -176.5 73t-69.5 187t69.5 187t176.5 73
t176.5 -73t69.5 -187zM283 422q-61 0 -99.5 -35.5t-47.5 -98.5h294q-9 63 -48 98.5t-99 35.5z" />
    <glyph glyph-name="Eogonek" unicode="&#x118;" horiz-adv-x="454" 
d="M410 92v-92h-82q-82 -110 -82 -158q0 -40 44 -40q41 0 47 38h73q0 -42 -33.5 -68t-88.5 -26q-52 0 -83 23.5t-31 63.5q0 13 4.5 27.5t9.5 26t16.5 28.5t18 26.5t22.5 30t22 28.5h-193v750h336v-92h-236v-226h216v-92h-216v-248h236z" />
    <glyph glyph-name="eogonek" unicode="&#x119;" horiz-adv-x="566" 
d="M529 250q0 -12 -2 -34h-392q9 -65 49 -101.5t103 -36.5q89 0 121 72h108q-10 -42 -51 -103t-75.5 -114.5t-34.5 -85.5q0 -45 50 -45q41 0 49 38h61q-1 -38 -31.5 -64t-78.5 -26q-50 0 -80 24t-30 65q0 13 2 26t8.5 26.5t11 23t15.5 25t16 22.5t19.5 25.5t18.5 23.5
q-50 -21 -103 -21q-107 0 -176.5 73t-69.5 187t69.5 187t176.5 73t176.5 -73t69.5 -187zM283 422q-61 0 -99.5 -35.5t-47.5 -98.5h294q-9 63 -48 98.5t-99 35.5z" />
    <glyph glyph-name="Ecaron" unicode="&#x11a;" horiz-adv-x="454" 
d="M405 970l-104 -150h-110l-104 150h83l76 -87l76 87h83zM74 0v750h336v-92h-236v-226h216v-92h-216v-248h236v-92h-336z" />
    <glyph glyph-name="ecaron" unicode="&#x11b;" horiz-adv-x="566" 
d="M442 750l-104 -150h-110l-104 150h83l76 -87l76 87h83zM529 250q0 -12 -2 -34h-392q9 -65 49 -101.5t103 -36.5q89 0 121 72h108q-23 -77 -84.5 -118.5t-148.5 -41.5q-107 0 -176.5 73t-69.5 187t69.5 187t176.5 73t176.5 -73t69.5 -187zM283 422q-61 0 -99.5 -35.5
t-47.5 -98.5h294q-9 63 -48 98.5t-99 35.5z" />
    <glyph glyph-name="Gcircumflex" unicode="&#x11c;" horiz-adv-x="575" 
d="M208 820h-83l104 150h110l104 -150h-83l-76 87zM270 395h236v-395h-90v89q-42 -99 -150 -99q-96 0 -149 65t-53 191v258q0 126 58 191t163 65t163 -65t58 -191v-30h-100v30q0 87 -31 125.5t-90 38.5q-121 0 -121 -164v-258q0 -87 31 -125.5t90 -38.5q121 0 121 156v65
h-136v92z" />
    <glyph glyph-name="gcircumflex" unicode="&#x11d;" horiz-adv-x="615" 
d="M209 600h-83l104 150h110l104 -150h-83l-76 87zM541 -4q0 -112 -71 -184t-175 -72q-98 0 -165 59.5t-81 156.5h101q10 -57 48.5 -90.5t96.5 -33.5q68 0 107 45.5t39 118.5v79q-63 -85 -164 -85q-103 0 -171.5 73t-68.5 187t68.5 187t171.5 73q101 0 164 -85v75h100v-504z
M289 82q66 0 109 46.5t43 121.5t-43 121.5t-109 46.5t-109 -46.5t-43 -121.5t43 -121.5t109 -46.5z" />
    <glyph glyph-name="Gbreve" unicode="&#x11e;" horiz-adv-x="575" 
d="M357 970h79q0 -70 -41.5 -110t-109.5 -40t-109 40t-41 110h79q0 -39 20.5 -58.5t50.5 -19.5q72 0 72 78zM270 395h236v-395h-90v89q-42 -99 -150 -99q-96 0 -149 65t-53 191v258q0 126 58 191t163 65t163 -65t58 -191v-30h-100v30q0 87 -31 125.5t-90 38.5
q-121 0 -121 -164v-258q0 -87 31 -125.5t90 -38.5q121 0 121 156v65h-136v92z" />
    <glyph glyph-name="gbreve" unicode="&#x11f;" horiz-adv-x="615" 
d="M357 750h79q0 -70 -41.5 -110t-109.5 -40t-109 40t-41 110h79q0 -39 20.5 -58.5t50.5 -19.5q72 0 72 78zM541 -4q0 -112 -71 -184t-175 -72q-98 0 -165 59.5t-81 156.5h101q10 -57 48.5 -90.5t96.5 -33.5q68 0 107 45.5t39 118.5v79q-63 -85 -164 -85q-103 0 -171.5 73
t-68.5 187t68.5 187t171.5 73q101 0 164 -85v75h100v-504zM289 82q66 0 109 46.5t43 121.5t-43 121.5t-109 46.5t-109 -46.5t-43 -121.5t43 -121.5t109 -46.5z" />
    <glyph glyph-name="Gdotaccent" unicode="&#x120;" horiz-adv-x="575" 
d="M285 829q-28 0 -47 19t-19 47q0 29 18.5 47.5t47.5 18.5t47.5 -18.5t18.5 -47.5q0 -28 -18.5 -47t-47.5 -19zM270 395h236v-395h-90v89q-42 -99 -150 -99q-96 0 -149 65t-53 191v258q0 126 58 191t163 65t163 -65t58 -191v-30h-100v30q0 87 -31 125.5t-90 38.5
q-121 0 -121 -164v-258q0 -87 31 -125.5t90 -38.5q121 0 121 156v65h-136v92z" />
    <glyph glyph-name="gdotaccent" unicode="&#x121;" horiz-adv-x="615" 
d="M285 609q-28 0 -47 19t-19 47q0 29 18.5 47.5t47.5 18.5t47.5 -18.5t18.5 -47.5q0 -28 -18.5 -47t-47.5 -19zM541 -4q0 -112 -71 -184t-175 -72q-98 0 -165 59.5t-81 156.5h101q10 -57 48.5 -90.5t96.5 -33.5q68 0 107 45.5t39 118.5v79q-63 -85 -164 -85
q-103 0 -171.5 73t-68.5 187t68.5 187t171.5 73q101 0 164 -85v75h100v-504zM289 82q66 0 109 46.5t43 121.5t-43 121.5t-109 46.5t-109 -46.5t-43 -121.5t43 -121.5t109 -46.5z" />
    <glyph glyph-name="Gcommaaccent" unicode="&#x122;" horiz-adv-x="575" 
d="M270 395h236v-395h-90v89q-42 -99 -150 -99q-96 0 -149 65t-53 191v258q0 126 58 191t163 65t163 -65t58 -191v-30h-100v30q0 87 -31 125.5t-90 38.5q-121 0 -121 -164v-258q0 -87 31 -125.5t90 -38.5q121 0 121 156v65h-136v92zM252 -210h-67l30 150h103z" />
    <glyph glyph-name="gcommaaccent" unicode="&#x123;" horiz-adv-x="615" 
d="M307 780h67l-30 -150h-103zM541 -4q0 -112 -71 -184t-175 -72q-98 0 -165 59.5t-81 156.5h101q10 -57 48.5 -90.5t96.5 -33.5q68 0 107 45.5t39 118.5v79q-63 -85 -164 -85q-103 0 -171.5 73t-68.5 187t68.5 187t171.5 73q101 0 164 -85v75h100v-504zM289 82
q66 0 109 46.5t43 121.5t-43 121.5t-109 46.5t-109 -46.5t-43 -121.5t43 -121.5t109 -46.5z" />
    <glyph glyph-name="Hcircumflex" unicode="&#x124;" horiz-adv-x="590" 
d="M218 820h-83l104 150h110l104 -150h-83l-76 87zM416 0v340h-242v-340h-100v750h100v-318h242v318h100v-750h-100z" />
    <glyph glyph-name="hcircumflex" unicode="&#x125;" horiz-adv-x="585" 
d="M219 820h-83l104 150h110l104 -150h-83l-76 87zM174 273v-273h-100v750h100v-329q48 89 152 89q85 0 137.5 -55.5t52.5 -161.5v-293h-100v273q0 73 -32 111t-89 38t-89 -38t-32 -111z" />
    <glyph glyph-name="Hbar" unicode="&#x126;" horiz-adv-x="590" 
d="M416 0v340h-242v-340h-100v558h-74v68h74v124h100v-124h242v124h100v-124h74v-68h-74v-558h-100zM174 432h242v126h-242v-126z" />
    <glyph glyph-name="hbar" unicode="&#x127;" horiz-adv-x="585" 
d="M174 273v-273h-100v600h-74v60h74v90h100v-90h145v-60h-145v-179q48 89 152 89q85 0 137.5 -55.5t52.5 -161.5v-293h-100v273q0 73 -32 111t-89 38t-89 -38t-32 -111z" />
    <glyph glyph-name="Itilde" unicode="&#x128;" horiz-adv-x="248" 
d="M-40 822v50q0 96 82 96q35 0 81.5 -34t64.5 -34q32 0 32 39v27h68v-50q0 -96 -82 -96q-35 0 -81.5 34t-64.5 34q-32 0 -32 -39v-27h-68zM174 0h-100v750h100v-750z" />
    <glyph glyph-name="itilde" unicode="&#x129;" horiz-adv-x="248" 
d="M-40 602v50q0 96 82 96q35 0 81.5 -34t64.5 -34q32 0 32 39v27h68v-50q0 -96 -82 -96q-35 0 -81.5 34t-64.5 34q-32 0 -32 -39v-27h-68zM174 0h-100v500h100v-500z" />
    <glyph glyph-name="Imacron" unicode="&#x12a;" horiz-adv-x="248" 
d="M266 903v-67h-276v67h276zM174 0h-100v750h100v-750z" />
    <glyph glyph-name="imacron" unicode="&#x12b;" horiz-adv-x="248" 
d="M266 683v-67h-276v67h276zM174 0h-100v500h100v-500z" />
    <glyph glyph-name="Ibreve" unicode="&#x12c;" horiz-adv-x="248" 
d="M196 970h79q0 -70 -41.5 -110t-109.5 -40t-109 40t-41 110h79q0 -39 20.5 -58.5t50.5 -19.5q72 0 72 78zM174 0h-100v750h100v-750z" />
    <glyph glyph-name="ibreve" unicode="&#x12d;" horiz-adv-x="248" 
d="M196 750h79q0 -70 -41.5 -110t-109.5 -40t-109 40t-41 110h79q0 -39 20.5 -58.5t50.5 -19.5q72 0 72 78zM174 0h-100v500h100v-500z" />
    <glyph glyph-name="Iogonek" unicode="&#x12e;" horiz-adv-x="248" 
d="M6 -167q0 9 1.5 18t5.5 19.5t6.5 17.5t10 19t11 18t14 19.5t13.5 17.5t15.5 19.5t14.5 18.5h-24v750h100v-750h-16q-80 -105 -80 -158q0 -40 44 -40q41 0 47 38h73q0 -42 -33.5 -68t-88.5 -26q-52 0 -83 23.5t-31 63.5z" />
    <glyph glyph-name="iogonek" unicode="&#x12f;" horiz-adv-x="248" 
d="M124 609q-28 0 -47 19t-19 48q0 28 19 47t47 19q29 0 47.5 -18.5t18.5 -47.5t-18.5 -48t-47.5 -19zM5 -167q0 13 4.5 27.5t9.5 26t16.5 28.5t18 26.5t22.5 30t22 28.5h-24v500h100v-500h-16q-81 -111 -81 -158q0 -40 44 -40q41 0 47 38h73q0 -42 -33.5 -68t-88.5 -26
q-51 0 -82.5 23.5t-31.5 63.5z" />
    <glyph glyph-name="Idotaccent" unicode="&#x130;" horiz-adv-x="248" 
d="M124 829q-28 0 -47 19t-19 47q0 29 19 47.5t47 18.5q29 0 47.5 -18.5t18.5 -47.5q0 -28 -18.5 -47t-47.5 -19zM174 0h-100v750h100v-750z" />
    <glyph glyph-name="dotlessi" unicode="&#x131;" horiz-adv-x="248" 
d="M174 0h-100v500h100v-500z" />
    <glyph glyph-name="IJ" unicode="&#x132;" horiz-adv-x="754" 
d="M174 0h-100v750h100v-750zM590 750h100v-552q0 -100 -56 -154t-145 -54t-145 54t-56 154v64h100v-56q0 -124 101 -124t101 124v544z" />
    <glyph glyph-name="ij" unicode="&#x133;" horiz-adv-x="496" 
d="M124 609q-28 0 -47 19t-19 48q0 28 19 47t47 19q29 0 47.5 -18.5t18.5 -47.5t-18.5 -48t-47.5 -19zM372 609q-28 0 -47 19t-19 48q0 28 19 47t47 19q29 0 47.5 -18.5t18.5 -47.5t-18.5 -48t-47.5 -19zM174 0h-100v500h100v-500zM322 -87v587h100v-589q0 -161 -160 -161
q-34 0 -50 4v91q16 -3 37 -3q36 0 54.5 15.5t18.5 55.5z" />
    <glyph glyph-name="Jcircumflex" unicode="&#x134;" horiz-adv-x="506" 
d="M315 820h-83l104 150h110l104 -150h-83l-76 87zM342 750h100v-552q0 -100 -56 -154t-145 -54t-145 54t-56 154v64h100v-56q0 -124 101 -124t101 124v544z" />
    <glyph glyph-name="jcircumflex" unicode="&#x135;" horiz-adv-x="248" 
d="M48 600h-83l104 150h110l104 -150h-83l-76 87zM74 -87v587h100v-589q0 -161 -160 -161q-34 0 -50 4v91q16 -3 37 -3q36 0 54.5 15.5t18.5 55.5z" />
    <glyph glyph-name="Kcommaaccent" unicode="&#x136;" horiz-adv-x="519" 
d="M395 0l-221 369v-369h-100v750h100v-365l219 365h110l-225 -359l237 -391h-120zM246 -210h-67l30 150h103z" />
    <glyph glyph-name="kcommaaccent" unicode="&#x137;" horiz-adv-x="552" 
d="M413 0l-239 263v-263h-100v750h100v-472l215 222h133l-235 -228l253 -272h-127zM262 -210h-67l30 150h103z" />
    <glyph glyph-name="Lacute" unicode="&#x139;" horiz-adv-x="434" 
d="M171 820h-83l64 150h111zM418 92v-92h-344v750h100v-658h244z" />
    <glyph glyph-name="lacute" unicode="&#x13a;" horiz-adv-x="248" 
d="M167 820h-83l64 150h111zM174 0h-100v750h100v-750z" />
    <glyph glyph-name="Lcommaaccent" unicode="&#x13b;" horiz-adv-x="434" 
d="M418 92v-92h-344v750h100v-658h244zM236 -210h-67l30 150h103z" />
    <glyph glyph-name="lcommaaccent" unicode="&#x13c;" horiz-adv-x="248" 
d="M174 0h-100v750h100v-750zM110 -210h-67l30 150h103z" />
    <glyph glyph-name="Lcaron" unicode="&#x13d;" horiz-adv-x="434" 
d="M418 92v-92h-344v750h100v-658h244zM248 750h97l-44 -185h-57z" />
    <glyph glyph-name="lcaron" unicode="&#x13e;" horiz-adv-x="248" 
d="M174 0h-100v750h100v-750zM240 750h97l-44 -185h-57z" />
    <glyph glyph-name="Ldot" unicode="&#x13f;" horiz-adv-x="434" 
d="M418 92v-92h-344v750h100v-658h244zM339 323q-28 0 -47 19t-19 47q0 29 18.5 47.5t47.5 18.5t47.5 -18.5t18.5 -47.5q0 -28 -18.5 -47t-47.5 -19z" />
    <glyph glyph-name="ldot" unicode="&#x140;" horiz-adv-x="248" 
d="M174 0h-100v750h100v-750zM280 319q-28 0 -47 19t-19 47q0 29 19 47.5t47 18.5q29 0 47.5 -18.5t18.5 -47.5q0 -28 -18.5 -47t-47.5 -19z" />
    <glyph glyph-name="Lslash" unicode="&#x141;" horiz-adv-x="434" 
d="M418 92v-92h-344v292l-74 -46v84l74 46v374h100v-312l116 72v-84l-116 -72v-262h244z" />
    <glyph glyph-name="lslash" unicode="&#x142;" horiz-adv-x="248" 
d="M248 426l-74 -48v-378h-100v313l-74 -48v84l74 48v353h100v-288l74 48v-84z" />
    <glyph glyph-name="Nacute" unicode="&#x143;" horiz-adv-x="590" 
d="M342 820h-83l64 150h111zM516 750v-750h-165l-185 687v-687h-92v750h167l183 -679v679h92z" />
    <glyph glyph-name="nacute" unicode="&#x144;" horiz-adv-x="585" 
d="M343 600h-83l64 150h111zM174 273v-273h-100v500h100v-79q48 89 152 89q85 0 137.5 -55.5t52.5 -161.5v-293h-100v273q0 73 -32 111t-89 38t-89 -38t-32 -111z" />
    <glyph glyph-name="Ncommaaccent" unicode="&#x145;" horiz-adv-x="590" 
d="M516 750v-750h-165l-185 687v-687h-92v750h167l183 -679v679h92zM281 -210h-67l30 150h103z" />
    <glyph glyph-name="ncommaaccent" unicode="&#x146;" horiz-adv-x="585" 
d="M174 273v-273h-100v500h100v-79q48 89 152 89q85 0 137.5 -55.5t52.5 -161.5v-293h-100v273q0 73 -32 111t-89 38t-89 -38t-32 -111zM282 -210h-67l30 150h103z" />
    <glyph glyph-name="Ncaron" unicode="&#x147;" horiz-adv-x="590" 
d="M453 970l-104 -150h-110l-104 150h83l76 -87l76 87h83zM516 750v-750h-165l-185 687v-687h-92v750h167l183 -679v679h92z" />
    <glyph glyph-name="ncaron" unicode="&#x148;" horiz-adv-x="585" 
d="M455 750l-104 -150h-110l-104 150h83l76 -87l76 87h83zM174 273v-273h-100v500h100v-79q48 89 152 89q85 0 137.5 -55.5t52.5 -161.5v-293h-100v273q0 73 -32 111t-89 38t-89 -38t-32 -111z" />
    <glyph glyph-name="Eng" unicode="&#x14a;" horiz-adv-x="590" 
d="M74 0v750h167l183 -670v670h92v-819q0 -181 -176 -181q-34 0 -50 4v91q17 -3 37 -3q97 0 97 91v67h-73l-185 677v-677h-92z" />
    <glyph glyph-name="eng" unicode="&#x14b;" horiz-adv-x="585" 
d="M326 510q85 0 137.5 -55.5t52.5 -161.5v-366q0 -177 -175 -177q-33 0 -51 4v91q18 -3 38 -3q43 0 65.5 19t22.5 68v344q0 73 -32 111t-89 38t-89 -38t-32 -111v-273h-100v500h100v-79q48 89 152 89z" />
    <glyph glyph-name="Omacron" unicode="&#x14c;" horiz-adv-x="570" 
d="M427 903v-67h-276v67h276zM285 -10q-105 0 -163 64.5t-58 191.5v258q0 126 58 191t163 65t163 -65t58 -191v-258q0 -127 -58 -191.5t-163 -64.5zM285 82q59 0 90 38.5t31 125.5v258q0 87 -31 125.5t-90 38.5q-121 0 -121 -164v-258q0 -87 30.5 -125.5t90.5 -38.5z" />
    <glyph glyph-name="omacron" unicode="&#x14d;" horiz-adv-x="580" 
d="M432 683v-67h-276v67h276zM290 -10q-109 0 -181 73t-72 187t72 187t181 73t181 -73t72 -187t-72 -187t-181 -73zM290 82q66 0 109.5 46.5t43.5 121.5t-43.5 121.5t-109.5 46.5t-109.5 -46.5t-43.5 -121.5t43.5 -121.5t109.5 -46.5z" />
    <glyph glyph-name="Obreve" unicode="&#x14e;" horiz-adv-x="570" 
d="M357 970h79q0 -70 -41.5 -110t-109.5 -40t-109 40t-41 110h79q0 -39 20.5 -58.5t50.5 -19.5q72 0 72 78zM285 -10q-105 0 -163 64.5t-58 191.5v258q0 126 58 191t163 65t163 -65t58 -191v-258q0 -127 -58 -191.5t-163 -64.5zM285 82q59 0 90 38.5t31 125.5v258
q0 87 -31 125.5t-90 38.5q-121 0 -121 -164v-258q0 -87 30.5 -125.5t90.5 -38.5z" />
    <glyph glyph-name="obreve" unicode="&#x14f;" horiz-adv-x="580" 
d="M362 750h79q0 -70 -41.5 -110t-109.5 -40t-109 40t-41 110h79q0 -39 20.5 -58.5t50.5 -19.5q72 0 72 78zM290 -10q-109 0 -181 73t-72 187t72 187t181 73t181 -73t72 -187t-72 -187t-181 -73zM290 82q66 0 109.5 46.5t43.5 121.5t-43.5 121.5t-109.5 46.5t-109.5 -46.5
t-43.5 -121.5t43.5 -121.5t109.5 -46.5z" />
    <glyph glyph-name="Ohungarumlaut" unicode="&#x150;" horiz-adv-x="570" 
d="M234 820h-67l30 150h103zM414 820h-67l30 150h103zM285 -10q-105 0 -163 64.5t-58 191.5v258q0 126 58 191t163 65t163 -65t58 -191v-258q0 -127 -58 -191.5t-163 -64.5zM285 82q59 0 90 38.5t31 125.5v258q0 87 -31 125.5t-90 38.5q-121 0 -121 -164v-258
q0 -87 30.5 -125.5t90.5 -38.5z" />
    <glyph glyph-name="ohungarumlaut" unicode="&#x151;" horiz-adv-x="580" 
d="M239 600h-67l30 150h103zM419 600h-67l30 150h103zM290 -10q-109 0 -181 73t-72 187t72 187t181 73t181 -73t72 -187t-72 -187t-181 -73zM290 82q66 0 109.5 46.5t43.5 121.5t-43.5 121.5t-109.5 46.5t-109.5 -46.5t-43.5 -121.5t43.5 -121.5t109.5 -46.5z" />
    <glyph glyph-name="OE" unicode="&#x152;" horiz-adv-x="776" 
d="M289 0q-100 0 -162.5 67t-62.5 191v234q0 124 62.5 191t162.5 67h443v-92h-236v-226h216v-92h-216v-248h236v-92h-443zM289 658q-125 0 -125 -174v-218q0 -174 125 -174h107v566h-107z" />
    <glyph glyph-name="oe" unicode="&#x153;" horiz-adv-x="976" 
d="M939 250q0 -12 -2 -34h-392q9 -65 49 -101.5t103 -36.5q89 0 121 72h108q-23 -77 -84.5 -118.5t-148.5 -41.5q-64 0 -116.5 28t-85.5 77q-33 -49 -85.5 -77t-115.5 -28q-109 0 -181 73t-72 187t72 187t181 73q63 0 115.5 -28t85.5 -77q33 49 85.5 77t116.5 28
q107 0 176.5 -73t69.5 -187zM693 422q-61 0 -99.5 -35.5t-47.5 -98.5h294q-9 63 -48 98.5t-99 35.5zM290 82q66 0 109.5 46.5t43.5 121.5t-43.5 121.5t-109.5 46.5t-109.5 -46.5t-43.5 -121.5t43.5 -121.5t109.5 -46.5z" />
    <glyph glyph-name="Racute" unicode="&#x154;" 
d="M317 820h-83l64 150h111zM74 0v750h220q94 0 151.5 -49.5t57.5 -140.5v-30q0 -89 -55.5 -137.5t-143.5 -53.5l222 -339h-120l-232 367v-367h-100zM284 658h-110v-236h110q119 0 119 118v10q0 108 -119 108z" />
    <glyph glyph-name="racute" unicode="&#x155;" horiz-adv-x="403" 
d="M278 600h-83l64 150h111zM174 251v-251h-100v500h100v-90q55 100 173 100q20 0 32 -3v-109q-24 8 -53 8q-73 0 -112.5 -39.5t-39.5 -115.5z" />
    <glyph glyph-name="Rcommaaccent" unicode="&#x156;" 
d="M74 0v750h220q94 0 151.5 -49.5t57.5 -140.5v-30q0 -89 -55.5 -137.5t-143.5 -53.5l222 -339h-120l-232 367v-367h-100zM284 658h-110v-236h110q119 0 119 118v10q0 108 -119 108zM250 -210h-67l30 150h103z" />
    <glyph glyph-name="rcommaaccent" unicode="&#x157;" horiz-adv-x="403" 
d="M174 251v-251h-100v500h100v-90q55 100 173 100q20 0 32 -3v-109q-24 8 -53 8q-73 0 -112.5 -39.5t-39.5 -115.5zM110 -210h-67l30 150h103z" />
    <glyph glyph-name="Rcaron" unicode="&#x158;" 
d="M428 970l-104 -150h-110l-104 150h83l76 -87l76 87h83zM74 0v750h220q94 0 151.5 -49.5t57.5 -140.5v-30q0 -89 -55.5 -137.5t-143.5 -53.5l222 -339h-120l-232 367v-367h-100zM284 658h-110v-236h110q119 0 119 118v10q0 108 -119 108z" />
    <glyph glyph-name="rcaron" unicode="&#x159;" horiz-adv-x="403" 
d="M390 750l-104 -150h-110l-104 150h83l76 -87l76 87h83zM174 251v-251h-100v500h100v-90q55 100 173 100q20 0 32 -3v-109q-24 8 -53 8q-73 0 -112.5 -39.5t-39.5 -115.5z" />
    <glyph glyph-name="Sacute" unicode="&#x15a;" horiz-adv-x="485" 
d="M291 820h-83l64 150h111zM55 576q0 93 52.5 138.5t136.5 45.5t137.5 -51.5t53.5 -148.5v-46h-100v43q0 111 -91 111q-41 0 -65 -24t-24 -68q0 -41 22.5 -69.5t65.5 -57.5l81 -58q58 -41 90 -87.5t32 -113.5q0 -96 -56.5 -148t-144.5 -52q-87 0 -144 53t-57 147v56h100
v-49q0 -53 27.5 -84t73.5 -31q47 0 74 25.5t27 70.5q0 76 -89 137l-79 55q-58 40 -90.5 88.5t-32.5 117.5z" />
    <glyph glyph-name="sacute" unicode="&#x15b;" horiz-adv-x="504" 
d="M297 600h-83l64 150h111zM460 141q0 -69 -55.5 -110t-144.5 -41q-95 0 -155.5 45.5t-60.5 125.5h104q0 -44 31 -68t81 -24q97 0 97 68q0 33 -31 50t-75.5 24.5t-89.5 19t-76 44t-31 88.5q0 67 54 107t137 40q88 0 146.5 -47t58.5 -116h-104q0 36 -28.5 59.5t-72.5 23.5
q-41 0 -65.5 -16.5t-24.5 -46.5t31.5 -46t76.5 -23.5t89.5 -20t76 -46t31.5 -90.5z" />
    <glyph glyph-name="Scircumflex" unicode="&#x15c;" horiz-adv-x="485" 
d="M167 820h-83l104 150h110l104 -150h-83l-76 87zM55 576q0 93 52.5 138.5t136.5 45.5t137.5 -51.5t53.5 -148.5v-46h-100v43q0 111 -91 111q-41 0 -65 -24t-24 -68q0 -41 22.5 -69.5t65.5 -57.5l81 -58q58 -41 90 -87.5t32 -113.5q0 -96 -56.5 -148t-144.5 -52
q-87 0 -144 53t-57 147v56h100v-49q0 -53 27.5 -84t73.5 -31q47 0 74 25.5t27 70.5q0 76 -89 137l-79 55q-58 40 -90.5 88.5t-32.5 117.5z" />
    <glyph glyph-name="scircumflex" unicode="&#x15d;" horiz-adv-x="504" 
d="M174 600h-83l104 150h110l104 -150h-83l-76 87zM460 141q0 -69 -55.5 -110t-144.5 -41q-95 0 -155.5 45.5t-60.5 125.5h104q0 -44 31 -68t81 -24q97 0 97 68q0 33 -31 50t-75.5 24.5t-89.5 19t-76 44t-31 88.5q0 67 54 107t137 40q88 0 146.5 -47t58.5 -116h-104
q0 36 -28.5 59.5t-72.5 23.5q-41 0 -65.5 -16.5t-24.5 -46.5t31.5 -46t76.5 -23.5t89.5 -20t76 -46t31.5 -90.5z" />
    <glyph glyph-name="Scedilla" unicode="&#x15e;" horiz-adv-x="485" 
d="M355 -152q0 -42 -30.5 -70t-79.5 -28t-79.5 24t-30.5 58h61q5 -30 49 -30q22 0 36 13t14 33t-13.5 33t-35.5 13q-31 0 -43 -19h-62l74 117q-76 9 -123.5 61t-47.5 137v56h100v-49q0 -53 27.5 -84t73.5 -31q47 0 74 25.5t27 70.5q0 76 -89 137l-79 55q-58 40 -90.5 88.5
t-32.5 117.5q0 93 52.5 138.5t136.5 45.5t137.5 -51.5t53.5 -148.5v-46h-100v43q0 111 -91 111q-41 0 -65 -24t-24 -68q0 -41 22.5 -69.5t65.5 -57.5l81 -58q58 -41 90 -87.5t32 -113.5q0 -88 -47 -138.5t-124 -59.5l-32 -46h11q45 0 73 -28.5t28 -69.5z" />
    <glyph glyph-name="scedilla" unicode="&#x15f;" horiz-adv-x="504" 
d="M370 -152q0 -42 -30.5 -70t-79.5 -28t-79.5 24t-30.5 58h61q5 -30 49 -30q22 0 36 13t14 33t-13.5 33t-35.5 13q-31 0 -43 -19h-62l74 116q-84 8 -135 52.5t-51 117.5h104q0 -44 31 -68t81 -24q97 0 97 68q0 33 -31 50t-75.5 24.5t-89.5 19t-76 44t-31 88.5q0 67 54 107
t137 40q88 0 146.5 -47t58.5 -116h-104q0 35 -29 59t-72 24q-41 0 -65.5 -16.5t-24.5 -46.5t31.5 -46t76.5 -23.5t89.5 -20t76 -46t31.5 -90.5q0 -63 -46.5 -103t-123.5 -47l-32 -45h11q45 0 73 -28.5t28 -69.5z" />
    <glyph glyph-name="Scaron" unicode="&#x160;" horiz-adv-x="485" 
d="M402 970l-104 -150h-110l-104 150h83l76 -87l76 87h83zM55 576q0 93 52.5 138.5t136.5 45.5t137.5 -51.5t53.5 -148.5v-46h-100v43q0 111 -91 111q-41 0 -65 -24t-24 -68q0 -41 22.5 -69.5t65.5 -57.5l81 -58q58 -41 90 -87.5t32 -113.5q0 -96 -56.5 -148t-144.5 -52
q-87 0 -144 53t-57 147v56h100v-49q0 -53 27.5 -84t73.5 -31q47 0 74 25.5t27 70.5q0 76 -89 137l-79 55q-58 40 -90.5 88.5t-32.5 117.5z" />
    <glyph glyph-name="scaron" unicode="&#x161;" horiz-adv-x="504" 
d="M409 750l-104 -150h-110l-104 150h83l76 -87l76 87h83zM460 141q0 -69 -55.5 -110t-144.5 -41q-95 0 -155.5 45.5t-60.5 125.5h104q0 -44 31 -68t81 -24q97 0 97 68q0 33 -31 50t-75.5 24.5t-89.5 19t-76 44t-31 88.5q0 67 54 107t137 40q88 0 146.5 -47t58.5 -116h-104
q0 36 -28.5 59.5t-72.5 23.5q-41 0 -65.5 -16.5t-24.5 -46.5t31.5 -46t76.5 -23.5t89.5 -20t76 -46t31.5 -90.5z" />
    <glyph glyph-name="Tcommaaccent" unicode="&#x162;" horiz-adv-x="434" 
d="M10 658v92h414v-92h-157v-658h-100v658h-157zM203 -210h-67l30 150h103z" />
    <glyph glyph-name="tcommaaccent" unicode="&#x163;" horiz-adv-x="390" 
d="M202 171q0 -46 20.5 -67.5t64.5 -21.5q33 0 59 9v-89q-36 -12 -78 -12q-79 0 -122.5 39.5t-43.5 135.5v247h-82v88h82v148h100v-148h144v-88h-144v-241zM218 -210h-67l30 150h103z" />
    <glyph glyph-name="Tcaron" unicode="&#x164;" horiz-adv-x="434" 
d="M375 970l-104 -150h-110l-104 150h83l76 -87l76 87h83zM10 658v92h414v-92h-157v-658h-100v658h-157z" />
    <glyph glyph-name="tcaron" unicode="&#x165;" horiz-adv-x="390" 
d="M278 750h97l-44 -185h-57zM202 171q0 -46 20.5 -67.5t64.5 -21.5q33 0 59 9v-89q-36 -12 -78 -12q-79 0 -122.5 39.5t-43.5 135.5v247h-82v88h82v148h100v-148h144v-88h-144v-241z" />
    <glyph glyph-name="Tbar" unicode="&#x166;" horiz-adv-x="434" 
d="M10 658v92h414v-92h-157v-158h110v-67h-110v-433h-100v433h-110v67h110v158h-157z" />
    <glyph glyph-name="tbar" unicode="&#x167;" horiz-adv-x="390" 
d="M346 2q-36 -12 -78 -12q-79 0 -122.5 39.5t-43.5 135.5v93h-59v59h59v95h-82v88h82v148h100v-148h144v-88h-144v-95h111v-59h-111v-87q0 -46 20.5 -67.5t64.5 -21.5q33 0 59 9v-89z" />
    <glyph glyph-name="Utilde" unicode="&#x168;" horiz-adv-x="570" 
d="M121 822v50q0 96 82 96q35 0 81.5 -34t64.5 -34q32 0 32 39v27h68v-50q0 -96 -82 -96q-35 0 -81.5 34t-64.5 34q-32 0 -32 -39v-27h-68zM69 750h100v-519q0 -80 29.5 -114.5t86.5 -34.5t86.5 35t29.5 114v519h100v-519q0 -120 -56.5 -180.5t-159.5 -60.5t-159.5 60.5
t-56.5 180.5v519z" />
    <glyph glyph-name="utilde" unicode="&#x169;" horiz-adv-x="580" 
d="M121 602v50q0 96 82 96q35 0 81.5 -34t64.5 -34q32 0 32 39v27h68v-50q0 -96 -82 -96q-35 0 -81.5 34t-64.5 34q-32 0 -32 -39v-27h-68zM406 0v80q-47 -90 -149 -90q-84 0 -136 56t-52 163v291h100v-271q0 -74 31.5 -112.5t87.5 -38.5t87 38.5t31 112.5v271h100v-500
h-100z" />
    <glyph glyph-name="Umacron" unicode="&#x16a;" horiz-adv-x="570" 
d="M427 903v-67h-276v67h276zM69 750h100v-519q0 -80 29.5 -114.5t86.5 -34.5t86.5 35t29.5 114v519h100v-519q0 -120 -56.5 -180.5t-159.5 -60.5t-159.5 60.5t-56.5 180.5v519z" />
    <glyph glyph-name="umacron" unicode="&#x16b;" horiz-adv-x="580" 
d="M427 683v-67h-276v67h276zM406 0v80q-47 -90 -149 -90q-84 0 -136 56t-52 163v291h100v-271q0 -74 31.5 -112.5t87.5 -38.5t87 38.5t31 112.5v271h100v-500h-100z" />
    <glyph glyph-name="Ubreve" unicode="&#x16c;" horiz-adv-x="570" 
d="M357 970h79q0 -70 -41.5 -110t-109.5 -40t-109 40t-41 110h79q0 -39 20.5 -58.5t50.5 -19.5q72 0 72 78zM69 750h100v-519q0 -80 29.5 -114.5t86.5 -34.5t86.5 35t29.5 114v519h100v-519q0 -120 -56.5 -180.5t-159.5 -60.5t-159.5 60.5t-56.5 180.5v519z" />
    <glyph glyph-name="ubreve" unicode="&#x16d;" horiz-adv-x="580" 
d="M357 750h79q0 -70 -41.5 -110t-109.5 -40t-109 40t-41 110h79q0 -39 20.5 -58.5t50.5 -19.5q72 0 72 78zM406 0v80q-47 -90 -149 -90q-84 0 -136 56t-52 163v291h100v-271q0 -74 31.5 -112.5t87.5 -38.5t87 38.5t31 112.5v271h100v-500h-100z" />
    <glyph glyph-name="Uring" unicode="&#x16e;" horiz-adv-x="570" 
d="M285 790q-46 0 -75 27.5t-29 67.5t29 67.5t75 27.5t75.5 -27.5t29.5 -67.5t-29.5 -67.5t-75.5 -27.5zM285 842q20 0 32.5 12t12.5 31t-12.5 31t-32.5 12q-18 0 -31 -12.5t-13 -30.5t13 -30.5t31 -12.5zM69 750h100v-519q0 -80 29.5 -114.5t86.5 -34.5t86.5 35t29.5 114
v519h100v-519q0 -120 -56.5 -180.5t-159.5 -60.5t-159.5 60.5t-56.5 180.5v519z" />
    <glyph glyph-name="uring" unicode="&#x16f;" horiz-adv-x="580" 
d="M285 570q-46 0 -75 27.5t-29 67.5t29 67.5t75 27.5t75.5 -27.5t29.5 -67.5t-29.5 -67.5t-75.5 -27.5zM285 622q20 0 32.5 12t12.5 31t-12.5 31t-32.5 12q-18 0 -31 -12.5t-13 -30.5t13 -30.5t31 -12.5zM406 0v80q-47 -90 -149 -90q-84 0 -136 56t-52 163v291h100v-271
q0 -74 31.5 -112.5t87.5 -38.5t87 38.5t31 112.5v271h100v-500h-100z" />
    <glyph glyph-name="Uhungarumlaut" unicode="&#x170;" horiz-adv-x="570" 
d="M234 820h-67l30 150h103zM414 820h-67l30 150h103zM69 750h100v-519q0 -80 29.5 -114.5t86.5 -34.5t86.5 35t29.5 114v519h100v-519q0 -120 -56.5 -180.5t-159.5 -60.5t-159.5 60.5t-56.5 180.5v519z" />
    <glyph glyph-name="uhungarumlaut" unicode="&#x171;" horiz-adv-x="580" 
d="M234 600h-67l30 150h103zM414 600h-67l30 150h103zM406 0v80q-47 -90 -149 -90q-84 0 -136 56t-52 163v291h100v-271q0 -74 31.5 -112.5t87.5 -38.5t87 38.5t31 112.5v271h100v-500h-100z" />
    <glyph glyph-name="Uogonek" unicode="&#x172;" horiz-adv-x="570" 
d="M403 -160q0 -42 -33.5 -68t-88.5 -26q-51 0 -82.5 23.5t-31.5 63.5q0 11 2 21.5t8 23t10 21t15 23.5t15.5 21.5t18.5 25t18 23.5q-89 8 -137 68.5t-48 170.5v519h100v-519q0 -80 29.5 -114.5t86.5 -34.5t86.5 35t29.5 114v519h100v-519q0 -111 -48.5 -171.5t-137.5 -68.5
q-76 -103 -76 -149q0 -40 44 -40q41 0 47 38h73z" />
    <glyph glyph-name="uogonek" unicode="&#x173;" horiz-adv-x="580" 
d="M313 -166q0 11 2.5 22.5t8.5 24.5t11 22.5t16 24.5t16.5 23t19.5 25t19 24v80q-47 -90 -149 -90q-84 0 -136 56t-52 163v291h100v-271q0 -74 31.5 -112.5t87.5 -38.5t87 38.5t31 112.5v271h100v-500h-40q-81 -108 -81 -157q0 -41 44 -41q41 0 47 38h73q0 -42 -33.5 -68
t-88.5 -26q-52 0 -83 23.5t-31 64.5z" />
    <glyph glyph-name="Wcircumflex" unicode="&#x174;" horiz-adv-x="750" 
d="M298 820h-83l104 150h110l104 -150h-83l-76 87zM740 750l-115 -750h-150l-100 664l-100 -664h-150l-115 750h100l92 -651l98 651h150l98 -651l92 651h100z" />
    <glyph glyph-name="wcircumflex" unicode="&#x175;" horiz-adv-x="765" 
d="M304 600h-83l104 150h110l104 -150h-83l-76 87zM750 500l-135 -500h-126l-106 413l-107 -413h-126l-135 500h96l103 -413l105 413h127l105 -413l103 413h96z" />
    <glyph glyph-name="Ycircumflex" unicode="&#x176;" horiz-adv-x="480" 
d="M163 820h-83l104 150h110l104 -150h-83l-76 87zM290 302v-302h-100v302l-189 448h100l139 -344l139 344h100z" />
    <glyph glyph-name="ycircumflex" unicode="&#x177;" horiz-adv-x="501" 
d="M183 600h-83l104 150h110l104 -150h-83l-76 87zM298 -56q-17 -49 -34 -82.5t-42 -62.5t-59 -43t-79 -14q-40 0 -75 11v88q35 -11 66 -11q46 0 75 27t54 88l-198 555h100l145 -419l144 419h100z" />
    <glyph glyph-name="Ydieresis" unicode="&#x178;" horiz-adv-x="480" 
d="M140 837q-24 0 -41 17t-17 41t17 41t41 17q25 0 41.5 -17t16.5 -41t-16.5 -41t-41.5 -17zM340 837q-24 0 -41 17t-17 41t17 41t41 17q25 0 41.5 -17t16.5 -41t-16.5 -41t-41.5 -17zM290 302v-302h-100v302l-189 448h100l139 -344l139 344h100z" />
    <glyph glyph-name="Zacute" unicode="&#x179;" horiz-adv-x="440" 
d="M270 820h-83l64 150h111zM416 92v-92h-382v118l279 540h-274v92h367v-118l-278 -540h288z" />
    <glyph glyph-name="zacute" unicode="&#x17a;" horiz-adv-x="470" 
d="M280 600h-83l64 150h111zM441 88v-88h-402v114l285 298h-280v88h377v-114l-285 -298h305z" />
    <glyph glyph-name="Zdotaccent" unicode="&#x17b;" horiz-adv-x="440" 
d="M223 829q-28 0 -47 19t-19 47q0 29 18.5 47.5t47.5 18.5t47.5 -18.5t18.5 -47.5q0 -28 -18.5 -47t-47.5 -19zM416 92v-92h-382v118l279 540h-274v92h367v-118l-278 -540h288z" />
    <glyph glyph-name="zdotaccent" unicode="&#x17c;" horiz-adv-x="470" 
d="M233 609q-28 0 -47 19t-19 47q0 29 18.5 47.5t47.5 18.5t47.5 -18.5t18.5 -47.5q0 -28 -18.5 -47t-47.5 -19zM441 88v-88h-402v114l285 298h-280v88h377v-114l-285 -298h305z" />
    <glyph glyph-name="Zcaron" unicode="&#x17d;" horiz-adv-x="440" 
d="M381 970l-104 -150h-110l-104 150h83l76 -87l76 87h83zM416 92v-92h-382v118l279 540h-274v92h367v-118l-278 -540h288z" />
    <glyph glyph-name="zcaron" unicode="&#x17e;" horiz-adv-x="470" 
d="M392 750l-104 -150h-110l-104 150h83l76 -87l76 87h83zM441 88v-88h-402v114l285 298h-280v88h377v-114l-285 -298h305z" />
    <glyph glyph-name="florin" unicode="&#x192;" 
d="M434 336h-162l-124 -586h-100l124 586h-94v60h107l38 182q21 96 75 139t145 43q31 0 57 -8v-92q-19 8 -68 8q-90 0 -109 -93l-38 -179h149v-60z" />
    <glyph glyph-name="Aringacute" unicode="&#x1fa;" horiz-adv-x="510" 
d="M293 1020h-83l64 150h111zM255 790q-46 0 -75 27.5t-29 67.5t29 67.5t75 27.5t75.5 -27.5t29.5 -67.5t-29.5 -67.5t-75.5 -27.5zM255 842q20 0 32.5 12t12.5 31t-12.5 31t-32.5 12q-18 0 -31 -12.5t-13 -30.5t13 -30.5t31 -12.5zM12 0l168 750h150l168 -750h-101l-39 184
h-206l-39 -184h-101zM172 276h166l-83 394z" />
    <glyph glyph-name="aringacute" unicode="&#x1fb;" 
d="M322 820h-83l64 150h111zM277 570q-46 0 -75 27.5t-29 67.5t29 67.5t75 27.5t75.5 -27.5t29.5 -67.5t-29.5 -67.5t-75.5 -27.5zM277 622q20 0 32.5 12t12.5 31t-12.5 31t-32.5 12q-18 0 -31 -12.5t-13 -30.5t13 -30.5t31 -12.5zM387 0v84q-47 -94 -169 -94q-72 0 -121 36
t-49 106q0 51 25 83.5t62.5 45t81 21t81 12.5t62.5 19t25 41q0 36 -30.5 56t-77.5 20q-50 0 -80 -25.5t-30 -72.5h-104q0 90 61.5 134t152.5 44q89 0 148.5 -39.5t59.5 -120.5v-350h-98zM150 138q0 -31 24 -47.5t64 -16.5q62 0 105.5 35t43.5 97v36q-26 -13 -72 -22
t-79.5 -14t-59.5 -22t-26 -46z" />
    <glyph glyph-name="AEacute" unicode="&#x1fc;" horiz-adv-x="780" 
d="M497 820h-83l64 150h111zM736 92v-92h-336v184h-214l-79 -184h-105l332 750h402v-92h-236v-226h216v-92h-216v-248h236zM226 276h174v402z" />
    <glyph glyph-name="aeacute" unicode="&#x1fd;" horiz-adv-x="918" 
d="M487 600h-83l64 150h111zM881 250q0 -12 -2 -34h-392q9 -65 49 -101.5t103 -36.5q89 0 121 72h108q-23 -77 -84.5 -118.5t-148.5 -41.5q-67 0 -121 30t-87 84q-47 -114 -197 -114q-77 0 -129.5 36t-52.5 106q0 51 25 83.5t62.5 45t81 21t81 12.5t62.5 19t25 41
q0 36 -30.5 56t-77.5 20q-50 0 -80 -25.5t-30 -72.5h-104q0 90 59 134t147 44q134 0 181 -82q69 82 185 82q107 0 176.5 -73t69.5 -187zM635 422q-61 0 -99.5 -35.5t-47.5 -98.5h294q-9 63 -48 98.5t-99 35.5zM150 138q0 -31 24 -47.5t64 -16.5q62 0 105.5 35t43.5 97v36
q-26 -13 -72 -22t-79.5 -14t-59.5 -22t-26 -46z" />
    <glyph glyph-name="Oslashacute" unicode="&#x1fe;" horiz-adv-x="570" 
d="M332 820h-83l64 150h111zM506 246q0 -124 -57 -190t-152 -66q-93 0 -134 48l-19 -38h-84l46 95q-42 50 -42 151v258q0 124 57 190t152 66q93 0 134 -48l19 38h84l-46 -95q42 -50 42 -151v-258zM164 246q0 -21 1 -31l205 420q-30 33 -85 33q-59 0 -90 -38.5t-31 -125.5
v-258zM406 504q0 21 -1 31l-205 -420q30 -33 85 -33q59 0 90 38.5t31 125.5v258z" />
    <glyph glyph-name="oslashacute" unicode="&#x1ff;" horiz-adv-x="580" 
d="M337 600h-83l64 150h111zM543 250q0 -114 -72 -187t-181 -73q-75 0 -133 35l-20 -25h-100l61 75q-61 72 -61 175q0 114 72 187t181 73q75 0 133 -35l20 25h100l-61 -75q61 -72 61 -175zM137 250q0 -55 25 -96l200 246q-31 18 -72 18q-66 0 -109.5 -46.5t-43.5 -121.5z
M443 250q0 55 -25 96l-200 -246q32 -18 72 -18q66 0 109.5 46.5t43.5 121.5z" />
    <glyph glyph-name="Scommaaccent" unicode="&#x218;" horiz-adv-x="485" 
d="M55 576q0 93 52.5 138.5t136.5 45.5t137.5 -51.5t53.5 -148.5v-46h-100v43q0 111 -91 111q-41 0 -65 -24t-24 -68q0 -41 22.5 -69.5t65.5 -57.5l81 -58q58 -41 90 -87.5t32 -113.5q0 -96 -56.5 -148t-144.5 -52q-87 0 -144 53t-57 147v56h100v-49q0 -53 27.5 -84
t73.5 -31q47 0 74 25.5t27 70.5q0 76 -89 137l-79 55q-58 40 -90.5 88.5t-32.5 117.5zM231 -210h-67l30 150h103z" />
    <glyph glyph-name="scommaaccent" unicode="&#x219;" horiz-adv-x="504" 
d="M460 141q0 -69 -55.5 -110t-144.5 -41q-95 0 -155.5 45.5t-60.5 125.5h104q0 -44 31 -68t81 -24q97 0 97 68q0 33 -31 50t-75.5 24.5t-89.5 19t-76 44t-31 88.5q0 67 54 107t137 40q88 0 146.5 -47t58.5 -116h-104q0 36 -28.5 59.5t-72.5 23.5q-41 0 -65.5 -16.5
t-24.5 -46.5t31.5 -46t76.5 -23.5t89.5 -20t76 -46t31.5 -90.5zM246 -210h-67l30 150h103z" />
    <glyph glyph-name="dotlessj" unicode="&#x237;" horiz-adv-x="248" 
d="M74 -87v587h100v-589q0 -161 -160 -161q-34 0 -50 4v91q16 -3 37 -3q36 0 54.5 15.5t18.5 55.5z" />
    <glyph glyph-name="uni02BC" unicode="&#x2bc;" horiz-adv-x="197" 
d="M165 685q0 -67 -68 -171h-57q42 70 57 120q-25 1 -43 19.5t-18 42.5q0 26 19 44.5t44 18.5q28 0 47 -20.5t19 -53.5z" />
    <glyph glyph-name="circumflex" unicode="&#x2c6;" horiz-adv-x="500" 
d="M174 600h-83l104 150h110l104 -150h-83l-76 87z" />
    <glyph glyph-name="caron" unicode="&#x2c7;" horiz-adv-x="500" 
d="M409 750l-104 -150h-110l-104 150h83l76 -87l76 87h83z" />
    <glyph glyph-name="breve" unicode="&#x2d8;" horiz-adv-x="500" 
d="M322 750h79q0 -70 -41.5 -110t-109.5 -40t-109 40t-41 110h79q0 -39 20.5 -58.5t50.5 -19.5q72 0 72 78z" />
    <glyph glyph-name="dotaccent" unicode="&#x2d9;" horiz-adv-x="500" 
d="M250 609q-28 0 -47 19t-19 47q0 29 19 47.5t47 18.5q29 0 47.5 -18.5t18.5 -47.5q0 -28 -18.5 -47t-47.5 -19z" />
    <glyph glyph-name="ring" unicode="&#x2da;" horiz-adv-x="500" 
d="M250 570q-46 0 -75 27.5t-29 67.5t29 67.5t75 27.5t75.5 -27.5t29.5 -67.5t-29.5 -67.5t-75.5 -27.5zM250 622q20 0 32.5 12t12.5 31t-12.5 31t-32.5 12q-18 0 -31 -12.5t-13 -30.5t13 -30.5t31 -12.5z" />
    <glyph glyph-name="ogonek" unicode="&#x2db;" horiz-adv-x="500" 
d="M246 -254q-52 0 -83 23.5t-31 63.5q0 13 4.5 27.5t9.5 26t16.5 28.5t18 26.5t22.5 30t22 28.5h61q-82 -110 -82 -158q0 -40 44 -40q41 0 47 38h73q0 -42 -33.5 -68t-88.5 -26z" />
    <glyph glyph-name="tilde" unicode="&#x2dc;" horiz-adv-x="500" 
d="M86 602v50q0 96 82 96q35 0 81.5 -34t64.5 -34q32 0 32 39v27h68v-50q0 -96 -82 -96q-35 0 -81.5 34t-64.5 34q-32 0 -32 -39v-27h-68z" />
    <glyph glyph-name="hungarumlaut" unicode="&#x2dd;" horiz-adv-x="500" 
d="M199 600h-67l30 150h103zM379 600h-67l30 150h103z" />
    <glyph glyph-name="Delta" unicode="&#x394;" horiz-adv-x="510" 
d="M12 0l168 750h150l168 -750h-486zM133 92h244l-122 578z" />
    <glyph glyph-name="Omega" unicode="&#x3a9;" horiz-adv-x="570" 
d="M506 0h-201v88q56 26 78.5 66t22.5 116v234q0 87 -31 125.5t-90 38.5q-121 0 -121 -164v-234q0 -76 22.5 -116t78.5 -66v-88h-201v88h76q-76 49 -76 182v234q0 126 58 191t163 65t163 -65t58 -191v-234q0 -133 -76 -182h76v-88z" />
    <glyph glyph-name="mu" unicode="&#x3bc;" horiz-adv-x="584" 
d="M173 -250h-100v750h100v-271q0 -74 31.5 -112.5t87.5 -38.5t87 38.5t31 112.5v271h100v-500h-100v80q-47 -90 -149 -90q-50 0 -88 19v-259z" />
    <glyph glyph-name="pi" unicode="&#x3c0;" horiz-adv-x="645" 
d="M65 412v88h540v-88h-100v-412h-100v412h-133l-91 -412h-100l91 412h-107z" />
    <glyph glyph-name="afii10023" unicode="&#x401;" horiz-adv-x="454" 
d="M147 837q-24 0 -41 17t-17 41t17 41t41 17q25 0 41.5 -17t16.5 -41t-16.5 -41t-41.5 -17zM347 837q-24 0 -41 17t-17 41t17 41t41 17q25 0 41.5 -17t16.5 -41t-16.5 -41t-41.5 -17zM74 0v750h336v-92h-236v-226h216v-92h-216v-248h236v-92h-336z" />
    <glyph glyph-name="afii10051" unicode="&#x402;" horiz-adv-x="616" 
d="M416 658h-172v-221q47 15 102 15q109 0 155.5 -50.5t46.5 -160.5v-188q0 -179 -173 -179q-11 0 -22.5 1t-18.5 2l-6 1v91q6 -3 36 -3q39 0 61.5 18.5t22.5 70.5v185q0 63 -26 91.5t-87 28.5q-59 0 -91 -14v-346h-100v658h-134v92h406v-92z" />
    <glyph glyph-name="afii10052" unicode="&#x403;" horiz-adv-x="434" 
d="M287 820h-83l64 150h111zM74 0v750h332v-92h-232v-658h-100z" />
    <glyph glyph-name="afii10053" unicode="&#x404;" horiz-adv-x="570" 
d="M506 246q0 -126 -58 -191t-163 -65t-163 65t-58 191v258q0 126 58 191t163 65t163 -65t58 -191v-14h-100v14q0 87 -31 125.5t-90 38.5q-121 0 -121 -164v-72h208v-92h-208v-94q0 -87 31 -125.5t90 -38.5q121 0 121 164v24h100v-24z" />
    <glyph glyph-name="afii10054" unicode="&#x405;" horiz-adv-x="485" 
d="M55 576q0 93 52.5 138.5t136.5 45.5t137.5 -51.5t53.5 -148.5v-46h-100v43q0 111 -91 111q-41 0 -65 -24t-24 -68q0 -41 22.5 -69.5t65.5 -57.5l81 -58q58 -41 90 -87.5t32 -113.5q0 -96 -56.5 -148t-144.5 -52q-87 0 -144 53t-57 147v56h100v-49q0 -53 27.5 -84
t73.5 -31q47 0 74 25.5t27 70.5q0 76 -89 137l-79 55q-58 40 -90.5 88.5t-32.5 117.5z" />
    <glyph glyph-name="afii10055" unicode="&#x406;" horiz-adv-x="248" 
d="M174 0h-100v750h100v-750z" />
    <glyph glyph-name="afii10056" unicode="&#x407;" horiz-adv-x="248" 
d="M24 837q-24 0 -41 17t-17 41t17 41t41 17q25 0 41.5 -17t16.5 -41t-16.5 -41t-41.5 -17zM224 837q-24 0 -41 17t-17 41t17 41t41 17q25 0 41.5 -17t16.5 -41t-16.5 -41t-41.5 -17zM174 0h-100v750h100v-750z" />
    <glyph glyph-name="afii10057" unicode="&#x408;" horiz-adv-x="506" 
d="M342 750h100v-552q0 -100 -56 -154t-145 -54t-145 54t-56 154v64h100v-56q0 -124 101 -124t101 124v544z" />
    <glyph glyph-name="afii10058" unicode="&#x409;" horiz-adv-x="818" 
d="M792 224q0 -99 -60 -161.5t-165 -62.5h-197v658h-164q-2 -381 -19 -507q-11 -84 -44 -117.5t-103 -33.5h-15v92h6q27 0 41.5 16t23.5 49q18 77 18 593h356v-270h97q107 0 166 -59t59 -159v-38zM552 388h-82v-296h82q74 0 107 35.5t33 106.5v18q0 67 -33 101.5t-107 34.5z
" />
    <glyph glyph-name="afii10059" unicode="&#x40a;" horiz-adv-x="834" 
d="M808 211q0 -97 -59.5 -154t-165.5 -57h-195v362h-214v-362h-100v750h100v-296h214v296h100v-296h95q107 0 166 -53.5t59 -151.5v-38zM568 362h-80v-270h80q75 0 107.5 30.5t32.5 98.5v18q0 65 -32.5 94t-107.5 29z" />
    <glyph glyph-name="afii10060" unicode="&#x40b;" horiz-adv-x="616" 
d="M416 658h-172v-221q47 15 102 15q109 0 155.5 -50.5t46.5 -160.5v-241h-100v240q0 63 -26 91.5t-87 28.5q-59 0 -91 -14v-346h-100v658h-134v92h406v-92z" />
    <glyph glyph-name="afii10061" unicode="&#x40c;" horiz-adv-x="519" 
d="M317 820h-83l64 150h111zM395 0l-221 369v-369h-100v750h100v-365l219 365h110l-225 -359l237 -391h-120z" />
    <glyph glyph-name="afii10062" unicode="&#x40e;" horiz-adv-x="488" 
d="M320 970h80q0 -70 -41.5 -110t-109.5 -40t-109 40t-41 110h80q0 -40 20 -59.5t50 -19.5q32 0 51.5 19.5t19.5 59.5zM318 191q-30 -105 -67 -153t-107 -48q-39 0 -74 11v89q29 -8 56 -8q53 0 79 49l-196 619h103l139 -478l127 478h101z" />
    <glyph glyph-name="afii10145" unicode="&#x40f;" horiz-adv-x="584" 
d="M510 750v-750h-172v-135h-92v135h-172v750h100v-658h236v658h100z" />
    <glyph glyph-name="afii10017" unicode="&#x410;" horiz-adv-x="510" 
d="M12 0l168 750h150l168 -750h-101l-39 184h-206l-39 -184h-101zM172 276h166l-83 394z" />
    <glyph glyph-name="afii10018" unicode="&#x411;" horiz-adv-x="530" 
d="M74 0v750h365v-92h-265v-206h104q96 0 153 -52t57 -156v-38q0 -106 -56.5 -156t-153.5 -50h-204zM265 360h-91v-268h93q63 0 92 30.5t29 95.5v17q0 65 -29 95t-94 30z" />
    <glyph glyph-name="afii10019" unicode="&#x412;" 
d="M74 0v750h205q94 0 150.5 -48t56.5 -136v-10q0 -109 -96 -151q116 -45 116 -175v-20q0 -100 -56.5 -155t-150.5 -55h-225zM269 658h-95v-219h97q115 0 115 109v10q0 100 -117 100zM289 348h-115v-256h115q117 0 117 127v10q0 119 -117 119z" />
    <glyph glyph-name="afii10020" unicode="&#x413;" horiz-adv-x="434" 
d="M74 0v750h332v-92h-232v-658h-100z" />
    <glyph glyph-name="afii10021" unicode="&#x414;" horiz-adv-x="613" 
d="M492 -135v135h-386v-135h-92v227h53q32 62 43.5 191.5t9.5 466.5h394v-658h70v-227h-92zM190 186q-12 -61 -28 -94h252v566h-202q-1 -360 -22 -472z" />
    <glyph glyph-name="afii10022" unicode="&#x415;" horiz-adv-x="454" 
d="M74 0v750h336v-92h-236v-226h216v-92h-216v-248h236v-92h-336z" />
    <glyph glyph-name="afii10024" unicode="&#x416;" horiz-adv-x="740" 
d="M322 0v366l-200 -366h-118l217 388l-210 362h112l199 -362v362h100v-364l200 364h107l-209 -363l216 -387h-113l-201 368v-368h-100z" />
    <glyph glyph-name="afii10025" unicode="&#x417;" horiz-adv-x="518" 
d="M474 204q0 -108 -59 -161t-154 -53t-155.5 53.5t-60.5 160.5v48h100v-40q0 -65 32 -97.5t84 -32.5q113 0 113 128v8q0 62 -24.5 92t-80.5 30h-67v92h63q89 0 89 118v7q0 54 -25 82.5t-71 28.5q-105 0 -105 -115v-30h-100v33q0 99 58.5 151.5t146.5 52.5q84 0 140 -47.5
t56 -142.5v-10q0 -110 -77 -159q97 -51 97 -179v-18z" />
    <glyph glyph-name="afii10026" unicode="&#x418;" horiz-adv-x="590" 
d="M220 0l-54 1v-1h-92v750h92v-655l204 655l54 -1v1h92v-750h-92v655z" />
    <glyph glyph-name="afii10027" unicode="&#x419;" horiz-adv-x="590" 
d="M369 970h80q0 -70 -41.5 -110t-109.5 -40t-109 40t-41 110h80q0 -40 20 -59.5t50 -19.5q32 0 51.5 19.5t19.5 59.5zM220 0l-54 1v-1h-92v750h92v-655l204 655l54 -1v1h92v-750h-92v655z" />
    <glyph glyph-name="afii10028" unicode="&#x41a;" horiz-adv-x="519" 
d="M395 0l-221 369v-369h-100v750h100v-365l219 365h110l-225 -359l237 -391h-120z" />
    <glyph glyph-name="afii10029" unicode="&#x41b;" horiz-adv-x="580" 
d="M96 157q18 77 18 593h392v-750h-100v658h-200q-2 -381 -19 -507q-11 -84 -44 -117.5t-103 -33.5h-15v92h6q27 0 41.5 16t23.5 49z" />
    <glyph glyph-name="afii10030" unicode="&#x41c;" horiz-adv-x="764" 
d="M590 0v675l-152 -675h-121l-151 678v-678h-92v750h171l137 -618l134 618h174v-750h-100z" />
    <glyph glyph-name="afii10031" unicode="&#x41d;" horiz-adv-x="590" 
d="M416 0v340h-242v-340h-100v750h100v-318h242v318h100v-750h-100z" />
    <glyph glyph-name="afii10032" unicode="&#x41e;" horiz-adv-x="570" 
d="M285 -10q-105 0 -163 64.5t-58 191.5v258q0 126 58 191t163 65t163 -65t58 -191v-258q0 -127 -58 -191.5t-163 -64.5zM285 82q59 0 90 38.5t31 125.5v258q0 87 -31 125.5t-90 38.5q-121 0 -121 -164v-258q0 -87 30.5 -125.5t90.5 -38.5z" />
    <glyph glyph-name="afii10033" unicode="&#x41f;" horiz-adv-x="584" 
d="M74 0v750h436v-750h-100v658h-236v-658h-100z" />
    <glyph glyph-name="afii10034" unicode="&#x420;" horiz-adv-x="530" 
d="M74 0v750h217q93 0 150 -52t57 -148v-54q0 -100 -57 -155t-150 -55h-117v-286h-100zM281 658h-107v-280h107q117 0 117 128v34q0 118 -117 118z" />
    <glyph glyph-name="afii10035" unicode="&#x421;" horiz-adv-x="570" 
d="M406 286h100v-40q0 -126 -58 -191t-163 -65t-163 65t-58 191v258q0 126 58 191t163 65t163 -65t58 -191v-30h-100v30q0 87 -31 125.5t-90 38.5q-121 0 -121 -164v-258q0 -87 31 -125.5t90 -38.5q121 0 121 164v40z" />
    <glyph glyph-name="afii10036" unicode="&#x422;" horiz-adv-x="434" 
d="M10 658v92h414v-92h-157v-658h-100v658h-157z" />
    <glyph glyph-name="afii10037" unicode="&#x423;" horiz-adv-x="488" 
d="M318 191q-30 -105 -67 -153t-107 -48q-39 0 -74 11v89q29 -8 56 -8q53 0 79 49l-196 619h103l139 -478l127 478h101z" />
    <glyph glyph-name="afii10038" unicode="&#x424;" horiz-adv-x="711" 
d="M432 61h-27v-71h-100v71h-26q-115 0 -170 69t-55 186v122q0 121 58.5 186.5t167.5 65.5h25v70h100v-70h26q109 0 167.5 -65.5t58.5 -186.5v-122q0 -117 -55 -186t-170 -69zM429 602h-24v-454h28q124 0 124 162v132q0 89 -34 124.5t-94 35.5zM277 148h28v454h-24
q-59 0 -93 -35.5t-34 -124.5v-132q0 -162 123 -162z" />
    <glyph glyph-name="afii10039" unicode="&#x425;" horiz-adv-x="490" 
d="M376 0l-131 299l-131 -299h-109l183 385l-172 365h108l121 -280l121 280h108l-172 -365l183 -385h-109z" />
    <glyph glyph-name="afii10040" unicode="&#x426;" horiz-adv-x="609" 
d="M174 750v-658h236v658h100v-658h70v-227h-92v135h-414v750h100z" />
    <glyph glyph-name="afii10041" unicode="&#x427;" horiz-adv-x="554" 
d="M287 385q62 0 93 12v353h100v-750h-100v307q-44 -14 -106 -14q-115 0 -170.5 53t-55.5 174v230h100v-230q0 -75 35 -105t104 -30z" />
    <glyph glyph-name="afii10042" unicode="&#x428;" horiz-adv-x="872" 
d="M798 750v-750h-724v750h100v-658h212v658h100v-658h212v658h100z" />
    <glyph glyph-name="afii10043" unicode="&#x429;" horiz-adv-x="897" 
d="M486 750v-658h212v658h100v-658h70v-227h-92v135h-702v750h100v-658h212v658h100z" />
    <glyph glyph-name="afii10044" unicode="&#x42a;" horiz-adv-x="598" 
d="M10 658v92h234v-270h97q106 0 165.5 -59t59.5 -159v-38q0 -99 -60 -161.5t-165 -62.5h-197v658h-134zM326 388h-82v-296h82q74 0 107 36t33 106v18q0 136 -140 136z" />
    <glyph glyph-name="afii10045" unicode="&#x42b;" horiz-adv-x="753" 
d="M496 224q0 -99 -60 -161.5t-165 -62.5h-197v750h100v-270h97q106 0 165.5 -59t59.5 -159v-38zM679 0h-100v750h100v-750zM256 388h-82v-296h82q74 0 107 36t33 106v18q0 136 -140 136z" />
    <glyph glyph-name="afii10046" unicode="&#x42c;" horiz-adv-x="520" 
d="M496 224q0 -99 -60 -161.5t-165 -62.5h-197v750h100v-270h97q106 0 165.5 -59t59.5 -159v-38zM256 388h-82v-296h82q74 0 107 36t33 106v18q0 136 -140 136z" />
    <glyph glyph-name="afii10047" unicode="&#x42d;" horiz-adv-x="570" 
d="M506 246q0 -126 -58 -191t-163 -65t-163 65t-58 191v24h100v-24q0 -164 121 -164q59 0 90 38.5t31 125.5v94h-200v92h200v72q0 164 -121 164q-59 0 -90 -38.5t-31 -125.5v-14h-100v14q0 126 58 191t163 65t163 -65t58 -191v-258z" />
    <glyph glyph-name="afii10048" unicode="&#x42e;" horiz-adv-x="760" 
d="M696 246q0 -126 -57 -191t-160 -65t-160 65t-57 191v94h-88v-340h-100v750h100v-318h88v72q0 126 57 191t160 65t160 -65t57 -191v-258zM479 82q117 0 117 164v258q0 164 -117 164t-117 -164v-258q0 -164 117 -164z" />
    <glyph glyph-name="afii10049" unicode="&#x42f;" 
d="M47 552q0 94 57.5 146t151.5 52h220v-750h-100v351l-236 -351h-116l225 324q-91 5 -146.5 55t-55.5 143v30zM266 406h110v252h-110q-119 0 -119 -116v-10q0 -126 119 -126z" />
    <glyph glyph-name="afii10065" unicode="&#x430;" 
d="M387 0v84q-47 -94 -169 -94q-72 0 -121 36t-49 106q0 51 25 83.5t62.5 45t81 21t81 12.5t62.5 19t25 41q0 36 -30.5 56t-77.5 20q-50 0 -80 -25.5t-30 -72.5h-104q0 90 61.5 134t152.5 44q89 0 148.5 -39.5t59.5 -120.5v-350h-98zM150 138q0 -31 24 -47.5t64 -16.5
q62 0 105.5 35t43.5 97v36q-26 -13 -72 -22t-79.5 -14t-59.5 -22t-26 -46z" />
    <glyph glyph-name="afii10066" unicode="&#x431;" horiz-adv-x="584" 
d="M547 246q0 -112 -72 -184t-181 -72q-108 0 -180.5 71.5t-72.5 182.5v177q0 141 53.5 201.5t174.5 78.5l121 17q41 6 43 32h100q-1 -61 -32.5 -85.5t-113.5 -35.5l-109 -16q-82 -11 -112 -50t-30 -135v-19q51 93 177 93q97 0 165.5 -72.5t68.5 -183.5zM294 82q67 0 110 46
t43 118t-43 118t-110 46t-110 -46t-43 -118q0 -73 43 -118.5t110 -45.5z" />
    <glyph glyph-name="afii10067" unicode="&#x432;" horiz-adv-x="554" 
d="M74 0v500h248q71 0 113 -33t42 -97q0 -76 -69 -105q90 -29 90 -121q0 -71 -44 -107.5t-124 -36.5h-256zM293 424h-123v-130h123q88 0 88 65q0 34 -21 49.5t-67 15.5zM313 218h-143v-142h143q85 0 85 71t-85 71z" />
    <glyph glyph-name="afii10068" unicode="&#x433;" horiz-adv-x="427" 
d="M74 0v500h329v-92h-229v-408h-100z" />
    <glyph glyph-name="afii10069" unicode="&#x434;" horiz-adv-x="597" 
d="M477 -135v135h-367v-135h-92v227h49q22 42 34 125t13 283h385v-408h70v-227h-92zM194 211q-11 -82 -26 -119h231v316h-194q-1 -125 -11 -197z" />
    <glyph glyph-name="afii10070" unicode="&#x435;" horiz-adv-x="566" 
d="M529 250q0 -12 -2 -34h-392q9 -65 49 -101.5t103 -36.5q89 0 121 72h108q-23 -77 -84.5 -118.5t-148.5 -41.5q-107 0 -176.5 73t-69.5 187t69.5 187t176.5 73t176.5 -73t69.5 -187zM283 422q-61 0 -99.5 -35.5t-47.5 -98.5h294q-9 63 -48 98.5t-99 35.5z" />
    <glyph glyph-name="afii10072" unicode="&#x436;" horiz-adv-x="807" 
d="M355 0v261l-217 -261h-126l233 272l-215 228h133l192 -220v220h100v-221l193 221h128l-210 -228l229 -272h-123l-217 263v-263h-100z" />
    <glyph glyph-name="afii10073" unicode="&#x437;" horiz-adv-x="509" 
d="M277 217h-79v75h79q84 0 84 67q0 33 -26 52t-76 19q-55 0 -84.5 -26t-29.5 -74h-100q0 77 56 128.5t158 51.5q95 0 146.5 -40.5t51.5 -102.5q0 -81 -74 -113q86 -29 86 -113q0 -71 -54 -111t-156 -40q-105 0 -163.5 49t-58.5 138h100q0 -52 31 -80t92 -28q109 0 109 75
q0 35 -24.5 54t-67.5 19z" />
    <glyph glyph-name="afii10074" unicode="&#x438;" horiz-adv-x="600" 
d="M170 500v-399l229 399h127v-500h-96v399l-229 -399h-127v500h96z" />
    <glyph glyph-name="afii10075" unicode="&#x439;" horiz-adv-x="600" 
d="M369 750h80q0 -70 -41.5 -110t-109.5 -40t-109 40t-41 110h80q0 -40 20 -59.5t50 -19.5q32 0 51.5 19.5t19.5 59.5zM170 500v-399l229 399h127v-500h-96v399l-229 -399h-127v500h96z" />
    <glyph glyph-name="afii10076" unicode="&#x43a;" horiz-adv-x="552" 
d="M413 0l-239 263v-263h-100v500h100v-222l215 222h133l-235 -228l253 -272h-127z" />
    <glyph glyph-name="afii10077" unicode="&#x43b;" horiz-adv-x="556" 
d="M92 146q19 67 20 354h370v-500h-100v408h-179q-3 -168 -15 -250q-15 -90 -48.5 -124t-96.5 -34h-18v92h8q45 0 59 54z" />
    <glyph glyph-name="afii10078" unicode="&#x43c;" horiz-adv-x="731" 
d="M557 0v432l-140 -432h-112l-139 432v-432h-92v500h169l124 -412l124 412h166v-500h-100z" />
    <glyph glyph-name="afii10079" unicode="&#x43d;" horiz-adv-x="588" 
d="M414 0v207h-240v-207h-100v500h100v-202h240v202h100v-500h-100z" />
    <glyph glyph-name="afii10080" unicode="&#x43e;" horiz-adv-x="580" 
d="M290 -10q-109 0 -181 73t-72 187t72 187t181 73t181 -73t72 -187t-72 -187t-181 -73zM290 82q66 0 109.5 46.5t43.5 121.5t-43.5 121.5t-109.5 46.5t-109.5 -46.5t-43.5 -121.5t43.5 -121.5t109.5 -46.5z" />
    <glyph glyph-name="afii10081" unicode="&#x43f;" horiz-adv-x="575" 
d="M74 0v500h426v-500h-100v408h-226v-408h-100z" />
    <glyph glyph-name="afii10082" unicode="&#x440;" horiz-adv-x="615" 
d="M338 -10q-101 0 -164 85v-325h-100v750h100v-75q63 85 164 85q103 0 171.5 -73t68.5 -187t-68.5 -187t-171.5 -73zM326 82q66 0 109 46.5t43 121.5t-43 121.5t-109 46.5t-109 -46.5t-43 -121.5t43 -121.5t109 -46.5z" />
    <glyph glyph-name="afii10083" unicode="&#x441;" horiz-adv-x="572" 
d="M429 301q-7 55 -47 86t-96 31q-65 0 -107 -46.5t-42 -121.5t42 -121.5t107 -46.5q57 0 97.5 34t47.5 94h104q-6 -98 -76 -159t-173 -61q-108 0 -178.5 73t-70.5 187t70.5 187t178.5 73q100 0 169 -58t78 -151h-104z" />
    <glyph glyph-name="afii10084" unicode="&#x442;" horiz-adv-x="460" 
d="M18 408v92h424v-92h-162v-408h-100v408h-162z" />
    <glyph glyph-name="afii10085" unicode="&#x443;" horiz-adv-x="501" 
d="M298 -56q-17 -49 -34 -82.5t-42 -62.5t-59 -43t-79 -14q-40 0 -75 11v88q35 -11 66 -11q46 0 75 27t54 88l-198 555h100l145 -419l144 419h100z" />
    <glyph glyph-name="afii10086" unicode="&#x444;" horiz-adv-x="700" 
d="M137 250q0 -75 45 -119.5t118 -48.5v336q-73 -4 -118 -48.5t-45 -119.5zM563 250q0 75 -45 119.5t-118 48.5v-336q73 4 118 48.5t45 119.5zM300 750h100v-240q116 -4 189.5 -74.5t73.5 -185.5t-73.5 -185.5t-189.5 -74.5v-240h-100v240q-116 4 -189.5 74.5t-73.5 185.5
t73.5 185.5t189.5 74.5v240z" />
    <glyph glyph-name="afii10087" unicode="&#x445;" horiz-adv-x="520" 
d="M399 0l-144 185l-134 -185h-117l196 259l-186 241h117l132 -170l126 170h117l-186 -244l196 -256h-117z" />
    <glyph glyph-name="afii10088" unicode="&#x446;" horiz-adv-x="599" 
d="M174 500v-408h226v408h100v-408h70v-227h-92v135h-404v500h100z" />
    <glyph glyph-name="afii10089" unicode="&#x447;" horiz-adv-x="545" 
d="M274 264q32 0 98 12v224h100v-500h-100v186q-59 -14 -106 -14q-112 0 -165.5 51t-53.5 163v114h100v-113q0 -66 31.5 -94.5t95.5 -28.5z" />
    <glyph glyph-name="afii10090" unicode="&#x448;" horiz-adv-x="828" 
d="M754 500v-500h-680v500h108v-408h182v408h100v-408h190v408h100z" />
    <glyph glyph-name="afii10091" unicode="&#x449;" horiz-adv-x="853" 
d="M732 -135v135h-658v500h108v-408h182v408h100v-408h190v408h100v-408h70v-227h-92z" />
    <glyph glyph-name="afii10092" unicode="&#x44a;" horiz-adv-x="589" 
d="M18 408v92h235v-165h111q89 0 140.5 -46t51.5 -121q0 -76 -49.5 -122t-141.5 -46h-212v408h-135zM356 251h-103v-167h103q100 0 100 85q0 82 -100 82z" />
    <glyph glyph-name="afii10093" unicode="&#x44b;" horiz-adv-x="727" 
d="M477 168q0 -76 -49.5 -122t-141.5 -46h-212v500h100v-165h111q89 0 140.5 -46t51.5 -121zM653 0h-100v500h100v-500zM277 251h-103v-167h103q100 0 100 85q0 82 -100 82z" />
    <glyph glyph-name="afii10094" unicode="&#x44c;" horiz-adv-x="510" 
d="M477 168q0 -76 -49.5 -122t-141.5 -46h-212v500h100v-165h111q89 0 140.5 -46t51.5 -121zM277 251h-103v-167h103q100 0 100 85q0 82 -100 82z" />
    <glyph glyph-name="afii10095" unicode="&#x44d;" horiz-adv-x="572" 
d="M535 250q0 -114 -71 -187t-178 -73q-104 0 -174 61t-75 159h103q8 -65 47.5 -96.5t98.5 -31.5q57 0 96.5 34t49.5 97h-215v76h215q-10 62 -49.5 95.5t-96.5 33.5q-59 0 -97.5 -28.5t-45.5 -88.5h-105q10 93 79 151t169 58q107 0 178 -73t71 -187z" />
    <glyph glyph-name="afii10096" unicode="&#x44e;" horiz-adv-x="796" 
d="M759 250q0 -114 -71.5 -187t-180.5 -73q-98 0 -167 60t-82 157h-84v-207h-100v500h100v-202h85q15 95 83.5 153.5t164.5 58.5q109 0 180.5 -73t71.5 -187zM507 82q66 0 109 46.5t43 121.5t-43 121.5t-109 46.5t-109 -46.5t-43 -121.5t43 -121.5t109 -46.5z" />
    <glyph glyph-name="afii10097" unicode="&#x44f;" horiz-adv-x="544" 
d="M71 348q0 77 51.5 114.5t132.5 37.5h215v-500h-100v219h-1l-216 -219h-117l196 194q-68 4 -114.5 44.5t-46.5 109.5zM272 265h98v159h-98q-48 0 -74.5 -19.5t-26.5 -57.5q0 -82 101 -82z" />
    <glyph glyph-name="afii10071" unicode="&#x451;" horiz-adv-x="566" 
d="M183 617q-24 0 -41 17t-17 41t17 41t41 17q25 0 41.5 -17t16.5 -41t-16.5 -41t-41.5 -17zM383 617q-24 0 -41 17t-17 41t17 41t41 17q25 0 41.5 -17t16.5 -41t-16.5 -41t-41.5 -17zM529 250q0 -12 -2 -34h-392q9 -65 49 -101.5t103 -36.5q89 0 121 72h108
q-23 -77 -84.5 -118.5t-148.5 -41.5q-107 0 -176.5 73t-69.5 187t69.5 187t176.5 73t176.5 -73t69.5 -187zM283 422q-61 0 -99.5 -35.5t-47.5 -98.5h294q-9 63 -48 98.5t-99 35.5z" />
    <glyph glyph-name="afii10099" unicode="&#x452;" horiz-adv-x="585" 
d="M356 -250q-34 0 -50 4v91q16 -3 37 -3q37 0 55 15.5t18 55.5v360q0 73 -32 111t-89 38t-89 -38t-32 -111v-273h-100v600h-74v60h74v90h100v-90h145v-60h-145v-182q47 92 152 92q85 0 137.5 -55.5t52.5 -161.5v-382q0 -161 -160 -161z" />
    <glyph glyph-name="afii10100" unicode="&#x453;" horiz-adv-x="427" 
d="M260 600h-83l64 150h111zM74 0v500h329v-92h-229v-408h-100z" />
    <glyph glyph-name="afii10101" unicode="&#x454;" horiz-adv-x="572" 
d="M535 210q-6 -98 -76 -159t-173 -61q-108 0 -178.5 73t-70.5 187t70.5 187t178.5 73q100 0 169 -58t78 -151h-104q-9 59 -47.5 88t-95.5 29q-58 0 -97 -34t-49 -96h215v-75h-215q10 -63 49.5 -97t96.5 -34q58 0 97 32.5t48 95.5h104z" />
    <glyph glyph-name="afii10102" unicode="&#x455;" horiz-adv-x="504" 
d="M460 141q0 -69 -55.5 -110t-144.5 -41q-95 0 -155.5 45.5t-60.5 125.5h104q0 -44 31 -68t81 -24q97 0 97 68q0 33 -31 50t-75.5 24.5t-89.5 19t-76 44t-31 88.5q0 67 54 107t137 40q88 0 146.5 -47t58.5 -116h-104q0 36 -28.5 59.5t-72.5 23.5q-41 0 -65.5 -16.5
t-24.5 -46.5t31.5 -46t76.5 -23.5t89.5 -20t76 -46t31.5 -90.5z" />
    <glyph glyph-name="afii10103" unicode="&#x456;" horiz-adv-x="248" 
d="M124 609q-28 0 -47 19t-19 48q0 28 19 47t47 19q29 0 47.5 -18.5t18.5 -47.5t-18.5 -48t-47.5 -19zM174 0h-100v500h100v-500z" />
    <glyph glyph-name="afii10104" unicode="&#x457;" horiz-adv-x="248" 
d="M62 608q-24 0 -39.5 19t-15.5 48q0 30 15.5 49t39.5 19q25 0 40.5 -19t15.5 -49q0 -29 -15.5 -48t-40.5 -19zM202 608q-25 0 -40.5 19t-15.5 48t15.5 48.5t40.5 19.5t40 -19t15 -49q0 -29 -15 -48t-40 -19zM174 0h-100v500h100v-500z" />
    <glyph glyph-name="afii10105" unicode="&#x458;" horiz-adv-x="248" 
d="M124 609q-28 0 -47 19t-19 48q0 28 19 47t47 19q29 0 47.5 -18.5t18.5 -47.5t-18.5 -48t-47.5 -19zM74 -87v587h100v-589q0 -161 -160 -161q-34 0 -50 4v91q16 -3 37 -3q36 0 54.5 15.5t18.5 55.5z" />
    <glyph glyph-name="afii10106" unicode="&#x459;" horiz-adv-x="789" 
d="M757 168q0 -76 -50 -122t-142 -46h-205v408h-157q-3 -169 -15 -251q-14 -90 -48 -123.5t-97 -33.5h-18v92h8q45 0 59 54q19 67 20 354h348v-165h105q89 0 140.5 -46t51.5 -121zM556 251h-96v-167h96q101 0 101 85q0 82 -101 82z" />
    <glyph glyph-name="afii10107" unicode="&#x45a;" horiz-adv-x="811" 
d="M779 161q0 -73 -47 -117t-135 -44h-219v229h-204v-229h-100v500h100v-179h204v179h100v-179h118q88 0 135.5 -43.5t47.5 -116.5zM587 237h-109v-153h109q92 0 92 78q0 75 -92 75z" />
    <glyph glyph-name="afii10108" unicode="&#x45b;" horiz-adv-x="585" 
d="M174 273v-273h-100v600h-74v60h74v90h100v-90h145v-60h-145v-179q48 89 152 89q85 0 137.5 -55.5t52.5 -161.5v-293h-100v273q0 73 -32 111t-89 38t-89 -38t-32 -111z" />
    <glyph glyph-name="afii10109" unicode="&#x45c;" horiz-adv-x="552" 
d="M319 600h-83l64 150h111zM413 0l-239 263v-263h-100v500h100v-222l215 222h133l-235 -228l253 -272h-127z" />
    <glyph glyph-name="afii10110" unicode="&#x45e;" horiz-adv-x="501" 
d="M314 750h80q0 -70 -41.5 -110t-109.5 -40t-109 40t-41 110h80q0 -40 20 -59.5t50 -19.5q32 0 51.5 19.5t19.5 59.5zM298 -56q-17 -49 -34 -82.5t-42 -62.5t-59 -43t-79 -14q-40 0 -75 11v88q35 -11 66 -11q46 0 75 27t54 88l-198 555h100l145 -419l144 419h100z" />
    <glyph glyph-name="afii10193" unicode="&#x45f;" horiz-adv-x="574" 
d="M500 500v-500h-167v-135h-92v135h-167v500h100v-408h226v408h100z" />
    <glyph glyph-name="afii10050" unicode="&#x490;" horiz-adv-x="434" 
d="M314 885h92v-227h-232v-658h-100v750h240v135z" />
    <glyph glyph-name="afii10098" unicode="&#x491;" horiz-adv-x="427" 
d="M311 635h92v-227h-229v-408h-100v500h237v135z" />
    <glyph glyph-name="uni0492" unicode="&#x492;" horiz-adv-x="430" 
d="M0 420h74v330h332v-92h-232v-238h114v-68h-114v-352h-100v352h-74v68z" />
    <glyph glyph-name="uni0493" unicode="&#x493;" horiz-adv-x="427" 
d="M13 273h61v227h329v-92h-229v-135h131v-68h-131v-205h-100v205h-61v68z" />
    <glyph glyph-name="uni0496" unicode="&#x496;" horiz-adv-x="760" 
d="M729 750l-209 -363l165 -295h74v-227h-84v135h-52l-201 368v-368h-100v366l-200 -366h-118l217 388l-210 362h112l199 -362v362h100v-364l200 364h107z" />
    <glyph glyph-name="uni0497" unicode="&#x497;" horiz-adv-x="810" 
d="M801 92v-227h-92v135h-37l-217 263v-263h-100v261l-217 -261h-126l233 272l-215 228h133l192 -220v220h100v-221l193 221h128l-210 -228l151 -180h84z" />
    <glyph glyph-name="uni049A" unicode="&#x49a;" horiz-adv-x="534" 
d="M533 92v-227h-92v135h-46l-221 369v-369h-100v750h100v-365l219 365h110l-225 -359l181 -299h74z" />
    <glyph glyph-name="uni049B" unicode="&#x49b;" horiz-adv-x="553" 
d="M546 92v-227h-92v135h-41l-239 263v-263h-100v500h100v-222l215 222h133l-235 -228l167 -180h92z" />
    <glyph glyph-name="uni04A2" unicode="&#x4a2;" horiz-adv-x="615" 
d="M586 92v-227h-92v135h-78v340h-242v-340h-100v750h100v-318h242v318h100v-658h70z" />
    <glyph glyph-name="uni04A3" unicode="&#x4a3;" horiz-adv-x="613" 
d="M584 92v-227h-92v135h-78v207h-240v-207h-100v500h100v-202h240v202h100v-408h70z" />
    <glyph glyph-name="uni04AE" unicode="&#x4ae;" horiz-adv-x="480" 
d="M290 302v-302h-100v302l-189 448h100l139 -344l139 344h100z" />
    <glyph glyph-name="uni04AF" unicode="&#x4af;" horiz-adv-x="500" 
d="M300 0v-250h-100v250l-190 500h104l136 -374l136 374h104z" />
    <glyph glyph-name="uni04B0" unicode="&#x4b0;" horiz-adv-x="480" 
d="M416 236h-126v-236h-100v236h-126v67h126l-189 447h100l139 -344l139 344h100l-189 -447h126v-67z" />
    <glyph glyph-name="uni04B1" unicode="&#x4b1;" horiz-adv-x="500" 
d="M62 -68v68h138l-190 500h104l136 -374l136 374h104l-190 -500h138v-68h-138v-182h-100v182h-138z" />
    <glyph glyph-name="uni04B2" unicode="&#x4b2;" horiz-adv-x="511" 
d="M510 92v-227h-84v135h-50l-131 299l-131 -299h-109l183 385l-172 365h108l121 -280l121 280h108l-172 -365l139 -293h69z" />
    <glyph glyph-name="uni04B3" unicode="&#x4b3;" horiz-adv-x="530" 
d="M506 500l-186 -244l126 -164h80v-227h-92v135h-35l-144 185l-134 -185h-117l196 259l-186 241h117l132 -170l126 170h117z" />
    <glyph glyph-name="uni04BA" unicode="&#x4ba;" horiz-adv-x="570" 
d="M74 750h100v-307q44 14 106 14q115 0 170.5 -53t55.5 -174v-230h-100v230q0 75 -35 105t-104 30q-62 0 -93 -12v-353h-100v750z" />
    <glyph glyph-name="uni04BB" unicode="&#x4bb;" horiz-adv-x="585" 
d="M174 273v-273h-100v750h100v-329q48 89 152 89q85 0 137.5 -55.5t52.5 -161.5v-293h-100v273q0 73 -32 111t-89 38t-89 -38t-32 -111z" />
    <glyph glyph-name="uni04C0" unicode="&#x4c0;" horiz-adv-x="248" 
d="M174 0h-100v750h100v-750z" />
    <glyph glyph-name="uni04CF" unicode="&#x4cf;" horiz-adv-x="248" 
d="M174 0h-100v750h100v-750z" />
    <glyph glyph-name="uni04D8" unicode="&#x4d8;" horiz-adv-x="570" 
d="M285 -10q-105 0 -163 65t-58 191v143h342v115q0 87 -31 125.5t-90 38.5q-121 0 -121 -164v-40h-100v40q0 126 58 191t163 65t163 -65t58 -191v-258q0 -126 -58 -191t-163 -65zM164 246q0 -87 31 -125.5t90 -38.5q121 0 121 164v51h-242v-51z" />
    <glyph glyph-name="uni04D9" unicode="&#x4d9;" horiz-adv-x="566" 
d="M37 250q0 12 2 34h392q-9 65 -49 101.5t-103 36.5q-89 0 -121 -72h-108q23 77 84.5 118.5t148.5 41.5q107 0 176.5 -73t69.5 -187t-69.5 -187t-176.5 -73t-176.5 73t-69.5 187zM283 78q61 0 99.5 35.5t47.5 98.5h-294q9 -63 48 -98.5t99 -35.5z" />
    <glyph glyph-name="uni04E8" unicode="&#x4e8;" horiz-adv-x="570" 
d="M285 -10q-105 0 -163 65t-58 191v258q0 126 58 191t163 65t163 -65t58 -191v-258q0 -126 -58 -191t-163 -65zM160 508v-79h250v79q0 164 -125 164t-125 -164zM160 242q0 -164 125 -164t125 164v101h-250v-101z" />
    <glyph glyph-name="uni04E9" unicode="&#x4e9;" horiz-adv-x="580" 
d="M290 -10q-109 0 -181 73t-72 187t72 187t181 73t181 -73t72 -187t-72 -187t-181 -73zM290 422q-59 0 -101.5 -36.5t-53.5 -96.5h309q-11 61 -53 97t-101 36zM290 78q59 0 101.5 37t52.5 99h-309q10 -62 52.5 -99t102.5 -37z" />
    <glyph glyph-name="Wgrave" unicode="&#x1e80;" horiz-adv-x="750" 
d="M336 820l-92 150h111l64 -150h-83zM740 750l-115 -750h-150l-100 664l-100 -664h-150l-115 750h100l92 -651l98 651h150l98 -651l92 651h100z" />
    <glyph glyph-name="wgrave" unicode="&#x1e81;" horiz-adv-x="765" 
d="M342 600l-92 150h111l64 -150h-83zM750 500l-135 -500h-126l-106 413l-107 -413h-126l-135 500h96l103 -413l105 413h127l105 -413l103 413h96z" />
    <glyph glyph-name="Wacute" unicode="&#x1e82;" horiz-adv-x="750" 
d="M422 820h-83l64 150h111zM740 750l-115 -750h-150l-100 664l-100 -664h-150l-115 750h100l92 -651l98 651h150l98 -651l92 651h100z" />
    <glyph glyph-name="wacute" unicode="&#x1e83;" horiz-adv-x="765" 
d="M427 600h-83l64 150h111zM750 500l-135 -500h-126l-106 413l-107 -413h-126l-135 500h96l103 -413l105 413h127l105 -413l103 413h96z" />
    <glyph glyph-name="Wdieresis" unicode="&#x1e84;" horiz-adv-x="750" 
d="M275 837q-24 0 -41 17t-17 41t17 41t41 17q25 0 41.5 -17t16.5 -41t-16.5 -41t-41.5 -17zM475 837q-24 0 -41 17t-17 41t17 41t41 17q25 0 41.5 -17t16.5 -41t-16.5 -41t-41.5 -17zM740 750l-115 -750h-150l-100 664l-100 -664h-150l-115 750h100l92 -651l98 651h150
l98 -651l92 651h100z" />
    <glyph glyph-name="wdieresis" unicode="&#x1e85;" horiz-adv-x="765" 
d="M280 617q-24 0 -41 17t-17 41t17 41t41 17q25 0 41.5 -17t16.5 -41t-16.5 -41t-41.5 -17zM480 617q-24 0 -41 17t-17 41t17 41t41 17q25 0 41.5 -17t16.5 -41t-16.5 -41t-41.5 -17zM750 500l-135 -500h-126l-106 413l-107 -413h-126l-135 500h96l103 -413l105 413h127
l105 -413l103 413h96z" />
    <glyph glyph-name="Ygrave" unicode="&#x1ef2;" horiz-adv-x="480" 
d="M201 820l-92 150h111l64 -150h-83zM290 302v-302h-100v302l-189 448h100l139 -344l139 344h100z" />
    <glyph glyph-name="ygrave" unicode="&#x1ef3;" horiz-adv-x="501" 
d="M221 600l-92 150h111l64 -150h-83zM298 -56q-17 -49 -34 -82.5t-42 -62.5t-59 -43t-79 -14q-40 0 -75 11v88q35 -11 66 -11q46 0 75 27t54 88l-198 555h100l145 -419l144 419h100z" />
    <glyph glyph-name="endash" unicode="&#x2013;" horiz-adv-x="500" 
d="M450 241h-400v68h400v-68z" />
    <glyph glyph-name="emdash" unicode="&#x2014;" horiz-adv-x="1000" 
d="M950 241h-900v68h900v-68z" />
    <glyph glyph-name="quoteleft" unicode="&#x2018;" horiz-adv-x="197" 
d="M161 567q0 -25 -18.5 -43.5t-44.5 -18.5q-28 0 -47 20.5t-19 52.5q0 67 68 172h57q-43 -71 -56 -120q24 -1 42 -19.5t18 -43.5z" />
    <glyph glyph-name="quoteright" unicode="&#x2019;" horiz-adv-x="197" 
d="M165 685q0 -67 -68 -171h-57q42 70 57 120q-25 1 -43 19.5t-18 42.5q0 26 19 44.5t44 18.5q28 0 47 -20.5t19 -53.5z" />
    <glyph glyph-name="quotesinglbase" unicode="&#x201a;" horiz-adv-x="197" 
d="M165 41q0 -67 -68 -171h-57q42 70 57 120q-25 1 -43 19.5t-18 42.5q0 26 19 44.5t44 18.5q28 0 47 -20.5t19 -53.5z" />
    <glyph glyph-name="quotedblleft" unicode="&#x201c;" horiz-adv-x="375" 
d="M161 567q0 -25 -18.5 -43.5t-44.5 -18.5q-28 0 -47 20.5t-19 52.5q0 67 68 172h57q-43 -71 -56 -120q24 -1 42 -19.5t18 -43.5zM339 567q0 -25 -18.5 -43.5t-44.5 -18.5q-28 0 -47 20.5t-19 52.5q0 67 68 172h57q-43 -71 -56 -120q24 -1 42 -19.5t18 -43.5z" />
    <glyph glyph-name="quotedblright" unicode="&#x201d;" horiz-adv-x="375" 
d="M165 685q0 -67 -68 -171h-57q42 70 57 120q-25 1 -43 19.5t-18 42.5q0 26 19 44.5t44 18.5q28 0 47 -20.5t19 -53.5zM343 685q0 -67 -68 -171h-57q42 70 57 120q-25 1 -43 19.5t-18 42.5q0 26 19 44.5t44 18.5q28 0 47 -20.5t19 -53.5z" />
    <glyph glyph-name="quotedblbase" unicode="&#x201e;" horiz-adv-x="375" 
d="M343 41q0 -67 -68 -171h-57q42 70 57 120q-25 1 -43 19.5t-18 42.5q0 26 19 44.5t44 18.5q28 0 47 -20.5t19 -53.5zM165 41q0 -67 -68 -171h-57q42 70 57 120q-25 1 -43 19.5t-18 42.5q0 26 19 44.5t44 18.5q28 0 47 -20.5t19 -53.5z" />
    <glyph glyph-name="dagger" unicode="&#x2020;" horiz-adv-x="330" 
d="M310 500h-107v-500h-76v500h-107v67h107v183h76v-183h107v-67z" />
    <glyph glyph-name="daggerdbl" unicode="&#x2021;" horiz-adv-x="330" 
d="M310 183h-107v-183h-76v183h-107v67h107v250h-107v67h107v183h76v-183h107v-67h-107v-250h107v-67z" />
    <glyph glyph-name="bullet" unicode="&#x2022;" horiz-adv-x="320" 
d="M160 195q-46 0 -78 32t-32 77q0 46 32 78t78 32q45 0 77.5 -32t32.5 -78q0 -45 -32.5 -77t-77.5 -32z" />
    <glyph glyph-name="ellipsis" unicode="&#x2026;" horiz-adv-x="597" 
d="M106 -10q-25 0 -43.5 18.5t-18.5 43.5q0 26 18.5 44.5t43.5 18.5q27 0 45 -18.5t18 -44.5q0 -25 -18 -43.5t-45 -18.5zM298 -10q-25 0 -43.5 18.5t-18.5 43.5q0 26 18.5 44.5t43.5 18.5q27 0 45 -18.5t18 -44.5q0 -25 -18 -43.5t-45 -18.5zM490 -10q-25 0 -43.5 18.5
t-18.5 43.5q0 26 18.5 44.5t43.5 18.5q27 0 45 -18.5t18 -44.5q0 -25 -18 -43.5t-45 -18.5z" />
    <glyph glyph-name="perthousand" unicode="&#x2030;" horiz-adv-x="1165" 
d="M179 355q-69 0 -111 50.5t-42 149.5t42 150t111 51t110.5 -51t41.5 -150q0 -100 -41.5 -150t-110.5 -50zM113 0l520 750h60l-520 -750h-60zM179 427q72 0 72 128q0 131 -72 131q-73 0 -73 -131q0 -128 73 -128zM627 -6q-69 0 -111 50.5t-42 149.5t42 150t111 51
t110.5 -51t41.5 -150q0 -100 -41.5 -150t-110.5 -50zM986 -6q-69 0 -111 50.5t-42 149.5t42 150t111 51t110.5 -51t41.5 -150q0 -100 -41.5 -150t-110.5 -50zM627 66q72 0 72 128q0 131 -72 131q-73 0 -73 -131q0 -128 73 -128zM986 66q72 0 72 128q0 131 -72 131
q-73 0 -73 -131q0 -128 73 -128z" />
    <glyph glyph-name="guilsinglleft" unicode="&#x2039;" horiz-adv-x="320" 
d="M270 56l-220 148v102l220 148v-93l-168 -106l168 -106v-93z" />
    <glyph glyph-name="guilsinglright" unicode="&#x203a;" horiz-adv-x="320" 
d="M50 454l220 -148v-102l-220 -148v93l168 106l-168 106v93z" />
    <glyph glyph-name="fraction" unicode="&#x2044;" horiz-adv-x="90" 
d="M-245 0l520 750h60l-520 -750h-60z" />
    <glyph glyph-name="zerosuperior" unicode="&#x2070;" horiz-adv-x="358" 
d="M179 256q-69 0 -111 50.5t-42 149.5t42 150t111 51t110.5 -51t41.5 -150q0 -100 -41.5 -150t-110.5 -50zM179 328q72 0 72 128q0 131 -72 131q-73 0 -73 -131q0 -128 73 -128z" />
    <glyph glyph-name="foursuperior" unicode="&#x2074;" horiz-adv-x="345" 
d="M13 406l133 245h124v-244h70v-66h-70v-79h-78v79h-179v65zM86 407h106v197z" />
    <glyph glyph-name="fivesuperior" unicode="&#x2075;" horiz-adv-x="341" 
d="M174 468q-24 0 -40.5 -10.5t-19.5 -25.5h-76v219h266v-67h-194v-94q29 38 85 38q55 0 92 -36.5t37 -96.5q0 -62 -40.5 -100.5t-105.5 -38.5q-66 0 -106 36t-40 94h79q0 -28 18 -45t49 -17q30 0 49 20t19 51q0 32 -19 52.5t-53 20.5z" />
    <glyph glyph-name="sixsuperior" unicode="&#x2076;" horiz-adv-x="348" 
d="M326 385q0 -60 -40 -94.5t-101 -34.5q-70 0 -114 49.5t-44 151.5q0 99 45.5 149.5t112.5 50.5q58 0 97 -34.5t39 -87.5h-75q-1 25 -17 40t-43 15q-36 0 -57.5 -32.5t-21.5 -97.5v-5q28 58 95 58q51 0 87.5 -33.5t36.5 -94.5zM185 321q27 0 45.5 18t18.5 46q0 27 -18.5 45
t-45.5 18t-45 -18t-18 -45q0 -28 18 -46t45 -18z" />
    <glyph glyph-name="sevensuperior" unicode="&#x2077;" horiz-adv-x="277" 
d="M159 288v-26h-81v21q0 92 33.5 162.5t92.5 137.5h-199v68h265v-90q-58 -71 -84.5 -128t-26.5 -145z" />
    <glyph glyph-name="eightsuperior" unicode="&#x2078;" horiz-adv-x="345" 
d="M317 375q0 -54 -39 -86.5t-106 -32.5q-66 0 -105 32.5t-39 86.5q0 59 58 94q-45 29 -45 80q0 49 35.5 78.5t95.5 29.5t96 -29.5t36 -78.5q0 -50 -46 -80q59 -34 59 -94zM172 496q25 0 39.5 13.5t14.5 34.5q0 22 -14.5 35.5t-39.5 13.5q-24 0 -38.5 -13.5t-14.5 -35.5
q0 -21 14.5 -34.5t38.5 -13.5zM172 320q30 0 48 16.5t18 42.5q0 27 -18 43t-48 16t-47.5 -16.5t-17.5 -42.5t17.5 -42.5t47.5 -16.5z" />
    <glyph glyph-name="ninesuperior" unicode="&#x2079;" horiz-adv-x="348" 
d="M321 455q0 -98 -45.5 -148.5t-112.5 -50.5q-58 0 -97 34t-39 87h75q1 -24 17 -39t43 -15q37 0 58 32.5t21 97.5v5q-27 -59 -95 -59q-51 0 -87.5 34t-36.5 95q0 60 40 94.5t101 34.5q70 0 114 -50t44 -152zM163 591q-27 0 -45.5 -18t-18.5 -45t18.5 -45t45.5 -18t45 18
t18 45t-18 45t-45 18z" />
    <glyph glyph-name="parenleftsuperior" unicode="&#x207d;" horiz-adv-x="221" 
d="M54 447q0 169 100 303h65q-94 -126 -94 -303t94 -302h-65q-100 134 -100 302z" />
    <glyph glyph-name="parenrightsuperior" unicode="&#x207e;" horiz-adv-x="221" 
d="M167 447q0 -168 -100 -302h-65q94 125 94 302t-94 303h65q100 -134 100 -303z" />
    <glyph glyph-name="zeroinferior" unicode="&#x2080;" horiz-adv-x="358" 
d="M179 -256q-69 0 -111 50.5t-42 149.5t42 150t111 51t110.5 -51t41.5 -150q0 -100 -41.5 -150t-110.5 -50zM179 -184q72 0 72 128q0 131 -72 131q-73 0 -73 -131q0 -128 73 -128z" />
    <glyph glyph-name="oneinferior" unicode="&#x2081;" horiz-adv-x="202" 
d="M85 128v11h81v-389h-82v260h-73v64h23q28 0 39.5 12.5t11.5 41.5z" />
    <glyph glyph-name="twoinferior" unicode="&#x2082;" horiz-adv-x="316" 
d="M294 26q0 -35 -24 -65.5t-54 -49.5t-59 -44.5t-36 -48.5h177v-68h-276v30q0 36 20 67t49 53t57.5 41.5t48.5 41t20 42.5q0 24 -16 38t-41 14q-59 0 -59 -61v-12h-76v18q0 58 38 90.5t97 32.5q58 0 96 -31.5t38 -87.5z" />
    <glyph glyph-name="threeinferior" unicode="&#x2083;" horiz-adv-x="345" 
d="M323 -139q0 -55 -39.5 -86t-104.5 -31q-69 0 -112 34t-43 92h78q0 -27 20.5 -43t52.5 -16q31 0 49.5 14.5t18.5 39.5q0 53 -70 53h-37v65h37q28 0 43.5 12.5t15.5 33.5q0 22 -16.5 35t-45.5 13t-45.5 -14.5t-16.5 -40.5h-77q0 58 37.5 90.5t102.5 32.5q63 0 102 -30.5
t39 -79.5q0 -55 -51 -81q62 -30 62 -93z" />
    <glyph glyph-name="fourinferior" unicode="&#x2084;" horiz-adv-x="345" 
d="M13 -106l133 245h124v-244h70v-66h-70v-79h-78v79h-179v65zM86 -105h106v197z" />
    <glyph glyph-name="fiveinferior" unicode="&#x2085;" horiz-adv-x="341" 
d="M174 -44q-24 0 -40.5 -10.5t-19.5 -25.5h-76v219h266v-67h-194v-94q28 38 85 38q55 0 92 -36.5t37 -96.5q0 -62 -40.5 -100.5t-105.5 -38.5q-66 0 -106 36t-40 94h79q0 -28 18 -45t49 -17q30 0 49 20t19 51q0 32 -19 52.5t-53 20.5z" />
    <glyph glyph-name="sixinferior" unicode="&#x2086;" horiz-adv-x="348" 
d="M326 -127q0 -60 -40 -94.5t-101 -34.5q-70 0 -114 49.5t-44 151.5q0 99 45.5 149.5t112.5 50.5q58 0 97 -34.5t39 -87.5h-75q-1 25 -17 40t-43 15q-36 0 -57.5 -32.5t-21.5 -97.5v-5q28 58 95 58q51 0 87.5 -33.5t36.5 -94.5zM185 -191q27 0 45.5 18t18.5 46
q0 27 -18.5 45t-45.5 18t-45 -18t-18 -45q0 -28 18 -46t45 -18z" />
    <glyph glyph-name="seveninferior" unicode="&#x2087;" horiz-adv-x="277" 
d="M159 -224v-26h-81v21q0 92 33.5 162.5t92.5 137.5h-199v68h265v-90q-58 -71 -84.5 -128t-26.5 -145z" />
    <glyph glyph-name="eightinferior" unicode="&#x2088;" horiz-adv-x="345" 
d="M317 -137q0 -54 -39 -86.5t-106 -32.5q-66 0 -105 32.5t-39 86.5q0 59 58 94q-45 29 -45 80q0 49 35.5 78.5t95.5 29.5t96 -29.5t36 -78.5q0 -50 -46 -80q59 -34 59 -94zM172 -16q25 0 39.5 13.5t14.5 34.5q0 22 -14.5 35.5t-39.5 13.5q-24 0 -38.5 -13.5t-14.5 -35.5
q0 -21 14.5 -34.5t38.5 -13.5zM172 -192q30 0 48 16.5t18 42.5q0 27 -18 43t-48 16t-47.5 -16.5t-17.5 -42.5t17.5 -42.5t47.5 -16.5z" />
    <glyph glyph-name="nineinferior" unicode="&#x2089;" horiz-adv-x="348" 
d="M321 -57q0 -98 -45.5 -148.5t-112.5 -50.5q-58 0 -97 34t-39 87h75q1 -24 17 -39t43 -15q37 0 58 32.5t21 97.5v5q-27 -59 -95 -59q-51 0 -87.5 34t-36.5 95q0 60 40 94.5t101 34.5q70 0 114 -50t44 -152zM163 79q-27 0 -45.5 -18t-18.5 -45t18.5 -45t45.5 -18t45 18
t18 45t-18 45t-45 18z" />
    <glyph glyph-name="parenleftinferior" unicode="&#x208d;" horiz-adv-x="221" 
d="M54 -65q0 169 100 303h65q-94 -126 -94 -303t94 -302h-65q-100 134 -100 302z" />
    <glyph glyph-name="parenrightinferior" unicode="&#x208e;" horiz-adv-x="221" 
d="M167 -65q0 -168 -100 -302h-65q94 125 94 302t-94 303h65q100 -134 100 -303z" />
    <glyph glyph-name="Euro" unicode="&#x20ac;" 
d="M528 218q0 -108 -59.5 -168t-153.5 -60t-153.5 63t-59.5 177v18h-82v59h82v138h-82v59h82v16q0 114 59.5 177t153.5 63t153.5 -60t59.5 -168v-28h-100v20q0 144 -113 144t-113 -156v-8h158v-59h-158v-138h158v-59h-158v-10q0 -156 113 -156t113 144v22h100v-30z" />
    <glyph glyph-name="uni20B4" unicode="&#x20b4;" 
d="M505 488v-60h-460v60h281q40 40 40 88q0 44 -24 68t-65 24q-91 0 -91 -111v-19h-100v22q0 97 53.5 148.5t137.5 51.5t136.5 -45.5t52.5 -138.5q0 -49 -17 -88h56zM477 190q0 -94 -57 -147t-144 -53t-144 52t-57 148q0 42 15 77h-45v60h460v-60h-296q-34 -39 -34 -89
q0 -45 27.5 -70.5t73.5 -25.5t73.5 31t27.5 84v17h100v-24z" />
    <glyph glyph-name="uni20B8" unicode="&#x20b8;" 
d="M482 750v-60h-414v60h414zM68 461v92h414v-92h-157v-461h-100v461h-157z" />
    <glyph glyph-name="uni20BD" unicode="&#x20bd;" 
d="M30 394h66v356h217q95 0 151 -47.5t56 -140.5v-30q0 -97 -56.5 -147.5t-150.5 -50.5h-117v-128h210v-59h-210v-147h-100v147h-66v59h66v128h-66v60zM303 658h-107v-232h107q57 0 87 26.5t30 89.5v10q0 59 -29.5 82.5t-87.5 23.5z" />
    <glyph glyph-name="afii61352" unicode="&#x2116;" 
d="M441 506q-47 0 -75 33t-28 94q0 58 28 91t75 33q48 0 75.5 -32.5t27.5 -91.5q0 -61 -27.5 -94t-75.5 -33zM309 750v-750h-111l-84 677v-677h-72v750h123l74 -653v653h70zM441 562q47 0 47 71q0 70 -47 70t-47 -70q0 -71 47 -71zM346 419v56h191v-56h-191z" />
    <glyph glyph-name="uni2117" unicode="&#x2117;" horiz-adv-x="830" 
d="M415 -10q-163 0 -271.5 112.5t-108.5 272.5q0 161 108.5 273t271.5 112t271.5 -112t108.5 -273q0 -160 -108.5 -272.5t-271.5 -112.5zM415 713q-141 0 -234.5 -98.5t-93.5 -239.5t93.5 -239.5t234.5 -98.5t234.5 98.5t93.5 239.5t-93.5 239.5t-234.5 98.5zM287 175v400
h154q64 0 102.5 -33t38.5 -106q0 -64 -40 -102.5t-101 -38.5h-70v-120h-84zM433 500h-62v-131h62q66 0 66 67q0 64 -66 64z" />
    <glyph glyph-name="trademark" unicode="&#x2122;" horiz-adv-x="926" 
d="M777 350v354l-92 -354h-93l-92 354v-354h-68v400h132l78 -320l75 320h135v-400h-75zM38 682v68h304v-68h-113v-332h-76v332h-115z" />
    <glyph glyph-name="estimated" unicode="&#x212e;" horiz-adv-x="830" 
d="M173 354v-241q38 -42 101.5 -67t140.5 -25q110 0 194.5 59.5t122.5 146.5h34q-42 -103 -137 -170t-214 -67q-169 0 -274.5 106t-105.5 279q0 170 109 277.5t271 107.5q165 0 272.5 -112t107.5 -273q0 -4 -0.5 -10.5t-0.5 -10.5h-621zM173 385h491v238q-37 46 -102.5 75.5
t-146.5 29.5q-73 0 -139 -27.5t-103 -69.5v-246z" />
    <glyph glyph-name="arrowleft" unicode="&#x2190;" 
d="M307 141l-50 -50l-212 213l212 212l50 -50l-129 -129h327v-68h-325z" />
    <glyph glyph-name="arrowup" unicode="&#x2191;" 
d="M437 248l-129 129v-327h-68v325l-128 -127l-50 50l213 212l212 -212z" />
    <glyph glyph-name="arrowright" unicode="&#x2192;" 
d="M505 304l-212 -213l-50 50l127 128h-325v68h327l-129 129l50 50z" />
    <glyph glyph-name="arrowdown" unicode="&#x2193;" 
d="M487 202l-212 -212l-213 212l50 50l128 -127v325h68v-327l129 129z" />
    <glyph glyph-name="partialdiff" unicode="&#x2202;" horiz-adv-x="575" 
d="M535 327q0 -175 -69.5 -256t-183.5 -81q-105 0 -174 67.5t-69 172.5q0 106 64.5 173t169.5 67q100 0 154 -77q-10 135 -70.5 200t-163.5 65q-30 0 -56 -5v91q35 6 69 6q146 0 237.5 -111t91.5 -312zM282 82q62 0 102 41t40 107t-40 107t-102 41t-102.5 -41t-40.5 -107
t40.5 -107t102.5 -41z" />
    <glyph glyph-name="product" unicode="&#x220f;" horiz-adv-x="590" 
d="M74 -250v1000h442v-1000h-100v908h-242v-908h-100z" />
    <glyph glyph-name="summation" unicode="&#x2211;" horiz-adv-x="443" 
d="M410 -158v-92h-366v118l244 381l-244 383v118h367v-92h-262l219 -344v-128l-220 -344h262z" />
    <glyph glyph-name="minus" unicode="&#x2212;" 
d="M75 269v68h400v-68h-400z" />
    <glyph glyph-name="radical" unicode="&#x221a;" horiz-adv-x="500" 
d="M552 750l-232 -750h-140l-168 500h104l133 -416l199 666h104z" />
    <glyph glyph-name="infinity" unicode="&#x221e;" 
d="M512 302q0 -54 -36.5 -89.5t-91.5 -35.5q-79 0 -109 68q-30 -68 -108 -68q-56 0 -92.5 35.5t-36.5 89.5t36.5 89.5t92.5 35.5q78 0 108 -68q30 68 109 68q55 0 91.5 -35.5t36.5 -89.5zM167 237q27 0 45.5 18.5t18.5 46.5t-18.5 46.5t-45.5 18.5q-28 0 -46.5 -18.5
t-18.5 -46.5t18.5 -46.5t46.5 -18.5zM384 237q28 0 46 18.5t18 46.5t-18 46.5t-46 18.5q-27 0 -46 -18.5t-19 -46.5t19 -46.5t46 -18.5z" />
    <glyph glyph-name="integral" unicode="&#x222b;" horiz-adv-x="306" 
d="M22 -250q-34 0 -50 4v91q16 -3 37 -3q37 0 55 15.5t18 55.5v665q0 86 50 134t130 48q42 0 70 -9v-92q-27 9 -61 9q-89 0 -89 -93v-664q0 -161 -160 -161z" />
    <glyph glyph-name="approxequal" unicode="&#x2248;" 
d="M194 405q-20 0 -33.5 -14t-13.5 -40v-21h-72v33q0 56 28.5 87t74.5 31q37 0 72 -20t63 -40t49 -20q18 0 29.5 14t11.5 40v21h72v-33q0 -57 -28.5 -87.5t-74.5 -30.5q-38 0 -93 40t-85 40zM194 205q-20 0 -33.5 -14t-13.5 -40v-21h-72v33q0 56 28.5 87t74.5 31
q37 0 72 -20t63 -40t49 -20q18 0 29.5 14t11.5 40v21h72v-33q0 -57 -28.5 -87.5t-74.5 -30.5q-38 0 -93 40t-85 40z" />
    <glyph glyph-name="notequal" unicode="&#x2260;" 
d="M475 169h-255l-54 -73h-91l54 73h-54v68h105l99 132h-204v68h255l54 73h91l-54 -73h54v-68h-105l-99 -132h204v-68z" />
    <glyph glyph-name="lessequal" unicode="&#x2264;" 
d="M475 181v-77l-400 179v72l400 179v-77l-309 -138zM75 0v68h400v-68h-400z" />
    <glyph glyph-name="greaterequal" unicode="&#x2265;" 
d="M475 283l-400 -179v77l309 138l-309 138v77l400 -179v-72zM475 0h-400v68h400v-68z" />
    <glyph glyph-name="uni25B4" unicode="&#x25b4;" horiz-adv-x="563" 
d="M58 178l223 363l223 -363h-446z" />
    <glyph glyph-name="uni25B5" unicode="&#x25b5;" horiz-adv-x="563" 
d="M58 182l223 363l223 -363h-446zM154 236h254l-127 207z" />
    <glyph glyph-name="uni25B8" unicode="&#x25b8;" horiz-adv-x="563" 
d="M141 73v446l363 -223z" />
    <glyph glyph-name="uni25B9" unicode="&#x25b9;" horiz-adv-x="563" 
d="M141 77v446l363 -223zM197 173l206 127l-206 127v-254z" />
    <glyph glyph-name="uni25BE" unicode="&#x25be;" horiz-adv-x="563" 
d="M58 535h446l-223 -363z" />
    <glyph glyph-name="uni25BF" unicode="&#x25bf;" horiz-adv-x="563" 
d="M58 535h446l-223 -363zM154 481l127 -206l127 206h-254z" />
    <glyph glyph-name="uni25C2" unicode="&#x25c2;" horiz-adv-x="563" 
d="M422 73l-363 223l363 223v-446z" />
    <glyph glyph-name="uni25C3" unicode="&#x25c3;" horiz-adv-x="563" 
d="M422 77l-363 223l363 223v-446zM366 173v254l-206 -127z" />
    <glyph glyph-name="lozenge" unicode="&#x25ca;" horiz-adv-x="500" 
d="M214 0l-183 375l183 375h72l183 -375l-183 -375h-72zM250 85l142 290l-142 290l-142 -290z" />
    <glyph glyph-name="heart" unicode="&#x2665;" horiz-adv-x="843" 
d="M437 0h-31q-17 51 -58.5 97.5t-87 83t-89.5 76t-72.5 91.5t-28.5 114q0 89 52 138.5t129 49.5q56 0 101 -29.5t69 -90.5q23 61 69 90.5t102 29.5q76 0 128.5 -49.5t52.5 -138.5q0 -62 -28.5 -114t-72.5 -91.5t-89.5 -76t-87 -83t-58.5 -97.5zM442 440h-41
q-43 142 -144 142q-49 0 -81 -33.5t-32 -96.5q0 -46 20.5 -83.5t53.5 -66t69 -54.5t74 -62t60 -76q22 40 60 76t74 62t69.5 54.5t54 66t20.5 83.5q0 63 -32 96.5t-81 33.5q-103 0 -144 -142z" />
    <glyph glyph-name="uni2780" unicode="&#x2780;" horiz-adv-x="830" 
d="M415 -10q-163 0 -271.5 112.5t-108.5 272.5q0 161 108.5 273t271.5 112t271.5 -112t108.5 -273q0 -160 -108.5 -272.5t-271.5 -112.5zM415 713q-141 0 -234.5 -98.5t-93.5 -239.5t93.5 -239.5t234.5 -98.5t234.5 98.5t93.5 239.5t-93.5 239.5t-234.5 98.5zM383 558v11h81
v-389h-82v260h-73v64h23q28 0 39.5 12.5t11.5 41.5z" />
    <glyph glyph-name="uni2781" unicode="&#x2781;" horiz-adv-x="830" 
d="M415 -10q-163 0 -271.5 112.5t-108.5 272.5q0 161 108.5 273t271.5 112t271.5 -112t108.5 -273q0 -160 -108.5 -272.5t-271.5 -112.5zM415 713q-141 0 -234.5 -98.5t-93.5 -239.5t93.5 -239.5t234.5 -98.5t234.5 98.5t93.5 239.5t-93.5 239.5t-234.5 98.5zM544 456
q0 -35 -24 -65.5t-54 -49.5t-59 -44.5t-36 -48.5h177v-68h-276v30q0 36 20 67t49 53t57.5 41.5t48.5 41t20 42.5q0 24 -16 38t-41 14q-59 0 -59 -61v-12h-76v18q0 58 38 90.5t97 32.5q58 0 96 -31.5t38 -87.5z" />
    <glyph glyph-name="uni2782" unicode="&#x2782;" horiz-adv-x="830" 
d="M415 -10q-163 0 -271.5 112.5t-108.5 272.5q0 161 108.5 273t271.5 112t271.5 -112t108.5 -273q0 -160 -108.5 -272.5t-271.5 -112.5zM415 713q-141 0 -234.5 -98.5t-93.5 -239.5t93.5 -239.5t234.5 -98.5t234.5 98.5t93.5 239.5t-93.5 239.5t-234.5 98.5zM561 291
q0 -55 -39.5 -86t-104.5 -31q-69 0 -112 34t-43 92h78q0 -27 20.5 -43t52.5 -16q31 0 49.5 14.5t18.5 39.5q0 53 -70 53h-37v65h37q28 0 43.5 12.5t15.5 33.5q0 22 -16.5 35t-45.5 13t-45.5 -14.5t-16.5 -40.5h-77q0 58 37.5 90.5t102.5 32.5q63 0 102 -30.5t39 -79.5
q0 -55 -51 -81q62 -30 62 -93z" />
    <glyph glyph-name="uni2783" unicode="&#x2783;" horiz-adv-x="830" 
d="M415 -10q-163 0 -271.5 112.5t-108.5 272.5q0 161 108.5 273t271.5 112t271.5 -112t108.5 -273q0 -160 -108.5 -272.5t-271.5 -112.5zM415 713q-141 0 -234.5 -98.5t-93.5 -239.5t93.5 -239.5t234.5 -98.5t234.5 98.5t93.5 239.5t-93.5 239.5t-234.5 98.5zM233 324
l133 245h124v-244h70v-66h-70v-79h-78v79h-179v65zM306 325h106v197z" />
    <glyph glyph-name="uni2784" unicode="&#x2784;" horiz-adv-x="830" 
d="M415 -10q-163 0 -271.5 112.5t-108.5 272.5q0 161 108.5 273t271.5 112t271.5 -112t108.5 -273q0 -160 -108.5 -272.5t-271.5 -112.5zM415 713q-141 0 -234.5 -98.5t-93.5 -239.5t93.5 -239.5t234.5 -98.5t234.5 98.5t93.5 239.5t-93.5 239.5t-234.5 98.5zM410 386
q-24 0 -40.5 -10.5t-19.5 -25.5h-76v219h266v-67h-194v-94q28 38 85 38q55 0 92 -36.5t37 -96.5q0 -62 -40.5 -100.5t-105.5 -38.5q-66 0 -106 36t-40 94h79q0 -28 18 -45t49 -17q30 0 49 20t19 51q0 32 -19 52.5t-53 20.5z" />
    <glyph glyph-name="uni2785" unicode="&#x2785;" horiz-adv-x="830" 
d="M415 -10q-163 0 -271.5 112.5t-108.5 272.5q0 161 108.5 273t271.5 112t271.5 -112t108.5 -273q0 -160 -108.5 -272.5t-271.5 -112.5zM415 713q-141 0 -234.5 -98.5t-93.5 -239.5t93.5 -239.5t234.5 -98.5t234.5 98.5t93.5 239.5t-93.5 239.5t-234.5 98.5zM556 303
q0 -60 -40 -94.5t-101 -34.5q-70 0 -114 49.5t-44 151.5q0 99 45.5 149.5t112.5 50.5q58 0 97 -34.5t39 -87.5h-75q-1 25 -17 40t-43 15q-36 0 -57.5 -32.5t-21.5 -97.5v-5q28 58 95 58q51 0 87.5 -33.5t36.5 -94.5zM415 239q27 0 45.5 18t18.5 46q0 27 -18.5 45t-45.5 18
t-45 -18t-18 -45q0 -28 18 -46t45 -18z" />
    <glyph glyph-name="uni2786" unicode="&#x2786;" horiz-adv-x="830" 
d="M415 -10q-163 0 -271.5 112.5t-108.5 272.5q0 161 108.5 273t271.5 112t271.5 -112t108.5 -273q0 -160 -108.5 -272.5t-271.5 -112.5zM415 713q-141 0 -234.5 -98.5t-93.5 -239.5t93.5 -239.5t234.5 -98.5t234.5 98.5t93.5 239.5t-93.5 239.5t-234.5 98.5zM443 206v-26
h-81v21q0 92 33.5 162.5t92.5 137.5h-199v68h265v-90q-58 -71 -84.5 -128t-26.5 -145z" />
    <glyph glyph-name="uni2787" unicode="&#x2787;" horiz-adv-x="830" 
d="M415 -10q-163 0 -271.5 112.5t-108.5 272.5q0 161 108.5 273t271.5 112t271.5 -112t108.5 -273q0 -160 -108.5 -272.5t-271.5 -112.5zM415 713q-141 0 -234.5 -98.5t-93.5 -239.5t93.5 -239.5t234.5 -98.5t234.5 98.5t93.5 239.5t-93.5 239.5t-234.5 98.5zM560 293
q0 -54 -39 -86.5t-106 -32.5q-66 0 -105 32.5t-39 86.5q0 59 58 94q-45 29 -45 80q0 49 35.5 78.5t95.5 29.5t96 -29.5t36 -78.5q0 -50 -46 -80q59 -34 59 -94zM415 414q25 0 39.5 13.5t14.5 34.5q0 22 -14.5 35.5t-39.5 13.5q-24 0 -38.5 -13.5t-14.5 -35.5
q0 -21 14.5 -34.5t38.5 -13.5zM415 238q30 0 48 16.5t18 42.5q0 27 -18 43t-48 16t-47.5 -16.5t-17.5 -42.5t17.5 -42.5t47.5 -16.5z" />
    <glyph glyph-name="uni2788" unicode="&#x2788;" horiz-adv-x="830" 
d="M415 -10q-163 0 -271.5 112.5t-108.5 272.5q0 161 108.5 273t271.5 112t271.5 -112t108.5 -273q0 -160 -108.5 -272.5t-271.5 -112.5zM415 713q-141 0 -234.5 -98.5t-93.5 -239.5t93.5 -239.5t234.5 -98.5t234.5 98.5t93.5 239.5t-93.5 239.5t-234.5 98.5zM573 373
q0 -98 -45.5 -148.5t-112.5 -50.5q-58 0 -97 34t-39 87h75q1 -24 17 -39t43 -15q37 0 58 32.5t21 97.5v5q-27 -59 -95 -59q-51 0 -87.5 34t-36.5 95q0 60 40 94.5t101 34.5q70 0 114 -50t44 -152zM415 509q-27 0 -45.5 -18t-18.5 -45t18.5 -45t45.5 -18t45 18t18 45t-18 45
t-45 18z" />
    <glyph glyph-name="uni2789" unicode="&#x2789;" horiz-adv-x="830" 
d="M415 -10q-163 0 -271.5 112.5t-108.5 272.5q0 161 108.5 273t271.5 112t271.5 -112t108.5 -273q0 -160 -108.5 -272.5t-271.5 -112.5zM415 713q-141 0 -234.5 -98.5t-93.5 -239.5t93.5 -239.5t234.5 -98.5t234.5 98.5t93.5 239.5t-93.5 239.5t-234.5 98.5zM525 175
q-69 0 -111 50.5t-42 149.5t42 150t111 51t110.5 -51t41.5 -150q0 -100 -41.5 -150t-110.5 -50zM235 558v11h81v-389h-82v260h-73v64h23q28 0 39.5 12.5t11.5 41.5zM525 247q72 0 72 128q0 131 -72 131q-73 0 -73 -131q0 -128 73 -128z" />
    <glyph glyph-name="uni278A" unicode="&#x278a;" horiz-adv-x="830" 
d="M415 -10q-163 0 -271.5 112.5t-108.5 272.5q0 161 108.5 273t271.5 112t271.5 -112t108.5 -273q0 -160 -108.5 -272.5t-271.5 -112.5zM383 558q0 -29 -11.5 -41.5t-39.5 -12.5h-23v-64h73v-260h82v389h-81v-11z" />
    <glyph glyph-name="uni278B" unicode="&#x278b;" horiz-adv-x="830" 
d="M415 -10q-163 0 -271.5 112.5t-108.5 272.5q0 161 108.5 273t271.5 112t271.5 -112t108.5 -273q0 -160 -108.5 -272.5t-271.5 -112.5zM544 456q0 56 -38 87.5t-96 31.5q-59 0 -97 -32.5t-38 -90.5v-18h76v12q0 61 59 61q25 0 41 -14t16 -38q0 -21 -20 -42.5t-48.5 -41
t-57.5 -41.5t-49 -53t-20 -67v-30h276v68h-177q7 23 36 48.5t59 44.5t54 49.5t24 65.5z" />
    <glyph glyph-name="uni278C" unicode="&#x278c;" horiz-adv-x="830" 
d="M415 -10q-163 0 -271.5 112.5t-108.5 272.5q0 161 108.5 273t271.5 112t271.5 -112t108.5 -273q0 -160 -108.5 -272.5t-271.5 -112.5zM417 174q65 0 104.5 31t39.5 86q0 65 -63 93q52 25 52 81q0 49 -39 79.5t-102 30.5q-65 0 -102.5 -32.5t-37.5 -90.5h77
q0 26 16.5 40.5t45.5 14.5t45.5 -13t16.5 -35q0 -21 -15.5 -33.5t-43.5 -12.5h-37v-65h37q70 0 70 -53q0 -25 -18.5 -39.5t-49.5 -14.5q-32 0 -52.5 16t-20.5 43h-78q0 -58 43 -92t112 -34z" />
    <glyph glyph-name="uni278D" unicode="&#x278d;" horiz-adv-x="830" 
d="M415 -10q-163 0 -271.5 112.5t-108.5 272.5q0 161 108.5 273t271.5 112t271.5 -112t108.5 -273q0 -160 -108.5 -272.5t-271.5 -112.5zM560 259v66h-70v244h-124l-133 -245v-65h179v-79h78v79h70zM306 325l106 192v-192h-106z" />
    <glyph glyph-name="uni278E" unicode="&#x278e;" horiz-adv-x="830" 
d="M415 -10q-163 0 -271.5 112.5t-108.5 272.5q0 161 108.5 273t271.5 112t271.5 -112t108.5 -273q0 -160 -108.5 -272.5t-271.5 -112.5zM414 174q65 0 105.5 38.5t40.5 100.5q0 60 -37 96.5t-92 36.5q-54 0 -85 -37v93h194v67h-266v-219h76q3 15 19.5 25.5t40.5 10.5
q34 0 53 -20.5t19 -52.5q0 -31 -19 -51t-49 -20q-31 0 -49 17t-18 45h-79q0 -58 40 -94t106 -36z" />
    <glyph glyph-name="uni278F" unicode="&#x278f;" horiz-adv-x="830" 
d="M415 -10q-163 0 -271.5 112.5t-108.5 272.5q0 161 108.5 273t271.5 112t271.5 -112t108.5 -273q0 -160 -108.5 -272.5t-271.5 -112.5zM415 174q61 0 101 34.5t40 94.5q0 61 -36.5 94.5t-87.5 33.5q-69 0 -94 -61q-1 3 -1 12q0 62 21.5 94t57.5 32q27 0 43 -15t17 -40h75
q0 53 -39 87.5t-97 34.5q-67 0 -112.5 -50.5t-45.5 -149.5q0 -102 44 -151.5t114 -49.5zM415 239q-27 0 -45 18t-18 46q0 27 18 45t45 18t45.5 -18t18.5 -45q0 -28 -18.5 -46t-45.5 -18z" />
    <glyph glyph-name="uni2790" unicode="&#x2790;" horiz-adv-x="830" 
d="M415 -10q-163 0 -271.5 112.5t-108.5 272.5q0 161 108.5 273t271.5 112t271.5 -112t108.5 -273q0 -160 -108.5 -272.5t-271.5 -112.5zM443 180v26q0 88 26.5 145t84.5 128v90h-265v-68h199q-126 -141 -126 -300v-21h81z" />
    <glyph glyph-name="uni2791" unicode="&#x2791;" horiz-adv-x="830" 
d="M415 -10q-163 0 -271.5 112.5t-108.5 272.5q0 161 108.5 273t271.5 112t271.5 -112t108.5 -273q0 -160 -108.5 -272.5t-271.5 -112.5zM415 174q67 0 106 32.5t39 86.5q0 61 -61 94q48 29 48 80q0 49 -36 78.5t-96 29.5t-95.5 -29.5t-35.5 -78.5q0 -51 47 -80
q-60 -33 -60 -94q0 -54 39 -86.5t105 -32.5zM415 414q-24 0 -38.5 13.5t-14.5 34.5q0 22 14.5 35.5t38.5 13.5q25 0 39.5 -13.5t14.5 -35.5q0 -21 -14.5 -34.5t-39.5 -13.5zM415 238q-30 0 -47.5 16.5t-17.5 42.5t17.5 42.5t47.5 16.5t48 -16t18 -43q0 -26 -18 -42.5
t-48 -16.5z" />
    <glyph glyph-name="uni2792" unicode="&#x2792;" horiz-adv-x="830" 
d="M415 -10q-163 0 -271.5 112.5t-108.5 272.5q0 161 108.5 273t271.5 112t271.5 -112t108.5 -273q0 -160 -108.5 -272.5t-271.5 -112.5zM493 367q-1 -64 -22 -95t-57 -31q-27 0 -43 15t-17 39h-75q0 -53 39 -87t97 -34q67 0 112.5 50.5t45.5 148.5q0 102 -44 152t-114 50
q-61 0 -101 -34.5t-40 -94.5q0 -61 36.5 -95t87.5 -34q69 0 94 62q1 -3 1 -12zM415 509q27 0 45 -18t18 -45t-18 -45t-45 -18t-45.5 18t-18.5 45t18.5 45t45.5 18z" />
    <glyph glyph-name="uni2793" unicode="&#x2793;" horiz-adv-x="830" 
d="M415 -10q-163 0 -271.5 112.5t-108.5 272.5q0 161 108.5 273t271.5 112t271.5 -112t108.5 -273q0 -160 -108.5 -272.5t-271.5 -112.5zM525 175q69 0 110.5 50t41.5 150q0 99 -41.5 150t-110.5 51t-111 -51t-42 -150t42 -149.5t111 -50.5zM235 558q0 -29 -11.5 -41.5
t-39.5 -12.5h-23v-64h73v-260h82v389h-81v-11zM525 247q-73 0 -73 128q0 131 73 131q72 0 72 -131q0 -128 -72 -128z" />
    <glyph glyph-name="uni27F7" unicode="&#x27f7;" horiz-adv-x="870" 
d="M821 304l-212 -213l-50 50l127 128h-502l127 -128l-50 -50l-212 213l212 212l50 -50l-129 -129h506l-129 129l50 50z" />
    <glyph glyph-name="commaaccent" unicode="&#xf6c3;" horiz-adv-x="500" 
d="M236 -210h-67l30 150h103z" />
    <glyph glyph-name="centinferior" unicode="&#xf6df;" horiz-adv-x="358" 
d="M346 -110q-6 -60 -45.5 -99.5t-99.5 -45.5v-76h-40v76q-65 7 -107 53.5t-42 115.5q0 68 42 114t107 53v75h40v-75q58 -6 97 -43.5t47 -94.5h-79q-5 27 -22.5 44.5t-42.5 22.5v-194q58 13 66 74h79zM90 -86q0 -85 71 -98v194q-33 -6 -52 -32t-19 -64z" />
    <glyph glyph-name="centsuperior" unicode="&#xf6e0;" horiz-adv-x="358" 
d="M346 402q-6 -60 -45.5 -99.5t-99.5 -45.5v-76h-40v76q-65 7 -107 53.5t-42 115.5q0 68 42 114t107 53v75h40v-75q58 -6 97 -43.5t47 -94.5h-79q-5 27 -22.5 44.5t-42.5 22.5v-194q58 13 66 74h79zM90 426q0 -85 71 -98v194q-33 -6 -52 -32t-19 -64z" />
    <glyph glyph-name="commainferior" unicode="&#xf6e1;" horiz-adv-x="139" 
d="M118 -217q0 -47 -49 -117h-42q29 45 39 78q-18 2 -30 15.5t-12 30.5q0 19 14 32.5t33 13.5q20 0 33.5 -15t13.5 -38z" />
    <glyph glyph-name="commasuperior" unicode="&#xf6e2;" horiz-adv-x="142" 
d="M118 295q0 -47 -49 -117h-42q29 45 39 78q-18 2 -30 15.5t-12 30.5q0 19 14 32.5t33 13.5q20 0 33.5 -15t13.5 -38z" />
    <glyph glyph-name="dollarinferior" unicode="&#xf6e3;" horiz-adv-x="328" 
d="M304 -142q0 -49 -32.5 -79t-86.5 -34v-76h-39v76q-54 6 -88 38.5t-34 84.5h76q0 -50 46 -60v109q-27 9 -42 15.5t-34.5 20t-28.5 34.5t-9 49q0 46 31.5 75t82.5 33v77h39v-78q50 -7 82.5 -39.5t32.5 -77.5h-76q0 40 -39 53v-100q28 -9 43 -15.5t36 -20.5t30.5 -35
t9.5 -50zM107 39q0 -29 39 -46v89q-39 -8 -39 -43zM228 -146q0 32 -43 49v-97q43 8 43 48z" />
    <glyph glyph-name="dollarsuperior" unicode="&#xf6e4;" horiz-adv-x="328" 
d="M304 370q0 -49 -32.5 -79t-86.5 -34v-76h-39v76q-54 6 -88 38.5t-34 84.5h76q0 -50 46 -60v109q-27 9 -42 15.5t-34.5 20t-28.5 34.5t-9 49q0 46 31.5 75t82.5 33v77h39v-78q50 -7 82.5 -39.5t32.5 -77.5h-76q0 40 -39 53v-100q28 -9 43 -15.5t36 -20.5t30.5 -35t9.5 -50
zM107 551q0 -29 39 -46v89q-39 -8 -39 -43zM228 366q0 32 -43 49v-97q43 8 43 48z" />
    <glyph glyph-name="periodinferior" unicode="&#xf6e7;" horiz-adv-x="139" 
d="M71 -256q-21 0 -34.5 14t-13.5 34t13.5 33.5t34.5 13.5q20 0 34 -13.5t14 -33.5t-14 -34t-34 -14z" />
    <glyph glyph-name="periodsuperior" unicode="&#xf6e8;" horiz-adv-x="142" 
d="M71 256q-21 0 -34.5 14t-13.5 34t13.5 33.5t34.5 13.5q20 0 34 -13.5t14 -33.5t-14 -34t-34 -14z" />
    <glyph glyph-name="CR" horiz-adv-x="250" 
 />
    <glyph glyph-name="thinspace" horiz-adv-x="125" 
 />
    <glyph glyph-name="fi.cap" horiz-adv-x="682" 
d="M74 0v750h336v-92h-236v-246h206v-92h-206v-320h-100zM608 0h-100v750h100v-750z" />
    <glyph glyph-name="fl.cap" horiz-adv-x="868" 
d="M74 0v750h336v-92h-236v-246h206v-92h-206v-320h-100zM852 92v-92h-344v750h100v-658h244z" />
    <glyph glyph-name="germandbls.cap" horiz-adv-x="970" 
d="M55 576q0 93 52.5 138.5t136.5 45.5t137.5 -51.5t53.5 -148.5v-46h-100v43q0 111 -91 111q-41 0 -65 -24t-24 -68q0 -41 22.5 -69.5t65.5 -57.5l81 -58q58 -41 90 -87.5t32 -113.5q0 -96 -56.5 -148t-144.5 -52q-87 0 -144 53t-57 147v56h100v-49q0 -53 27.5 -84
t73.5 -31q47 0 74 25.5t27 70.5q0 76 -89 137l-79 55q-58 40 -90.5 88.5t-32.5 117.5zM540 576q0 93 52.5 138.5t136.5 45.5t137.5 -51.5t53.5 -148.5v-46h-100v43q0 111 -91 111q-41 0 -65 -24t-24 -68q0 -41 22.5 -69.5t65.5 -57.5l81 -58q58 -41 90 -87.5t32 -113.5
q0 -96 -56.5 -148t-144.5 -52q-87 0 -144 53t-57 147v56h100v-49q0 -53 27.5 -84t73.5 -31q47 0 74 25.5t27 70.5q0 76 -89 137l-79 55q-58 40 -90.5 88.5t-32.5 117.5z" />
    <glyph glyph-name="Schwa" horiz-adv-x="570" 
d="M285 -10q-105 0 -163 65t-58 191v143h342v115q0 87 -31 125.5t-90 38.5q-121 0 -121 -164v-40h-100v40q0 126 58 191t163 65t163 -65t58 -191v-258q0 -126 -58 -191t-163 -65zM164 246q0 -87 31 -125.5t90 -38.5q121 0 121 164v51h-242v-51z" />
    <glyph glyph-name="afii10021.bgr" horiz-adv-x="604" 
d="M378 750l147 -658h69v-227h-92v135h-401v-135h-91v227h71l146 658h151zM179 92h248l-124 576z" />
    <glyph glyph-name="afii10024.bgr" horiz-adv-x="740" 
d="M322 0v366l-200 -366h-118l217 388l-210 362h112l199 -362v362h100v-364l200 364h107l-209 -363l216 -387h-113l-201 368v-368h-100z" />
    <glyph glyph-name="afii10028.bgr" horiz-adv-x="519" 
d="M395 0l-221 369v-369h-100v750h100v-365l219 365h110l-225 -359l237 -391h-120z" />
    <glyph glyph-name="afii10029.bgr" horiz-adv-x="510" 
d="M12 0l168 750h150l168 -750h-101l-142 670l-142 -670h-101z" />
    <glyph glyph-name="a.alt" horiz-adv-x="615" 
d="M441 0v75q-63 -85 -164 -85q-103 0 -171.5 73t-68.5 187t68.5 187t171.5 73q101 0 164 -85v75h100v-500h-100zM289 418q-66 0 -109 -46.5t-43 -121.5t43 -121.5t109 -46.5t109 46.5t43 121.5t-43 121.5t-109 46.5z" />
    <glyph glyph-name="g.alt" horiz-adv-x="540" 
d="M525 -103q0 -72 -60.5 -114.5t-184.5 -42.5h-17q-119 0 -178.5 37.5t-59.5 99.5q0 69 80 103q-66 31 -66 99q0 81 90 108q-69 53 -69 140q0 79 58 131t142 52q77 0 135 -45l14 21q9 14 18.5 19t27.5 5h75v-102h-89q19 -38 19 -81q0 -80 -58 -131.5t-142 -51.5
q-44 0 -82 15q-23 -4 -37 -18t-14 -35q0 -54 76 -54h109q213 0 213 -155zM260 228q45 0 74.5 28t29.5 71q0 44 -29 71.5t-75 27.5t-75 -27.5t-29 -71.5q0 -43 29.5 -71t74.5 -28zM273 -176h6q150 0 150 75q0 65 -123 65h-59q-127 0 -127 -65q0 -75 153 -75z" />
    <glyph glyph-name="agrave.alt" horiz-adv-x="615" 
d="M247 600l-92 150h111l64 -150h-83zM441 0v75q-63 -85 -164 -85q-103 0 -171.5 73t-68.5 187t68.5 187t171.5 73q101 0 164 -85v75h100v-500h-100zM289 418q-66 0 -109 -46.5t-43 -121.5t43 -121.5t109 -46.5t109 46.5t43 121.5t-43 121.5t-109 46.5z" />
    <glyph glyph-name="aacute.alt" horiz-adv-x="615" 
d="M332 600h-83l64 150h111zM441 0v75q-63 -85 -164 -85q-103 0 -171.5 73t-68.5 187t68.5 187t171.5 73q101 0 164 -85v75h100v-500h-100zM289 418q-66 0 -109 -46.5t-43 -121.5t43 -121.5t109 -46.5t109 46.5t43 121.5t-43 121.5t-109 46.5z" />
    <glyph glyph-name="acircumflex.alt" horiz-adv-x="615" 
d="M209 600h-83l104 150h110l104 -150h-83l-76 87zM441 0v75q-63 -85 -164 -85q-103 0 -171.5 73t-68.5 187t68.5 187t171.5 73q101 0 164 -85v75h100v-500h-100zM289 418q-66 0 -109 -46.5t-43 -121.5t43 -121.5t109 -46.5t109 46.5t43 121.5t-43 121.5t-109 46.5z" />
    <glyph glyph-name="atilde.alt" horiz-adv-x="615" 
d="M121 602v50q0 96 82 96q35 0 81.5 -34t64.5 -34q32 0 32 39v27h68v-50q0 -96 -82 -96q-35 0 -81.5 34t-64.5 34q-32 0 -32 -39v-27h-68zM441 0v75q-63 -85 -164 -85q-103 0 -171.5 73t-68.5 187t68.5 187t171.5 73q101 0 164 -85v75h100v-500h-100zM289 418
q-66 0 -109 -46.5t-43 -121.5t43 -121.5t109 -46.5t109 46.5t43 121.5t-43 121.5t-109 46.5z" />
    <glyph glyph-name="adieresis.alt" horiz-adv-x="615" 
d="M185 617q-24 0 -41 17t-17 41t17 41t41 17q25 0 41.5 -17t16.5 -41t-16.5 -41t-41.5 -17zM385 617q-24 0 -41 17t-17 41t17 41t41 17q25 0 41.5 -17t16.5 -41t-16.5 -41t-41.5 -17zM441 0v75q-63 -85 -164 -85q-103 0 -171.5 73t-68.5 187t68.5 187t171.5 73
q101 0 164 -85v75h100v-500h-100zM289 418q-66 0 -109 -46.5t-43 -121.5t43 -121.5t109 -46.5t109 46.5t43 121.5t-43 121.5t-109 46.5z" />
    <glyph glyph-name="amacron.alt" horiz-adv-x="615" 
d="M427 683v-67h-276v67h276zM441 0v75q-63 -85 -164 -85q-103 0 -171.5 73t-68.5 187t68.5 187t171.5 73q101 0 164 -85v75h100v-500h-100zM289 418q-66 0 -109 -46.5t-43 -121.5t43 -121.5t109 -46.5t109 46.5t43 121.5t-43 121.5t-109 46.5z" />
    <glyph glyph-name="abreve.alt" horiz-adv-x="615" 
d="M357 750h79q0 -70 -41.5 -110t-109.5 -40t-109 40t-41 110h79q0 -39 20.5 -58.5t50.5 -19.5q72 0 72 78zM441 0v75q-63 -85 -164 -85q-103 0 -171.5 73t-68.5 187t68.5 187t171.5 73q101 0 164 -85v75h100v-500h-100zM289 418q-66 0 -109 -46.5t-43 -121.5t43 -121.5
t109 -46.5t109 46.5t43 121.5t-43 121.5t-109 46.5z" />
    <glyph glyph-name="aring.alt" horiz-adv-x="615" 
d="M285 570q-46 0 -75 27.5t-29 67.5t29 67.5t75 27.5t75.5 -27.5t29.5 -67.5t-29.5 -67.5t-75.5 -27.5zM285 622q20 0 32.5 12t12.5 31t-12.5 31t-32.5 12q-18 0 -31 -12.5t-13 -30.5t13 -30.5t31 -12.5zM441 0v75q-63 -85 -164 -85q-103 0 -171.5 73t-68.5 187t68.5 187
t171.5 73q101 0 164 -85v75h100v-500h-100zM289 418q-66 0 -109 -46.5t-43 -121.5t43 -121.5t109 -46.5t109 46.5t43 121.5t-43 121.5t-109 46.5z" />
    <glyph glyph-name="aringacute.alt" horiz-adv-x="615" 
d="M324 820h-83l64 150h111zM285 570q-46 0 -75 27.5t-29 67.5t29 67.5t75 27.5t75.5 -27.5t29.5 -67.5t-29.5 -67.5t-75.5 -27.5zM285 622q20 0 32.5 12t12.5 31t-12.5 31t-32.5 12q-18 0 -31 -12.5t-13 -30.5t13 -30.5t31 -12.5zM441 0v75q-63 -85 -164 -85
q-103 0 -171.5 73t-68.5 187t68.5 187t171.5 73q101 0 164 -85v75h100v-500h-100zM289 418q-66 0 -109 -46.5t-43 -121.5t43 -121.5t109 -46.5t109 46.5t43 121.5t-43 121.5t-109 46.5z" />
    <glyph glyph-name="aogonek.alt" horiz-adv-x="615" 
d="M348 -166q0 11 2.5 22.5t8.5 24.5t11 22.5t16 24.5t16.5 23t19.5 25t19 24v75q-63 -85 -164 -85q-103 0 -171.5 73t-68.5 187t68.5 187t171.5 73q101 0 164 -85v75h100v-500h-40q-81 -108 -81 -157q0 -41 44 -41q41 0 47 38h73q0 -42 -33.5 -68t-88.5 -26q-52 0 -83 23.5
t-31 64.5zM289 418q-66 0 -109 -46.5t-43 -121.5t43 -121.5t109 -46.5t109 46.5t43 121.5t-43 121.5t-109 46.5z" />
    <glyph glyph-name="ae.alt" horiz-adv-x="974" 
d="M937 250q0 -12 -2 -34h-392q9 -65 49 -101.5t103 -36.5q89 0 121 72h108q-23 -77 -84.5 -118.5t-148.5 -41.5q-90 0 -150 68v-58h-100v75q-63 -85 -164 -85q-103 0 -171.5 73t-68.5 187t68.5 187t171.5 73q101 0 164 -85v75h100v-58q60 68 150 68q107 0 176.5 -73
t69.5 -187zM691 422q-61 0 -99.5 -35.5t-47.5 -98.5h294q-9 63 -48 98.5t-99 35.5zM289 418q-66 0 -109 -46.5t-43 -121.5t43 -121.5t109 -46.5t109 46.5t43 121.5t-43 121.5t-109 46.5z" />
    <glyph glyph-name="aeacute.alt" horiz-adv-x="974" 
d="M537 600h-83l64 150h111zM937 250q0 -12 -2 -34h-392q9 -65 49 -101.5t103 -36.5q89 0 121 72h108q-23 -77 -84.5 -118.5t-148.5 -41.5q-90 0 -150 68v-58h-100v75q-63 -85 -164 -85q-103 0 -171.5 73t-68.5 187t68.5 187t171.5 73q101 0 164 -85v75h100v-58
q60 68 150 68q107 0 176.5 -73t69.5 -187zM691 422q-61 0 -99.5 -35.5t-47.5 -98.5h294q-9 63 -48 98.5t-99 35.5zM289 418q-66 0 -109 -46.5t-43 -121.5t43 -121.5t109 -46.5t109 46.5t43 121.5t-43 121.5t-109 46.5z" />
    <glyph glyph-name="gcircumflex.alt" horiz-adv-x="540" 
d="M184 600h-83l104 150h110l104 -150h-83l-76 87zM525 -103q0 -72 -60.5 -114.5t-184.5 -42.5h-17q-119 0 -178.5 37.5t-59.5 99.5q0 69 80 103q-66 31 -66 99q0 81 90 108q-69 53 -69 140q0 79 58 131t142 52q77 0 135 -45l14 21q9 14 18.5 19t27.5 5h75v-102h-89
q19 -38 19 -81q0 -80 -58 -131.5t-142 -51.5q-44 0 -82 15q-23 -4 -37 -18t-14 -35q0 -54 76 -54h109q213 0 213 -155zM260 228q45 0 74.5 28t29.5 71q0 44 -29 71.5t-75 27.5t-75 -27.5t-29 -71.5q0 -43 29.5 -71t74.5 -28zM273 -176h6q150 0 150 75q0 65 -123 65h-59
q-127 0 -127 -65q0 -75 153 -75z" />
    <glyph glyph-name="gbreve.alt" horiz-adv-x="540" 
d="M332 750h79q0 -70 -41.5 -110t-109.5 -40t-109 40t-41 110h79q0 -39 20.5 -58.5t50.5 -19.5q72 0 72 78zM525 -103q0 -72 -60.5 -114.5t-184.5 -42.5h-17q-119 0 -178.5 37.5t-59.5 99.5q0 69 80 103q-66 31 -66 99q0 81 90 108q-69 53 -69 140q0 79 58 131t142 52
q77 0 135 -45l14 21q9 14 18.5 19t27.5 5h75v-102h-89q19 -38 19 -81q0 -80 -58 -131.5t-142 -51.5q-44 0 -82 15q-23 -4 -37 -18t-14 -35q0 -54 76 -54h109q213 0 213 -155zM260 228q45 0 74.5 28t29.5 71q0 44 -29 71.5t-75 27.5t-75 -27.5t-29 -71.5q0 -43 29.5 -71
t74.5 -28zM273 -176h6q150 0 150 75q0 65 -123 65h-59q-127 0 -127 -65q0 -75 153 -75z" />
    <glyph glyph-name="gdotaccent.alt" horiz-adv-x="540" 
d="M260 609q-28 0 -47 19t-19 47q0 29 19 47.5t47 18.5q29 0 47.5 -18.5t18.5 -47.5q0 -28 -18.5 -47t-47.5 -19zM525 -103q0 -72 -60.5 -114.5t-184.5 -42.5h-17q-119 0 -178.5 37.5t-59.5 99.5q0 69 80 103q-66 31 -66 99q0 81 90 108q-69 53 -69 140q0 79 58 131t142 52
q77 0 135 -45l14 21q9 14 18.5 19t27.5 5h75v-102h-89q19 -38 19 -81q0 -80 -58 -131.5t-142 -51.5q-44 0 -82 15q-23 -4 -37 -18t-14 -35q0 -54 76 -54h109q213 0 213 -155zM260 228q45 0 74.5 28t29.5 71q0 44 -29 71.5t-75 27.5t-75 -27.5t-29 -71.5q0 -43 29.5 -71
t74.5 -28zM273 -176h6q150 0 150 75q0 65 -123 65h-59q-127 0 -127 -65q0 -75 153 -75z" />
    <glyph glyph-name="gcommaaccent.alt" horiz-adv-x="540" 
d="M282 780h67l-30 -150h-103zM525 -103q0 -72 -60.5 -114.5t-184.5 -42.5h-17q-119 0 -178.5 37.5t-59.5 99.5q0 69 80 103q-66 31 -66 99q0 81 90 108q-69 53 -69 140q0 79 58 131t142 52q77 0 135 -45l14 21q9 14 18.5 19t27.5 5h75v-102h-89q19 -38 19 -81
q0 -80 -58 -131.5t-142 -51.5q-44 0 -82 15q-23 -4 -37 -18t-14 -35q0 -54 76 -54h109q213 0 213 -155zM260 228q45 0 74.5 28t29.5 71q0 44 -29 71.5t-75 27.5t-75 -27.5t-29 -71.5q0 -43 29.5 -71t74.5 -28zM273 -176h6q150 0 150 75q0 65 -123 65h-59q-127 0 -127 -65
q0 -75 153 -75z" />
    <glyph glyph-name="idotaccent" horiz-adv-x="248" 
d="M124 609q-28 0 -47 19t-19 47q0 29 19 47.5t47 18.5q29 0 47.5 -18.5t18.5 -47.5q0 -28 -18.5 -47t-47.5 -19zM174 0h-100v500h100v-500z" />
    <glyph glyph-name="schwa" horiz-adv-x="566" 
d="M37 250q0 12 2 34h392q-9 65 -49 101.5t-103 36.5q-89 0 -121 -72h-108q23 77 84.5 118.5t148.5 41.5q107 0 176.5 -73t69.5 -187t-69.5 -187t-176.5 -73t-176.5 73t-69.5 187zM283 78q61 0 99.5 35.5t47.5 98.5h-294q9 -63 48 -98.5t99 -35.5z" />
    <glyph glyph-name="afii10065.alt" horiz-adv-x="615" 
d="M441 0v75q-63 -85 -164 -85q-103 0 -171.5 73t-68.5 187t68.5 187t171.5 73q101 0 164 -85v75h100v-500h-100zM289 418q-66 0 -109 -46.5t-43 -121.5t43 -121.5t109 -46.5t109 46.5t43 121.5t-43 121.5t-109 46.5z" />
    <glyph glyph-name="afii10067.bgr" horiz-adv-x="542" 
d="M505 216q0 -100 -59 -163t-169 -63q-106 0 -167 62.5t-61 164.5v330q0 95 57.5 154t161.5 59t161.5 -54.5t57.5 -140.5q0 -58 -26.5 -101.5t-72.5 -66.5q117 -48 117 -181zM149 550v-117h103q135 0 135 131q0 52 -32 82t-87 30t-87 -34t-32 -92zM149 218q0 -64 33.5 -100
t94.5 -36t94.5 35t33.5 98t-41.5 98.5t-112.5 35.5h-102v-131z" />
    <glyph glyph-name="afii10068.bgr" horiz-adv-x="504" 
d="M44 135q0 49 22.5 82t56.5 46t73.5 23.5t73.5 16.5t56.5 22.5t22.5 43.5q0 28 -24.5 44.5t-66.5 16.5q-43 0 -72 -24t-29 -59h-104q0 69 58.5 116t146.5 47q83 0 137 -38.5t54 -102.5q0 -48 -22.5 -79.5t-55.5 -44t-72.5 -22.5t-72.5 -16t-55.5 -24t-22.5 -47
q0 -67 96 -67q50 0 81 24t31 68h104q0 -80 -60.5 -125.5t-155.5 -45.5q-88 0 -144 39.5t-56 105.5z" />
    <glyph glyph-name="afii10069.bgr" horiz-adv-x="616" 
d="M542 -4q0 -112 -71 -184t-175 -72q-98 0 -165 59.5t-81 156.5h101q10 -57 48.5 -90.5t96.5 -33.5q68 0 107 45.5t39 118.5v79q-63 -85 -164 -85q-103 0 -171.5 73t-68.5 187t68.5 187t171.5 73q101 0 164 -85v75h100v-504zM290 82q66 0 109 46.5t43 121.5t-43 121.5
t-109 46.5t-109 -46.5t-43 -121.5t43 -121.5t109 -46.5z" />
    <glyph glyph-name="afii10072.bgr" horiz-adv-x="807" 
d="M355 0v261l-217 -261h-126l233 272l-215 228h133l192 -220v470h100v-471l193 221h128l-210 -228l229 -272h-123l-217 263v-263h-100z" />
    <glyph glyph-name="afii10073.bgr" horiz-adv-x="538" 
d="M501 -34q0 -101 -59 -163.5t-170 -62.5q-106 0 -169 64t-65 176h104q2 -74 36 -115t95 -41q63 0 95.5 40t32.5 102q0 60 -34 97.5t-106 37.5h-74v91h78q54 0 87.5 30.5t33.5 86.5q0 57 -30.5 87t-84.5 30q-53 0 -85.5 -31t-36.5 -90h-104q4 89 63 147t163 58
q103 0 158.5 -55t55.5 -139q0 -119 -101 -165q117 -45 117 -185z" />
    <glyph glyph-name="afii10074.bgr" horiz-adv-x="580" 
d="M406 0v80q-47 -90 -149 -90q-84 0 -136 56t-52 163v291h100v-271q0 -74 31.5 -112.5t87.5 -38.5t87 38.5t31 112.5v271h100v-500h-100z" />
    <glyph glyph-name="afii10075.bgr" horiz-adv-x="580" 
d="M357 750h79q0 -70 -41.5 -110t-109.5 -40t-109 40t-41 110h79q0 -39 20.5 -58.5t50.5 -19.5q72 0 72 78zM406 0v80q-47 -90 -149 -90q-84 0 -136 56t-52 163v291h100v-271q0 -74 31.5 -112.5t87.5 -38.5t87 38.5t31 112.5v271h100v-500h-100z" />
    <glyph glyph-name="afii10076.bgr" horiz-adv-x="552" 
d="M413 0l-239 263v-263h-100v750h100v-472l215 222h133l-235 -228l253 -272h-127z" />
    <glyph glyph-name="afii10077.bgr" horiz-adv-x="500" 
d="M10 0l170 500h140l170 -500h-104l-136 420l-136 -420h-104z" />
    <glyph glyph-name="afii10079.bgr" horiz-adv-x="590" 
d="M414 0v207h-240v-207h-100v500h100v-202h240v202h100v-500h-100z" />
    <glyph glyph-name="afii10081.bgr" horiz-adv-x="585" 
d="M174 273v-273h-100v500h100v-79q48 89 152 89q85 0 137.5 -55.5t52.5 -161.5v-293h-100v273q0 73 -32 111t-89 38t-89 -38t-32 -111z" />
    <glyph glyph-name="afii10084.bgr" horiz-adv-x="875" 
d="M174 287v-287h-100v500h100v-70q45 80 139 80q115 0 158 -99q44 99 159 99q79 0 127.5 -52t48.5 -151v-307h-100v287q0 67 -28 101t-79 34q-52 0 -80.5 -34.5t-28.5 -100.5v-287h-100v287q0 66 -28.5 100.5t-79.5 34.5t-79.5 -34.5t-28.5 -100.5z" />
    <glyph glyph-name="afii10088.bgr" horiz-adv-x="605" 
d="M576 92v-227h-92v135h-78v80q-47 -90 -149 -90q-84 0 -136 56t-52 163v291h100v-271q0 -74 31.5 -112.5t87.5 -38.5t87 38.5t31 112.5v271h100v-408h70z" />
    <glyph glyph-name="afii10089.bgr" horiz-adv-x="545" 
d="M274 264q32 0 98 12v224h100v-500h-100v186q-59 -14 -106 -14q-112 0 -165.5 51t-53.5 163v114h100v-113q0 -66 31.5 -94.5t95.5 -28.5z" />
    <glyph glyph-name="afii10090.bgr" horiz-adv-x="875" 
d="M701 0v70q-45 -80 -139 -80q-115 0 -158 99q-44 -99 -159 -99q-79 0 -127.5 52t-48.5 151v307h100v-287q0 -67 28 -101t79 -34q52 0 80.5 34.5t28.5 100.5v287h100v-287q0 -66 28.5 -100.5t79.5 -34.5t79.5 34.5t28.5 100.5v287h100v-500h-100z" />
    <glyph glyph-name="afii10091.bgr" horiz-adv-x="900" 
d="M871 92v-227h-92v135h-78v70q-45 -80 -139 -80q-115 0 -158 99q-44 -99 -159 -99q-79 0 -127.5 52t-48.5 151v307h100v-287q0 -67 28 -101t79 -34q52 0 80.5 34.5t28.5 100.5v287h100v-287q0 -66 28.5 -100.5t79.5 -34.5t79.5 34.5t28.5 100.5v287h100v-408h70z" />
    <glyph glyph-name="afii10092.bgr" horiz-adv-x="611" 
d="M18 408v92h235v-137q56 6 110 6q105 0 160 -49t55 -136t-55.5 -140.5t-157.5 -53.5q-100 0 -156 55.5t-56 155.5v207h-135zM253 202q0 -59 29 -89.5t83 -30.5q113 0 113 101q0 96 -116 96q-59 0 -109 -6v-71z" />
    <glyph glyph-name="afii10094.bgr" horiz-adv-x="524" 
d="M491 184q0 -87 -55.5 -140.5t-157.5 -53.5q-100 0 -156 55.5t-56 155.5v299h100v-137q56 6 110 6q105 0 160 -49t55 -136zM166 202q0 -59 29 -89.5t83 -30.5q113 0 113 101q0 96 -116 96q-59 0 -109 -6v-71z" />
    <glyph glyph-name="afii10096.bgr" horiz-adv-x="780" 
d="M743 250q0 -114 -70.5 -187t-177.5 -73q-96 0 -164 60t-81 157h-76v-207h-100v750h100v-452h77q14 95 81.5 153.5t162.5 58.5q107 0 177.5 -73t70.5 -187zM495 82q64 0 106 46.5t42 121.5t-42 121.5t-106 46.5t-106 -46.5t-42 -121.5t42 -121.5t106 -46.5z" />
    <glyph glyph-name="afii10066.locl" horiz-adv-x="580" 
d="M543 250q0 -114 -72 -187t-181 -73t-181 73t-72 187q0 145 114 210q-88 33 -88 126q0 141 182 141h137q40 0 42 23h100q-2 -63 -32.5 -89t-106.5 -26h-132q-90 0 -90 -54q0 -34 25.5 -49t101.5 -22q118 -11 185.5 -79t67.5 -181zM290 82q66 0 109.5 46.5t43.5 121.5
t-43.5 121.5t-109.5 46.5t-109.5 -46.5t-43.5 -121.5t43.5 -121.5t109.5 -46.5z" />
    <glyph glyph-name="afii10068.locl" horiz-adv-x="427" 
d="M74 0v500h329v-92h-229v-408h-100z" />
    <glyph glyph-name="afii10069.locl" horiz-adv-x="597" 
d="M477 -135v135h-367v-135h-92v227h49q22 42 34 125t13 283h385v-408h70v-227h-92zM194 211q-11 -82 -26 -119h231v316h-194q-1 -125 -11 -197z" />
    <glyph glyph-name="afii10081.locl" horiz-adv-x="574" 
d="M74 0v500h426v-500h-100v408h-226v-408h-100z" />
    <glyph glyph-name="afii10084.locl" horiz-adv-x="460" 
d="M18 408v92h424v-92h-162v-408h-100v408h-162z" />
    <glyph glyph-name="a.superior" horiz-adv-x="358" 
d="M242 262v56q-30 -62 -109 -62q-45 0 -76.5 23.5t-31.5 68.5q0 47 33.5 70t73.5 26t73.5 13t33.5 33q0 21 -17 33t-43 12q-30 0 -47 -15t-17 -43h-80q0 59 42 88t104 29q61 0 101 -26t40 -81v-225h-80zM107 354q0 -18 14.5 -28.5t36.5 -10.5q35 0 59 20.5t24 56.5v25
q-17 -9 -53.5 -15t-58.5 -15.5t-22 -32.5z" />
    <glyph glyph-name="b.superior" horiz-adv-x="400" 
d="M379 425q0 -75 -42.5 -122t-108.5 -47t-105 55v-49h-81v488h82v-209q40 53 104 53q66 0 108.5 -46.5t42.5 -122.5zM211 522q-38 0 -62.5 -27t-24.5 -70q0 -42 24.5 -69t62.5 -27t63 26.5t25 69.5t-24.5 70t-63.5 27z" />
    <glyph glyph-name="c.superior" horiz-adv-x="372" 
d="M267 455q-4 31 -26.5 49t-54.5 18q-37 0 -61 -27t-24 -70t23.5 -69.5t61.5 -26.5q33 0 55.5 19.5t26.5 53.5h83q-5 -65 -50.5 -105.5t-114.5 -40.5q-72 0 -118.5 47.5t-46.5 121.5q0 75 46.5 122t118.5 47q67 0 112 -38.5t52 -100.5h-83z" />
    <glyph glyph-name="d.superior" horiz-adv-x="400" 
d="M277 262v49q-39 -55 -105 -55t-108.5 47t-42.5 122q0 76 42.5 122.5t108.5 46.5q64 0 104 -53v209h82v-488h-81zM189 522q-38 0 -62.5 -27t-24.5 -70t24.5 -69.5t62.5 -26.5t62.5 27t24.5 69q0 43 -24.5 70t-62.5 27z" />
    <glyph glyph-name="e.superior" horiz-adv-x="368" 
d="M347 425q0 -14 -1 -22h-247q5 -38 28 -59t59 -21q54 0 71 42h83q-16 -52 -56.5 -80.5t-99.5 -28.5q-71 0 -117 47.5t-46 121.5q0 75 45.5 122t117.5 47t117.5 -47t45.5 -122zM184 527q-72 0 -84 -76h168q-6 37 -28 56.5t-56 19.5z" />
    <glyph glyph-name="f.superior" horiz-adv-x="247" 
d="M145 632v-44h85v-66h-85v-260h-83v260h-51v66h51v46q0 60 33 91t89 31q33 0 51 -7v-67q-17 6 -39 6q-51 0 -51 -56z" />
    <glyph glyph-name="g.superior" horiz-adv-x="400" 
d="M358 256q0 -72 -47 -117.5t-117 -45.5q-67 0 -112 38.5t-54 102.5h80q5 -33 27.5 -53t56.5 -20q39 0 61.5 26t22.5 69v53q-40 -53 -104 -53q-66 0 -108.5 47t-42.5 122t42.5 122t108.5 47t105 -55v49h81v-332zM189 328q38 0 62.5 27t24.5 70t-24.5 70t-62.5 27t-62.5 -27
t-24.5 -70t24.5 -70t62.5 -27z" />
    <glyph glyph-name="h.superior" horiz-adv-x="380" 
d="M124 440v-178h-82v488h82v-210q31 54 97 54q54 0 87.5 -34.5t33.5 -99.5v-198h-82v178q0 86 -68 86t-68 -86z" />
    <glyph glyph-name="i.superior" horiz-adv-x="165" 
d="M83 649q-22 0 -36.5 14.5t-14.5 35.5q0 20 14.5 34.5t36.5 14.5q21 0 35.5 -14t14.5 -35t-14 -35.5t-36 -14.5zM124 262h-82v326h82v-326z" />
    <glyph glyph-name="j.superior" horiz-adv-x="165" 
d="M83 649q-22 0 -36.5 14.5t-14.5 35.5q0 20 14.5 34.5t36.5 14.5q21 0 35.5 -14t14.5 -35t-14 -35.5t-36 -14.5zM42 210v378h82v-380q0 -111 -109 -111q-12 0 -40 4v68q8 -2 24 -2q22 0 32.5 9.5t10.5 33.5z" />
    <glyph glyph-name="k.superior" horiz-adv-x="359" 
d="M262 262l-138 169v-169h-82v488h82v-305l127 143h99l-141 -149l154 -177h-101z" />
    <glyph glyph-name="l.superior" horiz-adv-x="165" 
d="M124 262h-82v488h82v-488z" />
    <glyph glyph-name="m.superior" horiz-adv-x="569" 
d="M124 448v-186h-82v326h81v-46q29 52 91 52q75 0 102 -64q27 64 102 64q51 0 82 -32.5t31 -94.5v-205h-82v186q0 78 -60 78q-62 0 -62 -78v-186h-82v186q0 78 -61 78q-60 0 -60 -78z" />
    <glyph glyph-name="n.superior" horiz-adv-x="380" 
d="M124 440v-178h-82v326h81v-50q30 56 98 56q54 0 87.5 -34.5t33.5 -99.5v-198h-82v178q0 86 -68 86t-68 -86z" />
    <glyph glyph-name="o.superior" horiz-adv-x="377" 
d="M189 256q-73 0 -120.5 47.5t-47.5 121.5q0 75 47.5 122t120.5 47q72 0 119.5 -47t47.5 -122q0 -74 -47.5 -121.5t-119.5 -47.5zM189 329q38 0 62.5 27t24.5 69q0 43 -24.5 70t-62.5 27q-39 0 -63.5 -27t-24.5 -70t25 -69.5t63 -26.5z" />
    <glyph glyph-name="p.superior" horiz-adv-x="400" 
d="M228 256q-64 0 -104 53v-209h-82v488h81v-48q40 54 105 54q66 0 108.5 -46.5t42.5 -122.5q0 -75 -42.5 -122t-108.5 -47zM211 329q38 0 63 26.5t25 69.5t-24.5 70t-63.5 27q-38 0 -62.5 -27t-24.5 -70q0 -42 24.5 -69t62.5 -27z" />
    <glyph glyph-name="q.superior" horiz-adv-x="400" 
d="M358 588v-488h-82v209q-40 -53 -104 -53q-66 0 -108.5 47t-42.5 122q0 76 42.5 122.5t108.5 46.5q65 0 105 -54v48h81zM189 329q38 0 62.5 27t24.5 69q0 43 -24.5 70t-62.5 27t-62.5 -27t-24.5 -70t24.5 -69.5t62.5 -26.5z" />
    <glyph glyph-name="r.superior" horiz-adv-x="249" 
d="M124 434v-172h-82v325h79v-53q29 60 94 60q15 0 20 -2v-83q-15 5 -34 5q-77 0 -77 -80z" />
    <glyph glyph-name="s.superior" horiz-adv-x="328" 
d="M304 357q0 -46 -37.5 -73.5t-97.5 -27.5q-63 0 -104 30t-41 82h78q0 -26 18.5 -40t47.5 -14q57 0 57 40q0 18 -20 27.5t-48.5 14.5t-57.5 12.5t-49 29.5t-20 59q0 45 36.5 71t92.5 26q59 0 99 -30.5t40 -76.5h-78q0 22 -17 35.5t-43 13.5q-52 0 -52 -37q0 -17 20 -25.5
t49 -13t58 -13t49 -31t20 -59.5z" />
    <glyph glyph-name="t.superior" horiz-adv-x="254" 
d="M142 379q0 -54 50 -54q19 0 38 7v-68q-24 -8 -54 -8q-116 0 -116 119v147h-49v66h49v91h82v-91h88v-66h-88v-143z" />
    <glyph glyph-name="u.superior" horiz-adv-x="377" 
d="M255 262v51q-29 -58 -97 -58q-54 0 -87 35t-33 101v197h82v-178q0 -86 67 -86t67 86v178h82v-326h-81z" />
    <glyph glyph-name="v.superior" horiz-adv-x="325" 
d="M321 588l-98 -326h-121l-97 326h82l76 -280l75 280h83z" />
    <glyph glyph-name="w.superior" horiz-adv-x="497" 
d="M490 588l-79 -326h-103l-59 269l-59 -269h-104l-78 326h75l58 -271l59 271h97l60 -271l58 271h75z" />
    <glyph glyph-name="x.superior" horiz-adv-x="338" 
d="M245 262l-78 121l-73 -121h-92l112 168l-105 158h90l71 -113l70 113h90l-106 -158l112 -168h-91z" />
    <glyph glyph-name="y.superior" horiz-adv-x="326" 
d="M212 246q-23 -75 -57 -113t-95 -38q-21 0 -54 7v65q23 -7 44 -7q51 0 78 48l-125 380h81l79 -274l79 274h80z" />
    <glyph glyph-name="z.superior" horiz-adv-x="306" 
d="M290 329v-67h-268v84l179 176h-176v66h252v-83l-179 -176h192z" />
    <glyph glyph-name="grave.cap" horiz-adv-x="500" 
d="M212 840l-92 150h111l64 -150h-83z" />
    <glyph glyph-name="acute.cap" horiz-adv-x="500" 
d="M297 840h-83l64 150h111z" />
    <glyph glyph-name="circumflex.cap" horiz-adv-x="500" 
d="M174 840h-83l104 150h110l104 -150h-83l-76 87z" />
    <glyph glyph-name="caron.cap" horiz-adv-x="500" 
d="M409 990l-104 -150h-110l-104 150h83l76 -87l76 87h83z" />
    <glyph glyph-name="caronSlovak" horiz-adv-x="500" 
d="M292 750h97l-44 -185h-57z" />
    <glyph glyph-name="tilde.cap" horiz-adv-x="500" 
d="M86 842v50q0 96 82 96q35 0 81.5 -34t64.5 -34q32 0 32 39v27h68v-50q0 -96 -82 -96q-35 0 -81.5 34t-64.5 34q-32 0 -32 -39v-27h-68z" />
    <glyph glyph-name="dieresis.cap" horiz-adv-x="500" 
d="M150 857q-24 0 -41 17t-17 41t17 41t41 17q25 0 41.5 -17t16.5 -41t-16.5 -41t-41.5 -17zM350 857q-24 0 -41 17t-17 41t17 41t41 17q25 0 41.5 -17t16.5 -41t-16.5 -41t-41.5 -17z" />
    <glyph glyph-name="macron.cap" horiz-adv-x="500" 
d="M392 923v-67h-276v67h276z" />
    <glyph glyph-name="breve.cap" horiz-adv-x="500" 
d="M322 990h79q0 -70 -41.5 -110t-109.5 -40t-109 40t-41 110h79q0 -39 20.5 -58.5t50.5 -19.5q72 0 72 78z" />
    <glyph glyph-name="brevecyrillic" horiz-adv-x="500" 
d="M321 750h80q0 -70 -41.5 -110t-109.5 -40t-109 40t-41 110h80q0 -40 20 -59.5t50 -19.5q32 0 51.5 19.5t19.5 59.5z" />
    <glyph glyph-name="brevecyrillic.cap" horiz-adv-x="500" 
d="M321 990h80q0 -70 -41.5 -110t-109.5 -40t-109 40t-41 110h80q0 -40 20 -59.5t50 -19.5q32 0 51.5 19.5t19.5 59.5z" />
    <glyph glyph-name="ring.cap" horiz-adv-x="500" 
d="M250 810q-46 0 -75 27.5t-29 67.5t29 67.5t75 27.5t75.5 -27.5t29.5 -67.5t-29.5 -67.5t-75.5 -27.5zM250 862q20 0 32.5 12t12.5 31t-12.5 31t-32.5 12q-18 0 -31 -12.5t-13 -30.5t13 -30.5t31 -12.5z" />
    <glyph glyph-name="hungarumlaut.cap" horiz-adv-x="500" 
d="M199 840h-67l30 150h103zM379 840h-67l30 150h103z" />
    <glyph glyph-name="dotaccent.cap" horiz-adv-x="500" 
d="M250 849q-28 0 -47 19t-19 47q0 29 19 47.5t47 18.5q29 0 47.5 -18.5t18.5 -47.5q0 -28 -18.5 -47t-47.5 -19z" />
    <glyph glyph-name="commaaccent.alt" horiz-adv-x="500" 
d="M272 750h67l-30 -150h-103z" />
    <glyph glyph-name="hyphen.cap" horiz-adv-x="350" 
d="M296 329h-242v92h242v-92z" />
    <glyph glyph-name="exclamdown.cap" horiz-adv-x="256" 
d="M128 760q26 0 44 -18t18 -44t-18 -44.5t-44 -18.5t-44.5 18.5t-18.5 44.5q0 25 18.5 43.5t44.5 18.5zM82 500h92l8 -500h-108z" />
    <glyph glyph-name="questiondown.cap" horiz-adv-x="497" 
d="M246 760q25 0 43.5 -18.5t18.5 -43.5q0 -26 -18.5 -44.5t-43.5 -18.5q-26 0 -44.5 18.5t-18.5 44.5q0 25 18.5 43.5t44.5 18.5zM29 181q0 42 17 76.5t41.5 58t49.5 46t43 52t19 64.5l1 22h92v-27q0 -41 -17 -76.5t-41 -60t-47.5 -47.5t-40.5 -50.5t-17 -57.5
q0 -47 30.5 -73t85.5 -26t88.5 32t33.5 100v28h101v-38q0 -103 -64 -158.5t-159 -55.5q-99 0 -157.5 50.5t-58.5 140.5z" />
    <glyph glyph-name="guilsinglleft.cap" horiz-adv-x="320" 
d="M270 176l-220 148v102l220 148v-93l-168 -106l168 -106v-93z" />
    <glyph glyph-name="guilsinglright.cap" horiz-adv-x="320" 
d="M50 574l220 -148v-102l-220 -148v93l168 106l-168 106v93z" />
    <glyph glyph-name="guillemotleft.cap" horiz-adv-x="580" 
d="M270 176l-220 148v102l220 148v-93l-168 -106l168 -106v-93zM530 176l-220 148v102l220 148v-93l-168 -106l168 -106v-93z" />
    <glyph glyph-name="guillemotright.cap" horiz-adv-x="580" 
d="M310 574l220 -148v-102l-220 -148v93l168 106l-168 106v93zM50 574l220 -148v-102l-220 -148v93l168 106l-168 106v93z" />
    <glyph glyph-name="slash.OP" horiz-adv-x="391" 
d="M57 -150h-73l300 900h73z" />
    <glyph glyph-name="backslash.OP" horiz-adv-x="391" 
d="M334 -150l-300 900h73l300 -900h-73z" />
    <glyph glyph-name="endash.cap" horiz-adv-x="500" 
d="M450 341h-400v68h400v-68z" />
    <glyph glyph-name="emdash.cap" horiz-adv-x="1000" 
d="M950 341h-900v68h900v-68z" />
    <glyph glyph-name="periodcentered.cap" horiz-adv-x="245" 
d="M122 314q-28 0 -47 19t-19 47t19 47t47 19q30 0 48.5 -18.5t18.5 -47.5q0 -28 -18.5 -47t-48.5 -19z" />
    <glyph glyph-name="parenleft.cap" horiz-adv-x="340" 
d="M96 375q0 260 154 465h84q-146 -195 -146 -465t146 -465h-84q-154 205 -154 465z" />
    <glyph glyph-name="parenright.cap" horiz-adv-x="340" 
d="M244 375q0 -260 -154 -465h-84q146 195 146 465t-146 465h84q154 -205 154 -465z" />
    <glyph glyph-name="bracketleft.cap" horiz-adv-x="340" 
d="M108 -90v930h227v-76h-135v-778h135v-76h-227z" />
    <glyph glyph-name="bracketright.cap" horiz-adv-x="340" 
d="M5 764v76h227v-930h-227v76h135v778h-135z" />
    <glyph glyph-name="braceleft.cap" horiz-adv-x="340" 
d="M92 329h-50v92h50q20 0 38 16t18 49v202q0 71 39 111.5t103 40.5h45v-76h-28q-30 0 -48.5 -21t-18.5 -62v-208q0 -60 -55 -98q55 -38 55 -98v-208q0 -41 18.5 -62t48.5 -21h28v-76h-45q-64 0 -103 40.5t-39 111.5v202q0 33 -18 49t-38 16z" />
    <glyph glyph-name="braceright.cap" horiz-adv-x="340" 
d="M248 421h50v-92h-50q-20 0 -38 -16t-18 -49v-202q0 -71 -39 -111.5t-103 -40.5h-45v76h28q30 0 48.5 21t18.5 62v208q0 60 55 98q-55 38 -55 98v208q0 41 -18.5 62t-48.5 21h-28v76h45q64 0 103 -40.5t39 -111.5v-202q0 -33 18 -49t38 -16z" />
    <glyph glyph-name="at.cap" horiz-adv-x="861" 
d="M605 34q-83 -44 -180 -44q-164 0 -274.5 112t-110.5 273q0 162 110 273.5t275 111.5q168 0 282 -111t114 -266q0 -120 -44 -181.5t-115 -61.5q-91 0 -125 75q-53 -75 -157 -75q-66 0 -113 33.5t-47 95.5q0 52 31 81.5t75.5 38.5t89 14.5t75.5 19.5t31 42q0 32 -27.5 51
t-69.5 19q-43 0 -70.5 -22.5t-27.5 -63.5h-93q0 81 54 120.5t135 39.5q80 0 134.5 -39t54.5 -118v-177q0 -88 59 -88q44 0 71 50.5t27 145.5q0 136 -98.5 233t-245.5 97q-143 0 -238 -98t-95 -240t95 -240t238 -98q84 0 160 41zM310 275q0 -55 82 -55q54 0 92 30.5t38 84.5
v32q-27 -13 -85.5 -21t-92.5 -22.5t-34 -48.5z" />
    <glyph glyph-name="servicemark" horiz-adv-x="926" 
d="M360 462q0 -56 -42.5 -89t-110.5 -33q-74 0 -120.5 37t-46.5 102h75q0 -33 27 -54t65 -21q35 0 57 16.5t22 41.5q0 26 -24.5 39.5t-59.5 19.5t-70 14.5t-59.5 34.5t-24.5 71q0 54 41.5 86.5t105.5 32.5q68 0 113 -38t45 -94h-75q0 26 -24.5 45.5t-58.5 19.5
q-32 0 -53.5 -14.5t-21.5 -37.5q0 -24 24.5 -36.5t60 -18.5t71 -15.5t60 -36.5t24.5 -72zM777 350v354l-92 -354h-93l-92 354v-354h-68v400h132l78 -320l75 320h135v-400h-75z" />
    <glyph glyph-name="numero" horiz-adv-x="969" 
d="M780 268q-73 0 -120.5 47.5t-47.5 121.5q0 75 47.5 122t120.5 47q72 0 119.5 -47t47.5 -122q0 -74 -47.5 -121.5t-119.5 -47.5zM516 600v-600h-168l-182 541v-541h-92v600h170l180 -535v535h92zM780 341q38 0 62.5 27t24.5 69q0 43 -24.5 70t-62.5 27q-39 0 -63.5 -27
t-24.5 -70t25 -69.5t63 -26.5zM919 96h-279v76h279v-76z" />
    <glyph glyph-name="zero.slash" 
d="M486 236q0 -121 -55 -183.5t-156 -62.5q-76 0 -126 36l-12 -26h-73l36 78q-36 63 -36 158v278q0 121 55 183.5t156 62.5q77 0 126 -36l12 26h73l-36 -78q36 -63 36 -158v-278zM164 236v-20l194 415q-27 37 -83 37q-111 0 -111 -154v-278zM386 514v20l-194 -416
q27 -36 83 -36q111 0 111 154v278z" />
    <glyph glyph-name="numbersign.LP" 
d="M253 0l52 206h-145l-52 -206h-76l52 206h-84v68h101l51 202h-93v68h110l52 206h76l-52 -206h145l52 206h76l-52 -206h84v-68h-101l-51 -202h93v-68h-110l-52 -206h-76zM177 274h145l51 202h-145z" />
    <glyph glyph-name="Euro.LP" 
d="M528 218q0 -108 -59.5 -168t-153.5 -60t-153.5 63t-59.5 177v18h-82v59h82v138h-82v59h82v16q0 114 59.5 177t153.5 63t153.5 -60t59.5 -168v-28h-100v20q0 144 -113 144t-113 -156v-8h158v-59h-158v-138h158v-59h-158v-10q0 -156 113 -156t113 144v22h100v-30z" />
    <glyph glyph-name="dollar.LP" 
d="M484 190q0 -87 -49 -138t-128 -60v-117h-60v116q-80 9 -130.5 61t-50.5 138v56h100v-49q0 -97 81 -112v258l-47 31q-58 39 -90.5 86.5t-32.5 115.5q0 81 47 128t123 55v116h60v-117q75 -10 120.5 -63.5t45.5 -142.5v-46h-100v43q0 97 -66 115v-239l56 -38
q121 -79 121 -197zM177 576q0 -61 70 -111v200q-70 -13 -70 -89zM384 178q0 70 -77 125v-218q36 8 56.5 32t20.5 61z" />
    <glyph glyph-name="cent.LP" 
d="M530 335q-12 -90 -72 -149t-149 -69v-117h-60v116q-98 10 -163 81.5t-65 177.5t65 177.5t163 81.5v116h60v-117q86 -9 145.5 -65t74.5 -143h-102q-10 46 -41.5 76.5t-76.5 38.5v-330q48 9 80.5 42.5t39.5 82.5h101zM121 375q0 -67 34 -112t94 -54v332q-60 -9 -94 -54
t-34 -112z" />
    <glyph glyph-name="sterling.LP" horiz-adv-x="526" 
d="M482 92v-92h-422v50q71 75 95.5 125.5t24.5 124.5q0 18 -5 36h-103v60h73l-19 28.5t-21 33.5t-15.5 31t-13.5 40t-4 42q0 90 56 139.5t143 49.5q88 0 145.5 -53.5t57.5 -152.5v-24h-100v16q0 122 -103 122q-45 0 -72 -24t-27 -73q0 -30 11.5 -58t33.5 -63t31 -54h180v-60
h-161q3 -15 3 -33q0 -117 -73 -211h285z" />
    <glyph glyph-name="florin.LP" horiz-adv-x="532" 
d="M434 336h-162l-125 -586h-100l125 586h-94v60h106l39 182q20 96 73.5 139t145.5 43q32 0 58 -8v-92q-21 8 -69 8q-90 0 -108 -93l-38 -179h149v-60z" />
    <glyph glyph-name="yen.LP" 
d="M453 248h-128v-248h-100v248h-128v59h128v138h-128v59h96l-153 246h98l137 -227l137 227h98l-153 -246h96v-59h-128v-138h128v-59z" />
    <glyph glyph-name="afii61352.LP" horiz-adv-x="931" 
d="M741 356q-70 0 -112.5 50.5t-42.5 149.5t42.5 150t112.5 51t112 -51t42 -150q0 -100 -42 -150t-112 -50zM516 750v-750h-165l-185 687v-687h-92v750h167l183 -679v679h92zM741 427q74 0 74 129q0 131 -74 131q-75 0 -75 -131q0 -129 75 -129zM893 238h-304v72h304v-72z
" />
    <glyph glyph-name="uni20B4.LP" horiz-adv-x="537" 
d="M500 488v-60h-460v60h281q40 40 40 88q0 44 -24 68t-65 24q-91 0 -91 -111v-19h-100v22q0 97 53.5 148.5t137.5 51.5t136.5 -45.5t52.5 -138.5q0 -49 -17 -88h56zM472 190q0 -94 -57 -147t-144 -53t-144 52t-57 148q0 42 15 77h-45v60h460v-60h-296q-34 -39 -34 -89
q0 -45 27.5 -70.5t73.5 -25.5t73.5 31t27.5 84v17h100v-24z" />
    <glyph glyph-name="uni20B8.LP" horiz-adv-x="527" 
d="M470 750v-60h-414v60h414zM56 461v92h414v-92h-157v-461h-100v461h-157z" />
    <glyph glyph-name="uni20BD.LP" 
d="M28 394h66v356h217q95 0 151 -47.5t56 -140.5v-30q0 -97 -56.5 -147.5t-150.5 -50.5h-117v-128h210v-59h-210v-147h-100v147h-66v59h66v128h-66v60zM301 658h-107v-232h107q57 0 87 26.5t30 89.5v10q0 59 -29.5 82.5t-87.5 23.5z" />
    <glyph glyph-name="zero.slashLP" 
d="M486 236q0 -121 -55 -183.5t-156 -62.5q-76 0 -126 36l-12 -26h-73l36 78q-36 63 -36 158v278q0 121 55 183.5t156 62.5q77 0 126 -36l12 26h73l-36 -78q36 -63 36 -158v-278zM164 236v-20l194 415q-27 37 -83 37q-111 0 -111 -154v-278zM386 514v20l-194 -416
q27 -36 83 -36q111 0 111 154v278z" />
    <glyph glyph-name="zero.LP" 
d="M275 -10q-100 0 -155.5 62t-55.5 184v278q0 121 55.5 183.5t155.5 62.5q101 0 156 -62.5t55 -183.5v-278q0 -122 -55 -184t-156 -62zM275 82q111 0 111 154v278q0 154 -111 154t-111 -154v-278q0 -82 28 -118t83 -36z" />
    <glyph glyph-name="one.LP" horiz-adv-x="310" 
d="M136 716v34h100v-750h-100v526h-116v84h24q49 0 70.5 25t21.5 81z" />
    <glyph glyph-name="two.LP" horiz-adv-x="496" 
d="M444 551q0 -49 -19.5 -94.5t-48.5 -80t-64.5 -71.5t-66.5 -67.5t-55 -69t-30 -76.5h294v-92h-402v50q0 56 21.5 107t54 88t70.5 76t70.5 71.5t54 74t21.5 84.5q0 60 -25 88.5t-67 28.5q-94 0 -94 -126v-58h-100v66q0 101 54.5 155.5t139.5 54.5q83 0 137.5 -54.5
t54.5 -154.5z" />
    <glyph glyph-name="three.LP" horiz-adv-x="520" 
d="M476 189q0 -94 -60 -146.5t-151 -52.5q-92 0 -152.5 53t-60.5 148v44h100v-35q0 -60 30 -89t83 -29q111 0 111 116v22q0 116 -111 116h-56v100h56q91 0 91 105v30q0 97 -91 97q-43 0 -68 -23.5t-25 -71.5v-27h-100v36q0 84 54.5 131t138.5 47q82 0 136.5 -47.5
t54.5 -132.5v-36q0 -103 -88 -148q108 -45 108 -163v-44z" />
    <glyph glyph-name="four.LP" horiz-adv-x="520" 
d="M40 230l201 520h151v-520h96v-92h-96v-138h-100v138h-252v92zM123 230h169v442z" />
    <glyph glyph-name="five.LP" horiz-adv-x="492" 
d="M250 422q-42 0 -66 -21.5t-30 -55.5h-96v405h374v-92h-278v-212q41 64 122 64q86 0 130 -55.5t44 -162.5v-80q0 -106 -56.5 -164t-143.5 -58q-88 0 -145 55.5t-57 154.5v28h100v-12q0 -134 102 -134q46 0 73 32.5t27 97.5v74q0 136 -100 136z" />
    <glyph glyph-name="six.LP" 
d="M486 218q0 -108 -59 -168t-152 -60t-152 62.5t-59 175.5v294q0 113 59 175.5t152 62.5q90 0 146.5 -56t56.5 -158v-17h-100v9q0 130 -103 130q-111 0 -111 -154v-126q45 78 137 78q81 0 133 -59t52 -169v-20zM164 237v-18q0 -137 111 -137t111 137v18q0 137 -111 137
t-111 -137z" />
    <glyph glyph-name="seven.LP" horiz-adv-x="426" 
d="M234 51v-51h-100v34q0 85 11.5 163.5t23 127t44.5 123t46.5 100l58.5 110.5h-300v92h382v-125q-84 -162 -105 -215q-61 -154 -61 -359z" />
    <glyph glyph-name="eight.LP" horiz-adv-x="530" 
d="M480 191q0 -95 -61 -148t-154 -53t-154 53t-61 148v44q0 118 109 165q-87 45 -87 146v36q0 84 54.5 131t138.5 47t138.5 -47t54.5 -131v-36q0 -101 -87 -146q109 -47 109 -165v-44zM172 573v-26q0 -103 93 -103t93 103v26q0 95 -93 95q-43 0 -68 -23.5t-25 -71.5z
M150 234v-34q0 -60 30.5 -89t84.5 -29q115 0 115 118v34q0 118 -115 118t-115 -118z" />
    <glyph glyph-name="nine.LP" 
d="M486 228q0 -113 -59 -175.5t-152 -62.5q-90 0 -146.5 56t-56.5 158v17h100v-9q0 -130 103 -130q111 0 111 154v126q-45 -78 -137 -78q-81 0 -133 59t-52 169v20q0 108 59 168t152 60t152 -62.5t59 -175.5v-294zM386 513v18q0 137 -111 137t-111 -137v-18q0 -137 111 -137
t111 137z" />
    <glyph glyph-name="numbersign.OT" 
d="M268 0l42 166h-145l-42 -166h-76l42 166h-89v68h106l38 152h-85v68h102l37 146h76l-37 -146h145l37 146h76l-37 -146h92v-68h-109l-38 -152h88v-68h-105l-42 -166h-76zM182 234h145l38 152h-145z" />
    <glyph glyph-name="Euro.OT" 
d="M534 207q-11 -108 -69 -162.5t-147 -54.5q-82 0 -139.5 50t-78.5 149h-88v60h80q-2 32 -2 51t2 51h-80v60h89q20 98 78 148.5t139 50.5q89 0 147 -54.5t69 -162.5h-100q-7 63 -37 94t-79 31q-88 0 -116 -107h150v-60h-160q-2 -32 -2 -51t2 -51h160v-60h-150
q28 -107 116 -107q49 0 79 31t37 94h100z" />
    <glyph glyph-name="dollar.OT" 
d="M483 157q0 -71 -48 -115.5t-127 -50.5v-116h-60v117q-81 9 -131 57t-50 126h104q0 -77 77 -94v186q-38 14 -61 25t-51 32t-41.5 51.5t-13.5 71.5q0 68 46.5 111.5t120.5 50.5v116h60v-118q75 -11 122 -59.5t47 -115.5h-104q0 30 -17.5 52.5t-47.5 32.5v-174
q32 -12 50.5 -19.5t45.5 -24t42 -34t26 -45.5t11 -63zM182 447q0 -49 66 -80v153q-66 -12 -66 -73zM380 157q0 53 -72 86v-164q72 9 72 78z" />
    <glyph glyph-name="cent.OT" 
d="M529 210q-11 -90 -71.5 -149t-149.5 -69v-117h-59v116q-99 10 -164 81.5t-65 177.5t65 177.5t164 81.5v116h59v-117q87 -9 146.5 -65t73.5 -143h-102q-10 46 -41.5 76.5t-76.5 38.5v-330q48 9 80.5 42.5t39.5 82.5h101zM120 250q0 -67 34.5 -112t94.5 -54v332
q-60 -9 -94.5 -54t-34.5 -112z" />
    <glyph glyph-name="sterling.OT" 
d="M487 92v-92h-420v50q59 66 77.5 100t18.5 89v8h-88v60h65q-2 2 -14 20.5t-15.5 25t-11 22.5t-10 30.5t-2.5 31.5q0 82 53.5 127.5t135.5 45.5q88 0 145.5 -50t57.5 -139v-11h-100v11q0 47 -28.5 72t-74.5 25q-39 0 -64 -21t-25 -60q0 -23 8 -44t23 -46t21 -40h176v-60
h-162v-6q0 -83 -50 -149h284z" />
    <glyph glyph-name="florin.OT" 
d="M417 247h-151l-74 -372h-100l74 372h-89v60h101l24 121q19 96 73 139t146 43q33 0 57 -8v-92q-19 8 -68 8q-90 0 -108 -93l-24 -118h139v-60z" />
    <glyph glyph-name="yen.OT" 
d="M446 189h-120v-189h-100v189h-120v60h120v102h-120v60h96l-135 189h98l111 -160l111 160h97l-135 -189h97v-60h-120v-102h120v-60z" />
    <glyph glyph-name="afii61352.OT" 
d="M441 360q-47 0 -75 33t-28 94q0 58 28 91t75 33q48 0 75.5 -32.5t27.5 -91.5q0 -61 -27.5 -94t-75.5 -33zM309 600v-600h-111l-84 542v-542h-72v600h123l74 -522v522h70zM441 416q47 0 47 71q0 70 -47 70t-47 -70q0 -71 47 -71zM346 237v55h191v-55h-191z" />
    <glyph glyph-name="uni20B4.OT" 
d="M507 401v-60h-464v60h308q18 18 18 51q0 30 -23 48.5t-64 18.5q-50 0 -75 -22.5t-25 -55.5v-3h-104v5q0 78 56 122.5t148 44.5q90 0 138.5 -38.5t48.5 -112.5q0 -31 -10 -58h48zM481 152q0 -80 -55 -125t-146 -45q-100 0 -156.5 40.5t-56.5 115.5q0 33 16 65h-40v60h464
v-60h-322q-17 -20 -17 -55q0 -36 28.5 -55t75.5 -19q54 0 79.5 24.5t25.5 57.5v6h104v-10z" />
    <glyph glyph-name="uni20B8.OT" 
d="M474 600v-60h-398v60h398zM76 347v91h398v-91h-149v-347h-100v347h-149z" />
    <glyph glyph-name="uni20BD.OT" 
d="M52 300h66v300h185q94 0 148.5 -39.5t54.5 -117.5v-39q0 -78 -55 -121t-147 -43h-86v-84h158v-59h-158v-97h-100v97h-66v59h66v84h-66v60zM296 516h-78v-192h78q58 0 84 22.5t26 68.5v14q0 44 -26 65.5t-84 21.5z" />
    <glyph glyph-name="zero.slashOT" 
d="M503 300q0 -154 -62.5 -232t-165.5 -78q-75 0 -128 41l-19 -31h-81l52 83q-52 80 -52 217q0 153 62.5 231.5t165.5 78.5q75 0 128 -41l19 31h81l-52 -83q52 -80 52 -217zM147 300q0 -68 14 -118l190 305q-30 31 -76 31q-60 0 -94 -54.5t-34 -163.5zM403 300q0 69 -14 117
l-190 -304q30 -31 76 -31q61 0 94.5 54t33.5 164z" />
    <glyph glyph-name="zero.OT" 
d="M275 -10q-103 0 -165.5 78t-62.5 232q0 153 62.5 231.5t165.5 78.5t165.5 -78.5t62.5 -231.5q0 -154 -62.5 -232t-165.5 -78zM275 82q61 0 94.5 54t33.5 164q0 109 -34 163.5t-94 54.5t-94 -54.5t-34 -163.5q0 -110 33.5 -164t94.5 -54z" />
    <glyph glyph-name="one.OT" 
d="M253 559v41h100v-600h-100v376h-143v84h43q53 0 76.5 23t23.5 76z" />
    <glyph glyph-name="two.OT" 
d="M477 429q0 -46 -26 -86.5t-65 -70.5t-78.5 -57t-72.5 -59t-42 -64h292v-92h-420v43q0 54 32 101.5t78 82t92 66t78 66.5t32 70q0 41 -28.5 65t-74.5 24q-49 0 -77 -26t-28 -79v-19h-100v30q0 88 58 137t147 49q88 0 145.5 -48t57.5 -133z" />
    <glyph glyph-name="three.OT" 
d="M513 169q0 -86 -59 -132.5t-154 -46.5q-99 0 -165 50.5t-66 135.5h100q0 -43 36 -68.5t92 -25.5q53 0 84.5 24.5t31.5 66.5q0 43 -30.5 67t-90.5 24h-59v92h59q48 0 76 22t28 59q0 39 -30 60t-80 21q-51 0 -80.5 -24t-29.5 -68h-100q0 87 57 135.5t152 48.5
q94 0 152.5 -46.5t58.5 -122.5q0 -86 -77 -126q94 -45 94 -146z" />
    <glyph glyph-name="four.OT" 
d="M34 222l214 378h166v-378h118v-88h-118v-134h-100v134h-280v88zM134 222h180v321z" />
    <glyph glyph-name="five.OT" 
d="M274 326q-42 0 -69.5 -17t-36.5 -42h-96v333h395v-88h-299v-166q42 64 136 64q81 0 136.5 -57.5t55.5 -148.5q0 -95 -60 -154.5t-158 -59.5q-97 0 -156.5 55t-59.5 143h103q0 -48 31 -77t82 -29q54 0 86 34t32 88q0 55 -32 88.5t-90 33.5z" />
    <glyph glyph-name="six.OT" 
d="M496 189q0 -91 -59.5 -145t-148.5 -54q-106 0 -171.5 78t-65.5 232q0 152 69.5 231t167.5 79q86 0 144 -53.5t58 -135.5h-100q0 45 -27.5 71t-72.5 26q-62 0 -97.5 -55t-35.5 -165v-19q19 55 60.5 82t90.5 27q79 0 133.5 -53.5t54.5 -145.5zM288 82q46 0 77 30t31 77
t-31 77t-77 30t-77 -30t-31 -77t31 -77t77 -30z" />
    <glyph glyph-name="seven.OT" 
d="M296 48v-48h-100v32q0 263 198 480h-324v88h406v-124q-47 -55 -74.5 -93.5t-54.5 -91t-39 -111.5t-12 -132z" />
    <glyph glyph-name="eight.OT" 
d="M487 172q0 -83 -58 -132.5t-154 -49.5t-154 49.5t-58 132.5q0 47 25 85t69 61q-73 45 -73 126q0 76 52 121t139 45t139 -45t52 -121q0 -81 -73 -126q44 -23 69 -61t25 -85zM275 358q42 0 66.5 22.5t24.5 59.5q0 36 -24.5 59t-66.5 23t-66.5 -23t-24.5 -59
q0 -37 24.5 -59.5t66.5 -22.5zM275 78q51 0 81.5 27t30.5 71t-30.5 71t-81.5 27t-81.5 -27t-30.5 -71t30.5 -71t81.5 -27z" />
    <glyph glyph-name="nine.OT" 
d="M500 300q0 -152 -69.5 -231t-167.5 -79q-86 0 -144 53.5t-58 135.5h100q0 -45 27.5 -71t72.5 -26q62 0 97.5 55t35.5 165v19q-19 -55 -60.5 -82t-90.5 -27q-79 0 -133.5 53.5t-54.5 145.5q0 91 59.5 145t148.5 54q106 0 171.5 -78t65.5 -232zM263 518q-46 0 -77 -30
t-31 -77t31 -77t77 -30t77 30t31 77t-31 77t-77 30z" />
    <glyph glyph-name="numbersign.OP" horiz-adv-x="570" 
d="M278 0l42 166h-145l-42 -166h-76l42 166h-89v68h106l38 152h-85v68h102l37 146h76l-37 -146h145l37 146h76l-37 -146h92v-68h-109l-38 -152h88v-68h-105l-42 -166h-76zM192 234h145l38 152h-145z" />
    <glyph glyph-name="Euro.OP" horiz-adv-x="610" 
d="M542 207q-11 -108 -69 -162.5t-147 -54.5q-82 0 -139.5 50t-78.5 149h-88v60h80q-2 32 -2 51t2 51h-80v60h89q20 98 78 148.5t139 50.5q89 0 147 -54.5t69 -162.5h-100q-7 63 -37 94t-79 31q-88 0 -116 -107h150v-60h-160q-2 -32 -2 -51t2 -51h160v-60h-150
q28 -107 116 -107q49 0 79 31t37 94h100z" />
    <glyph glyph-name="dollar.OP" horiz-adv-x="504" 
d="M460 157q0 -71 -48 -115.5t-127 -50.5v-116h-60v117q-81 9 -131 57t-50 126h104q0 -77 77 -94v186q-38 14 -61 25t-51 32t-41.5 51.5t-13.5 71.5q0 68 46.5 111.5t120.5 50.5v116h60v-118q75 -11 122 -59.5t47 -115.5h-104q0 30 -17.5 52.5t-47.5 32.5v-174
q32 -12 50.5 -19.5t45.5 -24t42 -34t26 -45.5t11 -63zM159 447q0 -49 66 -80v153q-66 -12 -66 -73zM357 157q0 53 -72 86v-164q72 9 72 78z" />
    <glyph glyph-name="cent.OP" 
d="M530 210q-12 -90 -72 -149t-149 -69v-117h-60v116q-98 10 -163 81.5t-65 177.5t65 177.5t163 81.5v116h60v-117q86 -9 145.5 -65t74.5 -143h-102q-10 46 -41.5 76.5t-76.5 38.5v-330q48 9 80.5 42.5t39.5 82.5h101zM121 250q0 -67 34 -112t94 -54v332q-60 -9 -94 -54
t-34 -112z" />
    <glyph glyph-name="sterling.OP" horiz-adv-x="506" 
d="M476 92v-92h-420v50q58 65 77 99.5t19 89.5v8h-88v60h65q-2 2 -14 20.5t-15.5 25t-11 22.5t-10 30.5t-2.5 31.5q0 82 53.5 127.5t135.5 45.5q88 0 145.5 -50t57.5 -139v-11h-100v11q0 47 -28.5 72t-74.5 25q-39 0 -64 -21t-25 -60q0 -23 8 -44t23 -46t21 -40h176v-60
h-162v-6q0 -83 -50 -149h284z" />
    <glyph glyph-name="florin.OP" horiz-adv-x="532" 
d="M419 247h-151l-74 -372h-100l74 372h-89v60h101l24 121q19 96 73 139t146 43q33 0 57 -8v-92q-19 8 -68 8q-90 0 -108 -93l-24 -118h139v-60z" />
    <glyph glyph-name="yen.OP" horiz-adv-x="457" 
d="M399 189h-120v-189h-100v189h-120v60h120v102h-120v60h96l-135 189h98l111 -160l111 160h97l-135 -189h97v-60h-120v-102h120v-60z" />
    <glyph glyph-name="afii61352.OP" horiz-adv-x="945" 
d="M756 285q-73 0 -120.5 47.5t-47.5 121.5q0 75 47.5 122t120.5 47q72 0 119.5 -47t47.5 -122q0 -74 -47.5 -121.5t-119.5 -47.5zM512 600v-600h-168l-178 539v-539h-92v600h170l176 -533v533h92zM756 358q38 0 62.5 27t24.5 69q0 43 -24.5 70t-62.5 27q-39 0 -63.5 -27
t-24.5 -70t25 -69.5t63 -26.5zM895 128h-279v76h279v-76z" />
    <glyph glyph-name="uni20B4.OP" horiz-adv-x="540" 
d="M502 401v-60h-464v60h308q18 18 18 51q0 30 -23 48.5t-64 18.5q-50 0 -75 -22.5t-25 -55.5v-3h-104v5q0 78 56 122.5t148 44.5q90 0 138.5 -38.5t48.5 -112.5q0 -31 -10 -58h48zM476 152q0 -80 -55 -125t-146 -45q-100 0 -156.5 40.5t-56.5 115.5q0 33 16 65h-40v60h464
v-60h-322q-17 -20 -17 -55q0 -36 28.5 -55t75.5 -19q54 0 79.5 24.5t25.5 57.5v6h104v-10z" />
    <glyph glyph-name="uni20B8.OP" horiz-adv-x="527" 
d="M462 600v-60h-398v60h398zM64 347v91h398v-91h-149v-347h-100v347h-149z" />
    <glyph glyph-name="uni20BD.OP" horiz-adv-x="546" 
d="M50 300h66v300h185q94 0 148.5 -39.5t54.5 -117.5v-39q0 -78 -55 -121t-147 -43h-86v-84h158v-59h-158v-97h-100v97h-66v59h66v84h-66v60zM294 516h-78v-192h78q58 0 84 22.5t26 68.5v14q0 44 -26 65.5t-84 21.5z" />
    <glyph glyph-name="zero.slashOP" 
d="M503 300q0 -154 -62.5 -232t-165.5 -78q-75 0 -128 41l-19 -31h-81l52 83q-52 80 -52 217q0 153 62.5 231.5t165.5 78.5q75 0 128 -41l19 31h81l-52 -83q52 -80 52 -217zM147 300q0 -68 14 -118l190 305q-30 31 -76 31q-60 0 -94 -54.5t-34 -163.5zM403 300q0 69 -14 117
l-190 -304q30 -31 76 -31q61 0 94.5 54t33.5 164z" />
    <glyph glyph-name="zero.OP" 
d="M275 -10q-103 0 -165.5 78t-62.5 232q0 153 62.5 231.5t165.5 78.5t165.5 -78.5t62.5 -231.5q0 -154 -62.5 -232t-165.5 -78zM275 82q61 0 94.5 54t33.5 164q0 109 -34 163.5t-94 54.5t-94 -54.5t-34 -163.5q0 -110 33.5 -164t94.5 -54z" />
    <glyph glyph-name="one.OP" horiz-adv-x="310" 
d="M136 582v18h100v-600h-100v416h-116v84h40q40 0 58 19t18 63z" />
    <glyph glyph-name="two.OP" horiz-adv-x="486" 
d="M450 429q0 -46 -26 -86.5t-65 -70.5t-78.5 -57t-72.5 -59t-42 -64h292v-92h-420v43q0 54 32 101.5t78 82t92 66t78 66.5t32 70q0 41 -28.5 65t-74.5 24q-49 0 -77 -26t-28 -79v-19h-100v30q0 88 58 137t147 49q88 0 145.5 -48t57.5 -133z" />
    <glyph glyph-name="three.OP" horiz-adv-x="530" 
d="M491 169q0 -86 -59 -132.5t-154 -46.5q-99 0 -165 50.5t-66 135.5h100q0 -43 36 -68.5t92 -25.5q53 0 84.5 24.5t31.5 66.5q0 43 -30.5 67t-90.5 24h-59v92h59q48 0 76 22t28 59q0 39 -30 60t-80 21q-51 0 -80.5 -24t-29.5 -68h-100q0 87 57 135.5t152 48.5
q94 0 152.5 -46.5t58.5 -122.5q0 -86 -77 -126q94 -45 94 -146z" />
    <glyph glyph-name="four.OP" horiz-adv-x="530" 
d="M22 222l214 378h166v-378h118v-88h-118v-134h-100v134h-280v88zM122 222h180v321z" />
    <glyph glyph-name="five.OP" horiz-adv-x="525" 
d="M269 326q-42 0 -69.5 -17t-35.5 -42h-96v333h395v-88h-299v-166q44 64 136 64q81 0 136.5 -57.5t55.5 -148.5q0 -95 -60 -154.5t-158 -59.5q-97 0 -157 55t-60 143h103q0 -48 31 -77t83 -29q54 0 86 34t32 88q0 55 -32.5 88.5t-90.5 33.5z" />
    <glyph glyph-name="six.OP" horiz-adv-x="535" 
d="M493 189q0 -91 -59.5 -145t-148.5 -54q-106 0 -171.5 78t-65.5 232q0 152 69.5 231t167.5 79q86 0 144 -53.5t58 -135.5h-100q0 45 -27.5 71t-72.5 26q-62 0 -97.5 -55t-35.5 -165v-19q19 55 60.5 82t90.5 27q79 0 133.5 -53.5t54.5 -145.5zM285 82q46 0 77 30t31 77
t-31 77t-77 30t-77 -30t-31 -77t31 -77t77 -30z" />
    <glyph glyph-name="seven.OP" horiz-adv-x="426" 
d="M234 48v-48h-100v32q0 263 198 480h-324v88h406v-124q-47 -55 -74.5 -93.5t-54.5 -91t-39 -111.5t-12 -132z" />
    <glyph glyph-name="eight.OP" horiz-adv-x="530" 
d="M477 172q0 -83 -58 -132.5t-154 -49.5t-154 49.5t-58 132.5q0 47 25 85t69 61q-73 45 -73 126q0 76 52 121t139 45t139 -45t52 -121q0 -81 -73 -126q44 -23 69 -61t25 -85zM265 358q42 0 66.5 22.5t24.5 59.5q0 36 -24.5 59t-66.5 23t-66.5 -23t-24.5 -59
q0 -37 24.5 -59.5t66.5 -22.5zM265 78q51 0 81.5 27t30.5 71t-30.5 71t-81.5 27t-81.5 -27t-30.5 -71t30.5 -71t81.5 -27z" />
    <glyph glyph-name="nine.OP" horiz-adv-x="535" 
d="M487 300q0 -152 -69.5 -231t-167.5 -79q-86 0 -144 53.5t-58 135.5h100q0 -45 27.5 -71t72.5 -26q62 0 97.5 55t35.5 165v19q-19 -55 -60.5 -82t-90.5 -27q-79 0 -133.5 53.5t-54.5 145.5q0 91 59.5 145t148.5 54q106 0 171.5 -78t65.5 -232zM250 518q-46 0 -77 -30
t-31 -77t31 -77t77 -30t77 30t31 77t-31 77t-77 30z" />
    <glyph glyph-name="plussuperior" horiz-adv-x="325" 
d="M293 422h-104v-109h-53v109h-103v51h103v110h53v-110h104v-51z" />
    <glyph glyph-name="minussuperior" horiz-adv-x="325" 
d="M33 422v51h260v-51h-260z" />
    <glyph glyph-name="multiplysuperior" horiz-adv-x="325" 
d="M277 371l-38 -37l-77 76l-73 -73l-37 37l73 73l-77 77l38 38l77 -77l73 73l37 -37l-73 -73z" />
    <glyph glyph-name="dividesuperior" horiz-adv-x="325" 
d="M126 551q0 15 11 26.5t26 11.5t26 -11.5t11 -26.5q0 -16 -10.5 -26t-26.5 -10q-15 0 -26 10.5t-11 25.5zM33 422v51h260v-51h-260zM126 343q0 15 11 26t26 11q16 0 26.5 -11t10.5 -26q0 -16 -10.5 -26t-26.5 -10q-15 0 -26 10.5t-11 25.5z" />
    <glyph glyph-name="equalsuperior" horiz-adv-x="325" 
d="M33 487v51h260v-51h-260zM33 357v51h260v-51h-260z" />
    <glyph glyph-name="Eurosuperior" horiz-adv-x="397" 
d="M360 421q0 -80 -40.5 -122.5t-108.5 -42.5q-57 0 -95.5 33t-48.5 96h-54v43h50v2v55v1h-50v43h53q11 62 49.5 95t95.5 33q68 0 108.5 -42.5t40.5 -120.5h-79q0 96 -70 96q-52 0 -65 -61h86v-43h-90v-1v-55v-2h90v-43h-86q13 -62 65 -62q70 0 70 98h79z" />
    <glyph glyph-name="uni20B4superior" horiz-adv-x="347" 
d="M334 527v-43h-321v43h212q8 11 8 25q0 38 -60 38q-29 0 -44.5 -12t-15.5 -29v-1h-80v3q0 50 41 78t99 28q64 0 101.5 -24t37.5 -74q0 -16 -6 -32h28zM317 366q0 -52 -39.5 -81t-106.5 -29q-65 0 -104.5 26t-39.5 74q0 24 10 42h-24v43h321v-43h-214q-13 -13 -13 -33
q0 -42 64 -42q66 0 66 45v3h80v-5z" />
    <glyph glyph-name="uni20B8superior" horiz-adv-x="290" 
d="M269 651v-43h-249v43h249zM20 483v67h249v-67h-83v-221h-82v221h-84z" />
    <glyph glyph-name="uni20BDsuperior" horiz-adv-x="323" 
d="M12 458h32v193h124q141 0 141 -104v-18q0 -114 -141 -114h-41v-52h101v-43h-101v-58h-83v58h-32v43h32v52h-32v43zM163 586h-36v-111h36q64 0 64 52v6q0 29 -14.5 41t-49.5 12z" />
    <glyph glyph-name="zeroslashsuperior" horiz-adv-x="358" 
d="M331 456q0 -99 -41.5 -149.5t-110.5 -50.5q-46 0 -81 23l-11 -17h-61l34 55q-34 52 -34 139q0 99 42 150t111 51q46 0 81 -23l10 16h61l-34 -54q34 -53 34 -140zM103 456q0 -36 6 -62l112 178q-17 15 -42 15q-76 0 -76 -131zM254 456q0 36 -6 62l-111 -176q19 -14 42 -14
q75 0 75 128z" />
    <glyph glyph-name="plusinferior" horiz-adv-x="325" 
d="M293 -90h-104v-109h-53v109h-103v51h103v110h53v-110h104v-51z" />
    <glyph glyph-name="minusinferior" horiz-adv-x="325" 
d="M33 -90v51h260v-51h-260z" />
    <glyph glyph-name="multiplyinferior" horiz-adv-x="325" 
d="M277 -141l-38 -37l-77 76l-73 -73l-37 37l73 73l-77 77l38 38l77 -77l73 73l37 -37l-73 -73z" />
    <glyph glyph-name="divideinferior" horiz-adv-x="325" 
d="M126 39q0 15 11 26.5t26 11.5t26 -11.5t11 -26.5q0 -16 -10.5 -26t-26.5 -10q-15 0 -26 10.5t-11 25.5zM33 -90v51h260v-51h-260zM126 -169q0 15 11 26t26 11q16 0 26.5 -11t10.5 -26q0 -16 -10.5 -26t-26.5 -10q-15 0 -26 10.5t-11 25.5z" />
    <glyph glyph-name="equalinferior" horiz-adv-x="325" 
d="M33 -25v51h260v-51h-260zM33 -155v51h260v-51h-260z" />
    </font>
</defs>
</svg>
